<svg width="49" height="40" viewBox="0 0 49 40" fill="none" xmlns="http://www.w3.org/2000/svg">
<path d="M23.2105 40C22.0328 40 20.9522 39.7057 19.9688 39.1171C18.9853 38.5302 18.1945 37.7186 17.5962 36.6821C17.3555 36.2857 17.3615 35.8816 17.6142 35.4698C17.8669 35.0579 18.2349 34.852 18.718 34.852C18.9793 34.852 19.2175 34.9241 19.4324 35.0682C19.6473 35.2124 19.8278 35.4011 19.9739 35.6345C20.3195 36.1647 20.7829 36.5955 21.364 36.9266C21.9434 37.2578 22.5589 37.4234 23.2105 37.4234C24.2713 37.4234 25.1817 37.045 25.9416 36.2883C26.6998 35.5315 27.0789 34.6229 27.0789 33.5624C27.0789 32.5036 26.6998 31.5959 25.9416 30.8391C25.1817 30.0807 24.2713 29.7014 23.2105 29.7014H1.28947C0.923263 29.7014 0.616368 29.5787 0.368789 29.3333C0.12293 29.0879 0 28.7816 0 28.4144C0 28.0489 0.12293 27.7435 0.368789 27.4981C0.616368 27.251 0.923263 27.1274 1.28947 27.1274H23.2105C24.9952 27.1274 26.5167 27.7546 27.7753 29.009C29.0304 30.2617 29.6579 31.7804 29.6579 33.565C29.6579 35.3462 29.0304 36.8631 27.7753 38.1158C26.5167 39.3702 24.9952 39.9974 23.2105 39.9974M1.28947 15.4466C0.923263 15.4466 0.616368 15.3239 0.368789 15.0785C0.12293 14.8314 0 14.5242 0 14.157C0 13.7898 0.12293 13.4835 0.368789 13.2381C0.616368 12.9927 0.923263 12.87 1.28947 12.87H33.5263C34.931 12.87 36.1422 12.3621 37.1601 11.3462C38.1762 10.3338 38.6842 9.1257 38.6842 7.72201C38.6842 6.31832 38.1762 5.1094 37.1601 4.09524C36.1422 3.08108 34.931 2.574 33.5263 2.574C32.5085 2.574 31.5741 2.8417 30.723 3.37709C29.8737 3.9142 29.2444 4.64779 28.8352 5.57786C28.6977 5.8284 28.5309 6.03432 28.3349 6.19562C28.1355 6.35521 27.8999 6.43501 27.6283 6.43501C27.1658 6.43501 26.7901 6.26169 26.5013 5.91506C26.2124 5.56843 26.1471 5.17889 26.3053 4.74646C26.907 3.27413 27.8604 2.11497 29.1653 1.26898C30.4685 0.422995 31.9222 0 33.5263 0C35.6892 0 37.5194 0.74646 39.0169 2.23938C40.5144 3.7323 41.2632 5.55985 41.2632 7.72201C41.2632 9.87902 40.5144 11.7057 39.0169 13.2021C37.5194 14.695 35.6892 15.4414 33.5263 15.4414L1.28947 15.4466ZM44.4095 34.87C43.9453 35.0588 43.5197 35.0133 43.1329 34.7336C42.7461 34.4556 42.5526 34.0755 42.5526 33.5933C42.5526 33.3222 42.6326 33.0905 42.7925 32.8983C42.9541 32.7044 43.1604 32.5397 43.4114 32.4041C44.3433 31.9957 45.0783 31.3677 45.6164 30.5199C46.1528 29.6705 46.4211 28.7379 46.4211 27.722C46.4211 26.32 45.913 25.1111 44.8969 24.0952C43.8791 23.0811 42.6678 22.574 41.2632 22.574H1.28947C0.923263 22.574 0.616368 22.4513 0.368789 22.2059C0.12293 21.9588 0 21.6525 0 21.287C0 20.9215 0.12293 20.6152 0.368789 20.3681C0.616368 20.1227 0.923263 20 1.28947 20H41.2632C43.426 20 45.2562 20.7473 46.7537 22.242C48.2512 23.7366 49 25.5633 49 27.722C49 29.2922 48.5934 30.719 47.7802 32.0026C46.9669 33.2844 45.8451 34.2402 44.4095 34.87Z" fill="url(#paint0_linear_172_349)"/>
<defs>
<linearGradient id="paint0_linear_172_349" x1="24.5" y1="40" x2="24.5" y2="0" gradientUnits="userSpaceOnUse">
<stop stop-color="#094A6F"/>
<stop offset="1" stop-color="#64C8BD"/>
</linearGradient>
</defs>
</svg>
