<svg width="124" height="16" viewBox="0 0 124 16" fill="none" xmlns="http://www.w3.org/2000/svg">
<path d="M1 7C0.447715 7 4.82823e-08 7.44772 0 8C-4.82823e-08 8.55228 0.447715 9 1 9L1 7ZM123.707 8.70712C124.098 8.31659 124.098 7.68343 123.707 7.2929L117.343 0.928942C116.953 0.538418 116.319 0.538418 115.929 0.928942C115.538 1.31947 115.538 1.95263 115.929 2.34316L121.586 8.00001L115.929 13.6569C115.538 14.0474 115.538 14.6806 115.929 15.0711C116.319 15.4616 116.953 15.4616 117.343 15.0711L123.707 8.70712ZM1 9L123 9.00001L123 7.00001L1 7L1 9Z" fill="url(#paint0_linear_174_434)"/>
<defs>
<linearGradient id="paint0_linear_174_434" x1="62" y1="9.00001" x2="62" y2="8.00001" gradientUnits="userSpaceOnUse">
<stop stop-color="#094A6F"/>
<stop offset="1" stop-color="#64C8BD"/>
</linearGradient>
</defs>
</svg>
