<svg fill="none" height="20" viewBox="0 0 20 20" width="20" xmlns="http://www.w3.org/2000/svg" xmlns:xlink="http://www.w3.org/1999/xlink"><linearGradient id="a" gradientUnits="userSpaceOnUse" x1=".0005" x2="19.9922" y1="10.0014" y2="10.0014"><stop offset="0" stop-color="#094a6f"/><stop offset="1" stop-color="#64c8bd"/></linearGradient><path d="m11.1838 19.5166 8.3334-8.3333c.1517-.1585.2706-.3454.35-.55.1667-.4058.1667-.86088 0-1.26665-.0794-.20459-.1983-.39149-.35-.55l-8.3334-8.333333c-.1554-.155398-.3398-.278665-.5429-.362766-.203-.0841004-.4206-.12738694-.6404-.12738694-.44384 0-.8695.17631294-1.18334.49015294-.31383.313839-.49015.739493-.49015 1.183333s.17632.86949.49015 1.18333l5.50004 5.48334h-12.65003c-.44203 0-.865956.17559-1.178517.48815s-.48815327.73648-.48815327 1.17851c0 .44202.17559227.86592.48815327 1.17852s.736487.4881 1.178517.4881h12.65003l-5.50004 5.4834c-.15621.1549-.2802.3393-.36481.5424-.08462.2031-.12818.4209-.12818.6409s.04356.4379.12818.641c.08461.2031.2086.3874.36481.5423.15494.1563.33928.2803.54238.3649s.42094.1281.64096.1281c.22 0 .4379-.0435.641-.1281s.3874-.2086.5423-.3649z" fill="url(#a)"/></svg>