<svg width="10" height="18" viewBox="0 0 10 18" fill="none" xmlns="http://www.w3.org/2000/svg">
<path d="M0.3824 0.874196C0.137549 1.11387 0 1.43889 0 1.77778C0 2.11667 0.137549 2.44169 0.3824 2.68136L6.84743 9.00772L0.3824 15.3341C0.144488 15.5751 0.0128441 15.898 0.0158205 16.2331C0.018796 16.5682 0.156154 16.8887 0.398309 17.1257C0.640465 17.3626 0.968042 17.497 1.31049 17.5C1.65294 17.5029 1.98285 17.374 2.22918 17.1412L9.6176 9.9113C9.86245 9.67163 10 9.34661 10 9.00772C10 8.66882 9.86245 8.3438 9.6176 8.10413L2.22918 0.874196C1.98425 0.634599 1.65211 0.5 1.30579 0.5C0.959466 0.5 0.627323 0.634599 0.3824 0.874196Z" fill="url(#paint0_linear_605_49)"/>
<defs>
<linearGradient id="paint0_linear_605_49" x1="0" y1="9" x2="10" y2="9" gradientUnits="userSpaceOnUse">
<stop stop-color="#094A6F"/>
<stop offset="1" stop-color="#64C8BD"/>
</linearGradient>
</defs>
</svg>
