<svg width="10" height="17" viewBox="0 0 10 17" fill="none" xmlns="http://www.w3.org/2000/svg">
<path d="M0.3824 0.374196C0.137549 0.613866 0 0.938885 0 1.27778C0 1.61667 0.137549 1.94169 0.3824 2.18136L6.84743 8.50772L0.3824 14.8341C0.144488 15.0751 0.0128441 15.398 0.0158205 15.7331C0.018796 16.0682 0.156154 16.3887 0.398309 16.6257C0.640465 16.8626 0.968042 16.997 1.31049 17C1.65294 17.0029 1.98285 16.874 2.22918 16.6412L9.6176 9.4113C9.86245 9.17163 10 8.84661 10 8.50772C10 8.16882 9.86245 7.8438 9.6176 7.60413L2.22918 0.374196C1.98425 0.134599 1.65211 0 1.30579 0C0.959466 0 0.627323 0.134599 0.3824 0.374196Z" fill="url(#paint0_linear_5230_843)"/>
<defs>
<linearGradient id="paint0_linear_5230_843" x1="0" y1="8.5" x2="10" y2="8.5" gradientUnits="userSpaceOnUse">
<stop stop-color="#094A6F"/>
<stop offset="1" stop-color="#64C8BD"/>
</linearGradient>
</defs>
</svg>
