<svg width="353" height="353" viewBox="0 0 353 353" fill="none" xmlns="http://www.w3.org/2000/svg">
<path d="M49.2949 6.48062C36.2643 9.44528 24.5436 16.8224 16.9596 26.8885C12.616 32.542 10.6166 36.4029 8.13457 43.5732C5.99727 49.6404 5.92832 50.4677 5.85938 60.3269C5.85938 69.2898 6.06621 71.3582 7.44512 75.8396C14.0639 96.6611 29.5766 110.657 50.8807 114.863C64.1182 117.414 79.0104 114.449 90.6621 106.796L95.6262 103.556L108.795 116.793L121.963 129.962L118.861 134.098C112.242 142.854 106.933 155.816 105.416 167.261C104.727 172.432 104.865 182.429 105.623 188.496C105.83 189.599 103.003 190.565 82.0439 196.218C68.9443 199.734 58.1199 202.63 57.9131 202.63C57.7062 202.63 56.3963 200.975 55.0174 198.976C52.1217 194.839 47.8471 191.737 42.1246 189.53C36.4711 187.393 27.4393 187.876 21.7168 190.634C16.477 193.116 11.1682 198.424 8.54824 203.733C6.75566 207.525 6.54883 208.49 6.54883 215.109C6.54883 221.521 6.75566 222.762 8.41035 226.347C12.0645 234.069 17.649 238.964 25.7846 241.446C42.1246 246.41 58.8783 234.759 60.4641 217.315L60.8088 213.385L83.6986 207.249C96.2467 203.871 107.002 200.975 107.692 200.769C108.519 200.562 109.484 201.941 111.553 206.353C115.069 213.937 119.137 219.797 124.721 225.727C128.927 230.07 136.924 236.689 138.786 237.378C139.337 237.585 137.476 241.998 133.753 249.513C129.34 258.476 127.686 261.234 126.858 260.889C124.652 260.061 118.93 259.234 115.207 259.234C101.831 259.303 87.4217 268.128 81.5613 279.918C73.7016 295.637 76.3904 313.011 88.5248 325.146C110.312 346.933 147.059 335.763 153.471 305.427C156.367 291.707 151.265 277.505 140.096 268.059L137.821 266.198L143.474 254.96C146.577 248.754 149.197 243.584 149.335 243.446C149.541 243.239 151.748 243.79 154.299 244.618C175.947 251.581 199.803 247.789 218.211 234.552L223.037 231.104L236.206 244.204L249.443 257.373L246.134 262.406C231.793 284.33 235.171 313.356 254.2 331.696C261.646 338.866 268.955 343.003 279.228 345.829C286.053 347.691 299.36 347.553 306.323 345.554C316.734 342.589 323.559 338.59 331.143 331.144C349.552 313.011 352.654 284.054 338.521 262.475C326.386 243.79 303.91 234.069 282.537 238.137C275.367 239.516 267.162 242.825 261.922 246.479L257.51 249.582L244.272 236.344L231.035 223.107L232.62 220.969C240.894 210.076 246.41 196.563 247.857 183.187L248.271 179.258H251.167C252.753 179.258 265.37 178.775 279.228 178.223C293.017 177.672 304.324 177.327 304.393 177.396C304.806 179.464 308.529 184.911 311.08 187.186C319.147 194.426 331.626 194.288 340.106 186.91C341.485 185.669 343.622 182.636 344.795 180.223C349 171.674 347.414 162.228 340.727 155.609C329.144 144.233 310.598 148.232 304.737 163.4C304.255 164.71 303.772 165.882 303.703 166.02C303.496 166.227 255.855 168.157 250.546 168.226H247.651L247.168 164.986C245.651 154.92 240.136 142.027 233.793 133.616C230.552 129.41 223.658 122.447 218.418 118.241L215.867 116.173L221.107 106.727C226.209 97.5574 226.346 97.3505 228.07 97.971C229.035 98.3847 232.207 98.8673 235.034 99.0742C253.787 100.522 270.265 84.9404 270.265 65.8425C270.196 50.6746 259.027 36.9545 244.065 33.714C239.17 32.6798 230.828 33.2314 226.002 35.024C210.351 40.6086 200.975 58.1207 205.111 73.9781C206.559 79.7005 209.248 84.5267 213.178 88.6634L216.556 92.2486L211.661 101.074C208.972 105.969 206.559 110.174 206.283 110.45C206.008 110.657 202.698 109.83 198.906 108.589C176.844 101.211 152.368 105.141 133.96 118.93L129.961 121.964L116.792 108.795L103.555 95.6269L106.726 90.7318C117.413 74.2538 118.654 53.8461 110.036 36.334C103.21 22.338 91.4894 12.4099 76.1836 7.58377C70.0475 5.65329 55.6379 5.03278 49.2949 6.48062ZM71.2885 17.9256C90.8 22.8896 104.727 40.6086 104.796 60.5338C104.796 69.1519 101.487 79.3558 96.2467 86.5261L93.7646 89.9734V87.2156C93.7646 83.1478 91.9721 76.9427 89.559 72.3234C87.5596 68.5314 81.3545 61.9127 78.252 60.1201C77.0799 59.4996 77.0109 59.1548 77.7004 58.1207C82.3887 51.364 83.7676 44.5385 81.7682 37.7129C80.1824 32.3351 75.8389 27.0953 70.668 24.4754C67.0828 22.6828 65.9107 22.407 60.7398 22.407C53.7764 22.407 49.7086 23.9927 45.1582 28.5431C40.7457 32.9556 39.0221 37.2303 39.0221 43.7801C38.9531 48.4683 39.2289 49.8472 40.8146 53.0877C41.8488 55.156 43.0898 57.4312 43.5725 58.1207C44.3309 59.1548 44.2619 59.4996 43.0898 60.1201C39.9873 61.9127 33.7822 68.5314 31.7828 72.3234C29.3697 76.9427 27.5771 83.1478 27.5771 87.2156V89.9734L25.0951 86.5261C21.6479 81.7689 18.7521 75.357 17.5801 69.5656C10.9613 38.0576 40.1252 9.92789 71.2885 17.9256ZM65.0145 34.0587C72.1158 37.0234 73.8395 46.2621 68.3238 51.7777C60.602 59.5685 47.916 52.605 49.9154 41.7117C51.1564 35.2308 58.7404 31.3699 65.0145 34.0587ZM246.479 46.2621C250.822 48.3304 254.959 52.4672 257.165 56.8797C259.578 61.7748 259.578 70.4619 257.165 75.4949C255.028 79.9074 250.891 84.0441 246.479 86.1814C241.445 88.5945 232.758 88.5945 227.863 86.1814C223.451 84.0441 219.314 79.9074 217.177 75.4949C214.764 70.5998 214.764 61.9127 217.177 56.8797C220.072 50.9503 225.657 46.4 232 44.7453C235.723 43.7801 242.755 44.5385 246.479 46.2621ZM67.4275 67.2904C72.5295 68.9451 77.0799 72.7371 79.7687 77.5632C81.0098 79.8384 82.0439 81.9068 82.0439 82.1826C82.0439 82.5273 72.4605 82.7341 60.6709 82.7341C48.8812 82.7341 39.2979 82.5963 39.2979 82.3894C39.2979 82.2515 39.6426 81.2173 40.1252 80.1832C44.8135 69.2209 56.4652 63.7742 67.4275 67.2904ZM86.5254 96.2474C75.1494 104.521 60.8088 106.727 47.1576 102.452C42.0557 100.798 33.9201 96.3164 32.817 94.5238C32.4723 93.9722 40.332 93.7654 61.1535 93.7654H89.9727L86.5254 96.2474ZM186.841 116.793C199.527 119.068 210.006 124.584 219.245 133.754C239.722 154.299 242.962 185.325 227.105 209.731C219.038 222.279 206.077 231.38 190.564 235.517C183.462 237.378 169.053 237.31 161.676 235.31C139.613 229.312 123.687 213.385 117.689 191.323C115.551 183.463 115.551 169.536 117.689 161.677C124.307 137.201 143.612 120.102 168.915 116.311C172.914 115.69 182.015 115.966 186.841 116.793ZM329.764 160.918C336.935 163.883 338.589 172.984 333.005 178.568C328.454 183.118 322.249 183.187 317.768 178.637C309.219 170.157 318.664 156.23 329.764 160.918ZM38.1947 199.39C41.9867 200.493 47.7092 206.215 48.8123 210.007C50.7428 216.488 49.3639 221.659 44.4688 226.485C37.5053 233.518 28.6803 233.518 21.7168 226.485C14.6844 219.522 14.6844 210.697 21.7168 203.733C26.543 198.838 31.7139 197.528 38.1947 199.39ZM302.945 249.582C311.011 251.65 317.354 255.304 323.421 261.302C338.796 276.608 340.658 300.601 327.903 318.182L325.421 321.63V318.872C325.421 314.804 323.628 308.599 321.215 303.98C319.216 300.188 313.011 293.569 309.908 291.776C308.736 291.156 308.667 290.811 309.357 289.777C314.045 283.02 315.424 276.195 313.424 269.369C311.839 263.991 307.495 258.752 302.324 256.132C298.739 254.339 297.567 254.063 292.396 254.063C285.295 254.063 281.503 255.511 277.021 260.061C272.471 264.612 270.678 268.818 270.678 275.436C270.609 280.125 270.885 281.503 272.471 284.744C273.505 286.812 274.746 289.087 275.229 289.777C275.987 290.811 275.918 291.156 274.746 291.776C271.644 293.569 265.438 300.188 263.439 303.98C261.026 308.599 259.233 314.804 259.233 318.872V321.63L256.751 318.182C251.512 310.874 248.961 303.704 248.409 294.741C246.685 265.301 274.47 242.274 302.945 249.582ZM296.671 265.715C303.772 268.68 305.496 277.918 299.98 283.434C295.499 287.915 289.156 287.915 284.674 283.434C276.125 274.954 285.57 261.027 296.671 265.715ZM127.134 272.885C133.408 275.781 137.407 279.78 140.51 285.985C142.923 290.949 143.061 291.569 143.061 297.844C143.061 304.118 142.923 304.738 140.51 309.702C137.407 315.976 133.408 319.837 126.996 322.871C122.791 324.87 121.756 325.077 115.827 325.077C109.898 325.077 108.864 324.87 104.658 322.871C98.2461 319.837 94.2473 315.976 91.1447 309.702C88.7316 304.738 88.5938 304.118 88.5938 297.912C88.5938 291.914 88.8006 290.88 90.8 286.674C93.5578 280.814 97.4877 276.539 102.659 273.851C108.036 270.955 111.07 270.265 117.344 270.541C121.55 270.748 123.687 271.3 127.134 272.885ZM299.084 298.947C304.186 300.601 308.736 304.393 311.425 309.219C312.666 311.495 313.7 313.563 313.7 313.839C313.7 314.184 304.117 314.39 292.327 314.39C280.606 314.39 270.954 314.252 270.954 314.046C270.954 313.908 271.299 312.874 271.781 311.839C276.47 300.877 288.121 295.43 299.084 298.947ZM318.182 327.904C311.011 333.075 300.807 336.453 292.258 336.453C283.778 336.453 271.644 332.316 266.128 327.559L263.715 325.491L292.672 325.422H321.629L318.182 327.904Z" fill="url(#paint0_linear_167_294)"/>
<path d="M167.674 128.169C162.848 129.962 160.159 131.686 156.781 135.271C153.127 139.132 151.403 142.096 149.955 147.198C146.922 157.678 151.403 170.364 160.366 176.569L163.4 178.637L158.642 181.05C147.266 186.704 139.2 198.907 138.097 212.007C137.752 216.764 137.821 217.109 139.476 218.832L141.268 220.625H176.499H211.73L213.523 218.832C215.178 217.109 215.246 216.764 214.902 212.007C214.419 206.56 212.282 199.872 209.386 194.908C206.421 189.944 199.803 183.739 194.425 181.05L189.599 178.637L192.632 176.569C203.802 168.847 207.318 152.369 200.285 140.304C197.803 136.098 192.288 131.203 187.668 129.066C182.291 126.584 173.052 126.17 167.674 128.169ZM181.601 138.718C187.53 140.511 193.046 148.095 193.046 154.438C193.046 162.987 185.048 170.984 176.499 170.984C167.95 170.984 159.952 162.987 159.952 154.438C159.952 150.094 161.538 146.578 165.123 143.062C169.949 138.166 175.12 136.856 181.601 138.718ZM187.806 190.151C193.873 192.978 198.01 197.046 200.975 202.906C202.285 205.526 203.388 208.146 203.388 208.629C203.388 209.456 198.769 209.594 176.499 209.594C154.23 209.594 149.611 209.456 149.611 208.629C149.611 206.422 154.644 197.873 157.47 195.253C160.78 192.151 166.088 189.255 170.087 188.221C174.982 186.98 182.911 187.876 187.806 190.151Z" fill="url(#paint1_linear_167_294)"/>
<defs>
<linearGradient id="paint0_linear_167_294" x1="176.605" y1="5.68439" x2="176.605" y2="347.144" gradientUnits="userSpaceOnUse">
<stop stop-color="#094A6F"/>
<stop offset="1" stop-color="#64C8BD"/>
</linearGradient>
<linearGradient id="paint1_linear_167_294" x1="176.499" y1="126.901" x2="176.499" y2="220.625" gradientUnits="userSpaceOnUse">
<stop stop-color="#094A6F"/>
<stop offset="1" stop-color="#64C8BD"/>
</linearGradient>
</defs>
</svg>
