<svg width="1044" height="721" viewBox="0 0 1044 721" fill="none" xmlns="http://www.w3.org/2000/svg">
<path fill-rule="evenodd" clip-rule="evenodd" d="M495 0H0V721H495V0ZM137.463 211.54H43.42V334H137.463V303.699H74.82V287.999H126.316V259.582H74.82V241.998H137.463V211.54ZM295.999 315.474C299.976 311.183 303.325 306.42 306.047 301.187L277.316 288.627C274.594 293.86 270.669 298.099 265.541 301.344C260.412 304.484 254.551 306.054 247.957 306.054C243.351 306.054 239.008 305.217 234.926 303.542C230.948 301.763 227.442 299.408 224.407 296.477C221.371 293.442 218.964 289.883 217.185 285.801C215.51 281.719 214.673 277.375 214.673 272.77C214.673 268.165 215.51 263.821 217.185 259.739C218.964 255.657 221.371 252.151 224.407 249.22C227.442 246.185 230.948 243.83 234.926 242.155C239.008 240.376 243.351 239.486 247.957 239.486C254.446 239.486 260.255 241.108 265.384 244.353C270.617 247.493 274.594 251.68 277.316 256.913L305.89 244.039C303.168 238.91 299.819 234.2 295.842 229.909C291.864 225.618 287.364 221.954 282.34 218.919C277.316 215.884 271.873 213.529 266.012 211.854C260.255 210.075 254.237 209.185 247.957 209.185C239.165 209.185 230.791 210.86 222.837 214.209C214.987 217.558 208.079 222.111 202.113 227.868C196.251 233.625 191.594 240.376 188.14 248.121C184.686 255.762 182.959 263.978 182.959 272.77C182.959 281.562 184.686 289.831 188.14 297.576C191.594 305.217 196.251 311.915 202.113 317.672C208.079 323.429 214.987 327.982 222.837 331.331C230.791 334.68 239.165 336.355 247.957 336.355C254.237 336.355 260.307 335.518 266.169 333.843C272.03 332.064 277.473 329.656 282.497 326.621C287.521 323.481 292.021 319.765 295.999 315.474ZM352.499 248.121C349.045 255.762 347.318 263.978 347.318 272.77C347.318 281.562 349.045 289.831 352.499 297.576C355.953 305.217 360.611 311.915 366.472 317.672C372.438 323.429 379.346 327.982 387.196 331.331C395.151 334.68 403.524 336.355 412.316 336.355C421.213 336.355 429.586 334.68 437.436 331.331C445.391 327.982 452.299 323.429 458.16 317.672C464.126 311.915 468.784 305.217 472.133 297.576C475.587 289.831 477.314 281.562 477.314 272.77C477.314 263.978 475.587 255.762 472.133 248.121C468.784 240.376 464.126 233.625 458.16 227.868C452.299 222.111 445.391 217.558 437.436 214.209C429.586 210.86 421.213 209.185 412.316 209.185C403.524 209.185 395.151 210.86 387.196 214.209C379.346 217.558 372.438 222.111 366.472 227.868C360.611 233.625 355.953 240.376 352.499 248.121ZM381.544 285.801C379.869 281.719 379.032 277.375 379.032 272.77C379.032 268.165 379.869 263.821 381.544 259.739C383.323 255.657 385.731 252.151 388.766 249.22C391.801 246.185 395.308 243.83 399.285 242.155C403.367 240.376 407.711 239.486 412.316 239.486C417.026 239.486 421.37 240.376 425.347 242.155C429.429 243.83 432.935 246.185 435.866 249.22C438.901 252.151 441.256 255.657 442.931 259.739C444.71 263.821 445.6 268.165 445.6 272.77C445.6 277.375 444.71 281.719 442.931 285.801C441.256 289.883 438.901 293.442 435.866 296.477C432.935 299.408 429.429 301.763 425.347 303.542C421.37 305.217 417.026 306.054 412.316 306.054C407.711 306.054 403.367 305.217 399.285 303.542C395.308 301.763 391.801 299.408 388.766 296.477C385.731 293.442 383.323 289.883 381.544 285.801ZM626.545 211.54H518.843V241.998H556.994V334H588.394V241.998H626.545V211.54ZM674.026 334H705.426V211.54H674.026V334ZM791.903 211.54H760.346V334H791.589V276.381L817.023 329.29H837.59L863.024 276.381V334H894.267V211.54H862.71L827.228 288.941L791.903 211.54ZM1043.28 211.54H949.236V334H1043.28V303.699H980.636V287.999H1032.13V259.582H980.636V241.998H1043.28V211.54ZM100.254 444.54H43.42V567H100.254C109.779 567 118.152 565.378 125.374 562.133C132.701 558.888 138.771 554.492 143.586 548.945C148.401 543.398 152.012 536.908 154.419 529.477C156.931 522.046 158.187 514.143 158.187 505.77C158.187 497.501 156.931 489.651 154.419 482.22C152.012 474.789 148.401 468.299 143.586 462.752C138.771 457.1 132.701 452.652 125.374 449.407C118.152 446.162 109.779 444.54 100.254 444.54ZM74.82 536.699V474.998H97.899C107.319 474.998 114.436 477.824 119.251 483.476C124.066 489.128 126.473 496.559 126.473 505.77C126.473 510.375 125.845 514.562 124.589 518.33C123.438 522.098 121.658 525.343 119.251 528.064C116.844 530.785 113.861 532.931 110.302 534.501C106.743 535.966 102.609 536.699 97.899 536.699H74.82ZM321.153 567L271.698 444.54H240.612L191 567H225.226L231.977 549.102H280.176L286.927 567H321.153ZM242.653 520.685L256.155 484.732L269.5 520.685H242.653ZM420.662 444.54L393.501 488.971L366.497 444.54H329.602L377.958 522.098V567H409.201V522.098L457.714 444.54H420.662Z" fill="white"/>
</svg>
