<svg fill="none" height="40" viewBox="0 0 40 40" width="40" xmlns="http://www.w3.org/2000/svg" xmlns:xlink="http://www.w3.org/1999/xlink"><linearGradient id="a" gradientUnits="userSpaceOnUse" x1="19.9991" x2="19.9991" y1="-.001717" y2="39.959"><stop offset="0" stop-color="#094a6f"/><stop offset="1" stop-color="#64c8bd"/></linearGradient><clipPath id="b"><path d="m0 0h40v40h-40z"/></clipPath><g clip-path="url(#b)"><path d="m7.30477.109375c-.28907.132813-.625.484375-.73438.773437-.04687.124998-.08594.687498-.08594 1.257808v1.03126l-.4375.14062c-.32031.10156-.54687.24219-.82031.51562-.5625.5625-.64062.89844-.60156 2.75782.02344 1.35156.03906 1.53125.19531 1.82031.20313.38281.67188.85156.97656.97656l.21875.08594v1.20315 1.2031l-.38281.5391c-1.60156 2.2421-2.71094 5.1484-3.05469 7.9765-.14062 1.1719-.10937 3.3906.07032 4.5703.57812 3.8985 2.25781 7.211 5.0625 9.9766 2.67188 2.6484 5.88278 4.25 9.74998 4.875 1.1953.1953 3.8672.1953 5.1172 0 1.8516-.2891 3.4219-.7813 5.1172-1.6094 1.7578-.8593 3.1875-1.8672 4.5937-3.2656 3.4219-3.3828 5.211-7.6406 5.2188-12.4375 0-2.0156-.2344-3.6172-.7969-5.3672-2.3984-7.49218-9.4765-12.46874-17.3359-12.18749-2.3985.08594-4.4531.57813-6.9219 1.66407-.0703.03124-.1016-.24219-.125-.96094-.0234-.83594-.0547-1.05469-.1953-1.3125-.2891-.54688-.8359-.96875-1.4063-1.09375l-.2578-.05469v-1.42969c0-1.88281.1172-1.75781-1.63278-1.75781-.90625.0078125-1.36719.0390625-1.53125.109375zm1.99218 2.125005v1.0625l-.22656.22656c-.39844.39062-1.07031.28125-1.32812-.21875-.09375-.17969-.125-1.99219-.03125-2.07813.02343-.03125.39843-.05468.82031-.05468h.76562zm-1.86718 2.39062c.54687.34375 1.25781.39844 1.85156.14062.21875-.09374.44531-.21874.49219-.28124.11718-.14844.64848-.14063.92968.00781.4141.21875.4688.42969.4688 1.96093v1.375l-.25.25c-.1719.17188-.3672.27344-.586.30469-.56248.09375-.5703.13281-.5703 2.30469 0 2.1484-.03906 2.3281-.52343 2.5547-.20313.1016-.42969.125-.89063.1016-.57031-.0235-.63281-.0391-.86719-.2813l-.25781-.25-.02344-2.0547c-.03125-2.29686-.02343-2.28124-.58593-2.37499-.17969-.02343-.42188-.14062-.55469-.26562l-.24219-.21094-.02344-1.38281c-.03125-1.54688.01563-1.76563.40625-2 .36719-.21875.75-.1875 1.22657.10156zm13.88283 1.53125c.0781.05469-.0703.5625-.6328 2.21094-.9297 2.71871-1.1797 3.32811-1.5703 3.91401-.5704.8516-1.0625 1.0704-2.8594 1.3047-.7969.1016-1.0469.25-1.0781.6563-.0157.2031.0234.3281.1484.4531.1406.1406.2187.1563.5703.1094.2188-.0313.75-.1016 1.1797-.1563 1.2422-.1718 1.875-.4531 2.5391-1.1328.7187-.7265 1.1328-1.664 2.5078-5.72654.4453-1.3125.5078-1.46094.6718-1.46094.0938 0 .6563.125 1.25.27344 2.7579.71094 5.211 2.07032 7.2344 4.02344 1.3985 1.3438 2.3672 2.6094 3.1797 4.1562l.3906.7422-.4843.1797c-.6485.2344-2.1563.9844-2.8204 1.3985l-.5312.3359-.3203-.3672c-.336-.375-.8125-.6562-1.1328-.6641-.1797 0-.1797 0-.1797-1.3984 0-.7734-.0235-1.4609-.0469-1.5312-.1094-.2735-.4531-.3516-1.5703-.3516-1.2734 0-1.6016.0781-1.9844.4609-.375.375-.4609.711-.4609 1.8594 0 .8906-.0078.9609-.1485.9609-.4843 0-1.1953.5469-1.4609 1.1329-.1797.3671-.1875.4765-.1875 1.9921 0 1.5157.0078 1.625.1875 2l.1797.3907-.5859.1797c-.336.1093-.8204.3437-1.1563.5703-2.3594 1.5781-2.7266 4.7031-.8125 6.8828.3672.4219 1.2266.9687 1.875 1.2031.5781.211.6016.211 3.0234.2422l2.4375.0312.2032-.2031c.2422-.2422.25-.5625.0234-.8047-.1641-.1796-.1719-.1796-2.3672-.1796-2.3906 0-2.7578-.0469-3.4922-.4454-.8672-.4687-1.5312-1.414-1.7187-2.4296-.1641-.8829.1172-1.9141.7422-2.6954.5156-.6406 1.7187-1.2265 2.5156-1.2265h.3437l.0235 1.5781c.0234 1.7422.0703 1.9219.5781 2.4375.4297.4297.9141.5937 1.7969.5937 1.2422 0 1.8437-.2968 2.25-1.1093.2031-.3985.2031-.4297.2031-2.1407v-1.7265l.4453-.2656c.8125-.4844 1.0391-1.086 1.0391-2.7657v-.9531l.5703-.375c.7109-.4765 2.1016-1.2031 2.8516-1.4922.6718-.2578.6328-.2812.914.6328.461 1.5079.6406 2.4922.7344 3.9922.1719 2.75-.4141 5.7969-1.5313 8.0157l-.1796.375h-1.8438-1.8359l-.1875.1953c-.2344.2265-.25.5-.0469.75.1484.1875.1797.1875 1.6797.2109.8437.0156 1.5312.0391 1.5312.0625 0 .1016-.8437 1.2734-1.3593 1.8828-2.125 2.5469-5 4.4063-8.1719 5.2813-1.25.3437-1.1094.4218-1.6328-.8594-.5157-1.2422-.711-1.5625-1-1.6406-.2657-.0625-.586.1172-.6797.3828-.0625.1718-.0156.3359.2812.9765.4532.961.6641 1.5625.5782 1.6407-.0313.0312-.8594.0625-1.8282.0625-1.4843-.0079-1.9297-.0313-2.7578-.1797-4.5156-.8047-8.33592-3.2422-10.85155-6.9375-.25781-.375-.46875-.711-.46875-.75 0-.0391 1.24219-.0547 2.75782-.0469l2.74998.0234.0391 1.7969.039 1.7969.2188.375c.2422.4062.7422.7812 1.2266.914.4218.1172 1.4843.0938 1.9453-.0468.5156-.1485 1.1015-.7032 1.2656-1.1875l.1094-.336.3359.25c.5.3672 1.0547.5469 1.9688.6329.4531.0468.8984.0859 1 .0781.2578 0 .4843-.2344.4843-.5 0-.5235-.2265-.6485-1.4062-.75-.8828-.086-1.2031-.2266-1.8672-.8438l-.4766-.4375v-.914-.9063l.3907-.2109c.4375-.2422.8203-.7188.9453-1.1797.0468-.1875.0703-.9297.0547-1.8828-.0235-1.4375-.0391-1.5938-.1954-1.8907-.25-.4609-.7343-.8671-1.2109-1.0078l-.4141-.1172.0235-1.2968c.0312-1.4141-.0235-1.6719-.3438-1.8203-.3125-.1407-2.4687-.1172-2.8203.0312-.7265.3047-.8828.6641-.8828 2.0235v1.0546l-.3047.086c-.5078.1328-1.0234.539-1.289 1.0156l-.2422.4297v1.5234c0 .836.0312 1.6563.0625 1.8125l.0625.2969h-2.46878-2.46875l-.27344-.6016c-.38281-.8359-.84375-2.2656-1.03906-3.1875-.25-1.2578-.33594-2.1015-.33594-3.5156.00781-1.25.04687-1.7109.25781-2.914l.08594-.4844h2.4375c1.33594 0 2.72656-.0391 3.07812-.0782 1.2969-.164 2.0156-.5859 3.4844-2.0312.875-.8594 1.0078-1.0234 1.0078-1.2422 0-.3203-.25-.5781-.5625-.5781-.1953 0-.4141.1641-1.2891 1.0156-1.1875 1.1563-1.8047 1.5391-2.7031 1.6641-.55468.0859-5.02343.1094-5.10156.0312-.125-.1328.88281-2.4922 1.5625-3.6484l.35938-.6172.28125.3125c.15625.1641.4375.3906.63281.4922.3125.1641.45312.1875 1.28906.1875.76563 0 .98438-.0234 1.21094-.1484.50002-.2657.74222-.4922.97652-.9141l.2344-.4219.0235-1.7656.0312-1.77345.1953-.08594c.3985-.1875.711-.49219.961-.95312.2421-.46094.2812-.49219.8906-.77344 1.5156-.70313 3.2578-1.21875 4.6953-1.39844.3906-.04687.7891-.10156.8984-.11719.4063-.05468 2.625-.03906 2.7188.01563zm6.8906 9.13285c0 .8515-.0234 1.039-.1562 1.25-.211.3515-.6563.4843-1.0391.2968-.4219-.1953-.5234-.4921-.5234-1.5156 0-.7344.0234-.8672.1406-.9375.0703-.0469.4609-.0859.8594-.0859h.7187zm-1.875 2.5c.7344.4297 1.5859.3984 2.2109-.0782.1954-.1484.3204-.1797.6016-.1562.8047.0625.9609.4219.9219 2.1875l-.0235 1.2656-.2343.2422c-.1407.1484-.336.2578-.5313.2891-.164.0234-.375.1093-.4687.1797-.1641.1406-.1719.2031-.211 2.2031-.0234 1.125-.0703 2.1172-.1093 2.1953-.125.2578-.4766.3672-1.1719.3672-.625 0-.6875-.0156-.9219-.2266l-.2578-.2266-.0391-2.0703c-.039-1.8906-.0547-2.0859-.1875-2.2343-.0859-.0938-.2422-.1641-.3515-.1641-.25 0-.6719-.25-.7891-.4687-.0547-.1094-.0781-.6485-.0625-1.6329.0234-1.6328.0547-1.7343.5625-1.875.3828-.1015.6016-.0547 1.0625.2032zm-11.4844 5.6093c0 1.2969-.2109 1.6797-.8984 1.6797-.3281 0-.5859-.1562-.7344-.4453-.0937-.1797-.125-1.9922-.0312-2.0781.0234-.0313.414-.0547.8593-.0547h.8047zm-1.9453 2.5547c.3828.2422.4531.2578 1.0938.2578.6406 0 .7031-.0156 1.039-.2578.2578-.1719.4532-.25.6563-.25.3594 0 .7734.2422.875.5157.0469.1093.0781.8046.0781 1.539 0 1.1953-.0156 1.3672-.1562 1.5938-.086.1484-.2422.2734-.3672.3046-.5.1094-.7344.211-.8047.3438-.0469.0859-.0781.9453-.0781 2.0703 0 2.125-.0313 2.2735-.4844 2.5078-.1797.0938-.4063.1172-.8985.0938-.6328-.0235-.6718-.0313-.8906-.2813l-.2265-.25v-1.9375c0-2.3359.0078-2.2969-.7735-2.5312-.625-.1875-.6719-.3203-.6719-1.9297 0-1.5391.0391-1.711.461-1.9141.375-.1875.6953-.1484 1.1484.125z" fill="url(#a)"/></g></svg>