<svg width="40" height="40" viewBox="0 0 40 40" fill="none" xmlns="http://www.w3.org/2000/svg">
<path d="M21.713 3.3335C23.588 3.3385 24.5397 3.3485 25.3613 3.37183L25.6847 3.3835C26.058 3.39683 26.4263 3.4135 26.8713 3.4335C28.6447 3.51683 29.8547 3.79683 30.9163 4.2085C32.0163 4.63183 32.943 5.20516 33.8697 6.13016C34.7172 6.96332 35.3729 7.97114 35.7913 9.0835C36.203 10.1452 36.483 11.3552 36.5663 13.1302C36.5863 13.5735 36.603 13.9418 36.6163 14.3168L36.6263 14.6402C36.6513 15.4602 36.6613 16.4118 36.6647 18.2868L36.6663 19.5302V21.7135C36.6704 22.9292 36.6576 24.1448 36.628 25.3602L36.618 25.6835C36.6047 26.0585 36.588 26.4268 36.568 26.8702C36.4847 28.6452 36.2013 29.8535 35.7913 30.9168C35.3741 32.0298 34.7182 33.0379 33.8697 33.8702C33.0363 34.7174 32.0285 35.3731 30.9163 35.7918C29.8547 36.2035 28.6447 36.4835 26.8713 36.5668C26.4759 36.5854 26.0803 36.6021 25.6847 36.6168L25.3613 36.6268C24.5397 36.6502 23.588 36.6618 21.713 36.6652L20.4697 36.6668H18.288C17.0718 36.671 15.8555 36.6582 14.6397 36.6285L14.3163 36.6185C13.9207 36.6035 13.5251 36.5863 13.1297 36.5668C11.3563 36.4835 10.1463 36.2035 9.08299 35.7918C7.97077 35.3741 6.96335 34.7182 6.13133 33.8702C5.28307 33.0373 4.6267 32.0294 4.20799 30.9168C3.79633 29.8552 3.51633 28.6452 3.43299 26.8702C3.41442 26.4747 3.39776 26.0791 3.38299 25.6835L3.37466 25.3602C3.34395 24.1449 3.33006 22.9292 3.33299 21.7135V18.2868C3.32834 17.0712 3.34056 15.8555 3.36966 14.6402L3.38133 14.3168C3.39466 13.9418 3.41133 13.5735 3.43133 13.1302C3.51466 11.3552 3.79466 10.1468 4.20633 9.0835C4.62485 7.97 5.28253 6.96187 6.13299 6.13016C6.96481 5.28262 7.97157 4.62681 9.08299 4.2085C10.1463 3.79683 11.3547 3.51683 13.1297 3.4335C13.573 3.4135 13.943 3.39683 14.3163 3.3835L14.6397 3.3735C15.855 3.34388 17.0707 3.3311 18.2863 3.33516L21.713 3.3335ZM19.9997 11.6668C17.7895 11.6668 15.6699 12.5448 14.1071 14.1076C12.5443 15.6704 11.6663 17.79 11.6663 20.0002C11.6663 22.2103 12.5443 24.3299 14.1071 25.8927C15.6699 27.4555 17.7895 28.3335 19.9997 28.3335C22.2098 28.3335 24.3294 27.4555 25.8922 25.8927C27.455 24.3299 28.333 22.2103 28.333 20.0002C28.333 17.79 27.455 15.6704 25.8922 14.1076C24.3294 12.5448 22.2098 11.6668 19.9997 11.6668ZM19.9997 15.0002C20.6563 15.0001 21.3065 15.1293 21.9131 15.3804C22.5198 15.6316 23.0711 15.9998 23.5354 16.464C23.9998 16.9283 24.3682 17.4794 24.6196 18.086C24.8709 18.6926 25.0004 19.3427 25.0005 19.9993C25.0006 20.6559 24.8714 21.3061 24.6202 21.9128C24.369 22.5195 24.0008 23.0707 23.5366 23.5351C23.0724 23.9995 22.5213 24.3679 21.9147 24.6192C21.3081 24.8706 20.6579 25.0001 20.0013 25.0002C18.6752 25.0002 17.4035 24.4734 16.4658 23.5357C15.5281 22.598 15.0013 21.3262 15.0013 20.0002C15.0013 18.6741 15.5281 17.4023 16.4658 16.4646C17.4035 15.5269 18.6752 15.0002 20.0013 15.0002M28.7513 9.16683C28.1988 9.16683 27.6689 9.38632 27.2782 9.77702C26.8875 10.1677 26.668 10.6976 26.668 11.2502C26.668 11.8027 26.8875 12.3326 27.2782 12.7233C27.6689 13.114 28.1988 13.3335 28.7513 13.3335C29.3039 13.3335 29.8338 13.114 30.2245 12.7233C30.6152 12.3326 30.8347 11.8027 30.8347 11.2502C30.8347 10.6976 30.6152 10.1677 30.2245 9.77702C29.8338 9.38632 29.3039 9.16683 28.7513 9.16683Z" fill="url(#paint0_linear_268_203)"/>
<defs>
<linearGradient id="paint0_linear_268_203" x1="19.9996" y1="36.6676" x2="19.9996" y2="3.3335" gradientUnits="userSpaceOnUse">
<stop stop-color="#094A6F"/>
<stop offset="1" stop-color="#64C8BD"/>
</linearGradient>
</defs>
</svg>
