<svg width="67" height="67" viewBox="0 0 67 67" fill="none" xmlns="http://www.w3.org/2000/svg">
<path d="M26.5205 43.5052V23.4946C26.5209 23.2442 26.5887 22.9986 26.7167 22.7834C26.8446 22.5682 27.0281 22.3914 27.2479 22.2715C27.4677 22.1516 27.7157 22.0931 27.9659 22.102C28.2162 22.1109 28.4594 22.1869 28.6701 22.3221L44.2364 32.3246C44.4335 32.4509 44.5957 32.6247 44.708 32.8301C44.8204 33.0355 44.8792 33.2658 44.8792 33.4999C44.8792 33.734 44.8204 33.9643 44.708 34.1697C44.5957 34.3751 44.4335 34.5489 44.2364 34.6752L28.6701 44.6805C28.4594 44.8157 28.2162 44.8918 27.9659 44.9007C27.7157 44.9096 27.4677 44.851 27.2479 44.7311C27.0281 44.6112 26.8446 44.4344 26.7167 44.2192C26.5887 44.0041 26.5209 43.7584 26.5205 43.508V43.5052Z" fill="white"/>
<path d="M2.79199 33.4998C2.79199 16.5405 16.5409 2.7915 33.5003 2.7915C50.4597 2.7915 64.2087 16.5405 64.2087 33.4998C64.2087 50.4592 50.4597 64.2082 33.5003 64.2082C16.5409 64.2082 2.79199 50.4592 2.79199 33.4998ZM33.5003 6.979C26.4666 6.979 19.7209 9.77315 14.7473 14.7468C9.77364 19.7204 6.97949 26.4661 6.97949 33.4998C6.97949 40.5336 9.77364 47.2793 14.7473 52.2529C19.7209 57.2265 26.4666 60.0207 33.5003 60.0207C40.5341 60.0207 47.2798 57.2265 52.2534 52.2529C57.227 47.2793 60.0212 40.5336 60.0212 33.4998C60.0212 26.4661 57.227 19.7204 52.2534 14.7468C47.2798 9.77315 40.5341 6.979 33.5003 6.979Z" fill="white"/>
</svg>
