<svg width="46" height="40" viewBox="0 0 46 40" fill="none" xmlns="http://www.w3.org/2000/svg">
<path fill-rule="evenodd" clip-rule="evenodd" d="M26.45 7.99958C25.5439 7.99958 24.6466 8.17695 23.8095 8.52155C22.9723 8.86615 22.2117 9.37125 21.571 10.008C20.9302 10.6447 20.422 11.4007 20.0752 12.2326C19.7285 13.0646 19.55 13.9562 19.55 14.8567C19.55 15.7572 19.7285 16.6489 20.0752 17.4808C20.422 18.3128 20.9302 19.0687 21.571 19.7055C22.2117 20.3422 22.9723 20.8473 23.8095 21.1919C24.6466 21.5365 25.5439 21.7139 26.45 21.7139C28.28 21.7139 30.035 20.9914 31.329 19.7055C32.623 18.4195 33.35 16.6754 33.35 14.8567C33.35 13.0381 32.623 11.294 31.329 10.008C30.035 8.72203 28.28 7.99958 26.45 7.99958ZM17.25 14.8567C17.25 12.4319 18.2193 10.1064 19.9446 8.39175C21.67 6.67713 24.01 5.71387 26.45 5.71387C28.89 5.71387 31.23 6.67713 32.9554 8.39175C34.6807 10.1064 35.65 12.4319 35.65 14.8567C35.65 17.2816 34.6807 19.6071 32.9554 21.3217C31.23 23.0363 28.89 23.9996 26.45 23.9996C24.01 23.9996 21.67 23.0363 19.9446 21.3217C18.2193 19.6071 17.25 17.2816 17.25 14.8567Z" fill="url(#paint0_linear_286_141)"/>
<path fill-rule="evenodd" clip-rule="evenodd" d="M5.75 4.57143C5.75 3.35901 6.23464 2.19625 7.09731 1.33894C7.95998 0.481631 9.13 0 10.35 0C11.57 0 12.74 0.481631 13.6027 1.33894C14.4654 2.19625 14.95 3.35901 14.95 4.57143V12.0503C14.95 14.336 15.755 16.5463 17.227 18.3017L20.4332 22.1257C20.6198 22.3594 20.707 22.6564 20.6763 22.9532C20.6455 23.25 20.4992 23.523 20.2685 23.714C20.0379 23.905 19.7413 23.9988 19.442 23.9754C19.1427 23.952 18.8645 23.8131 18.6668 23.5886L15.4606 19.7646C13.6446 17.599 12.6501 14.8693 12.65 12.0503V4.57143C12.65 3.96522 12.4077 3.38384 11.9763 2.95518C11.545 2.52653 10.96 2.28571 10.35 2.28571C9.74 2.28571 9.15499 2.52653 8.72365 2.95518C8.29232 3.38384 8.05 3.96522 8.05 4.57143V13.1429C8.05028 14.8316 8.46894 16.4942 9.269 17.984L17.1143 32.6057C17.2454 32.8718 17.2674 33.1782 17.1756 33.4601C17.0838 33.742 16.8854 33.9775 16.6223 34.1169C16.3591 34.2562 16.0518 34.2885 15.7651 34.207C15.4785 34.1255 15.2349 33.9366 15.0857 33.68L7.2381 19.0583C6.26111 17.2377 5.75005 15.2061 5.75 13.1429V4.57143Z" fill="url(#paint1_linear_286_141)"/>
<path fill-rule="evenodd" clip-rule="evenodd" d="M18.4002 22.8567C18.4002 22.5536 18.5214 22.2629 18.737 22.0486C18.9527 21.8343 19.2452 21.7139 19.5502 21.7139H25.3002C28.6552 21.7139 31.8728 23.0384 34.2451 25.396C36.6174 27.7536 37.9502 30.9511 37.9502 34.2853V38.8567C37.9502 39.1598 37.829 39.4505 37.6134 39.6648C37.3977 39.8792 37.1052 39.9996 36.8002 39.9996C36.4952 39.9996 36.2027 39.8792 35.987 39.6648C35.7714 39.4505 35.6502 39.1598 35.6502 38.8567V34.2853C35.6502 31.5574 34.5598 28.9411 32.6187 27.0122C30.6777 25.0833 28.0452 23.9996 25.3002 23.9996H19.5502C19.2452 23.9996 18.9527 23.8792 18.737 23.6648C18.5214 23.4505 18.4002 23.1598 18.4002 22.8567ZM16.1002 31.9996C16.4052 31.9996 16.6977 32.12 16.9134 32.3343C17.129 32.5486 17.2502 32.8393 17.2502 33.1424V38.8567C17.2502 39.1598 17.129 39.4505 16.9134 39.6648C16.6977 39.8792 16.4052 39.9996 16.1002 39.9996C15.7952 39.9996 15.5027 39.8792 15.287 39.6648C15.0714 39.4505 14.9502 39.1598 14.9502 38.8567V33.1424C14.9502 32.8393 15.0714 32.5486 15.287 32.3343C15.5027 32.12 15.7952 31.9996 16.1002 31.9996Z" fill="url(#paint2_linear_286_141)"/>
<defs>
<linearGradient id="paint0_linear_286_141" x1="26.45" y1="23.9996" x2="26.45" y2="5.71387" gradientUnits="userSpaceOnUse">
<stop stop-color="#094A6F"/>
<stop offset="1" stop-color="#64C8BD"/>
</linearGradient>
<linearGradient id="paint1_linear_286_141" x1="13.2162" y1="34.2511" x2="13.2162" y2="0" gradientUnits="userSpaceOnUse">
<stop stop-color="#094A6F"/>
<stop offset="1" stop-color="#64C8BD"/>
</linearGradient>
<linearGradient id="paint2_linear_286_141" x1="26.4502" y1="39.9996" x2="26.4502" y2="21.7139" gradientUnits="userSpaceOnUse">
<stop stop-color="#094A6F"/>
<stop offset="1" stop-color="#64C8BD"/>
</linearGradient>
</defs>
</svg>
