<svg width="311" height="270" viewBox="0 0 311 270" fill="none" xmlns="http://www.w3.org/2000/svg">
<path d="M146.844 53.2865C151.255 50.5281 156.266 48.8787 161.452 48.479C166.637 48.0794 171.842 48.9414 176.623 50.9915C199.002 60.5864 203.084 90.603 184.061 105.825L178.294 110.441C177.752 110.865 177.217 111.298 176.688 111.738C174.808 113.363 173.326 115.399 172.359 117.689C171.391 119.978 170.962 122.46 171.106 124.942C171.25 127.424 171.963 129.839 173.189 132.001C174.416 134.163 176.122 136.014 178.178 137.411L180.16 138.668L180.29 138.746L182.324 140.043C188.837 144.356 194.215 150.176 198.002 157.01C201.79 163.845 203.875 171.492 204.081 179.304L204.094 181.573V197.923C204.094 200.502 203.07 202.976 201.248 204.8C199.425 206.623 196.953 207.648 194.376 207.648C191.798 207.648 189.326 206.623 187.503 204.8C185.681 202.976 184.657 200.502 184.657 197.923V179.823C184.533 175.134 183.28 170.545 181.007 166.444C178.733 162.343 175.504 158.851 171.595 156.263L170.39 155.485L169.871 155.161L169.638 155.032C168.602 154.383 167.824 153.89 167.267 153.514C162.558 150.322 158.68 146.048 155.96 141.049C153.239 136.05 151.754 130.473 151.628 124.782C151.503 119.092 152.741 113.454 155.238 108.34C157.735 103.226 161.42 98.7849 165.984 95.3874L171.919 90.6418C174.514 88.6172 176.229 85.6697 176.708 82.4123C177.187 79.1548 176.392 75.838 174.49 73.1514C172.588 70.4649 169.724 68.6153 166.494 67.9873C163.263 67.3593 159.916 68.0011 157.146 69.7794L115.291 95.9579C113.107 97.2426 110.509 97.6234 108.049 97.0195C105.589 96.4155 103.462 94.8744 102.121 92.7244C100.779 90.5744 100.33 87.9854 100.868 85.5088C101.406 83.0321 102.89 80.8636 105.002 79.4651L146.844 53.2865ZM204.379 111.284C204.689 110.044 205.239 108.877 205.999 107.85C206.759 106.823 207.714 105.956 208.809 105.299C209.904 104.641 211.118 104.206 212.381 104.018C213.645 103.831 214.933 103.894 216.172 104.204C231.639 108.073 247.821 108.073 263.288 104.204C264.527 103.894 265.815 103.832 267.078 104.02C268.341 104.208 269.554 104.643 270.649 105.3C271.744 105.958 272.699 106.825 273.46 107.851C274.22 108.878 274.77 110.044 275.08 111.284C275.39 112.523 275.453 113.812 275.265 115.076C275.077 116.34 274.642 117.554 273.985 118.65C273.328 119.745 272.461 120.701 271.435 121.461C270.409 122.222 269.244 122.773 268.005 123.083C249.44 127.727 230.019 127.727 211.455 123.083C210.216 122.774 209.049 122.223 208.023 121.463C206.997 120.702 206.13 119.747 205.473 118.651C204.816 117.555 204.381 116.34 204.193 115.076C204.006 113.812 204.069 112.523 204.379 111.284ZM149.41 158.636C151.23 160.459 152.253 162.931 152.253 165.508C152.253 168.085 151.23 170.557 149.41 172.38C135.145 186.657 115.796 194.679 95.6202 194.682H90.709C88.1314 194.682 85.6594 193.657 83.8368 191.834C82.0142 190.01 80.9902 187.536 80.9902 184.957C80.9902 182.378 82.0142 179.905 83.8368 178.081C85.6594 176.257 88.1314 175.233 90.709 175.233H95.6202C110.639 175.233 125.036 169.268 135.661 158.636C136.564 157.732 137.636 157.016 138.815 156.526C139.995 156.037 141.259 155.786 142.536 155.786C143.813 155.786 145.077 156.037 146.256 156.526C147.436 157.016 148.508 157.732 149.41 158.636Z" fill="url(#paint0_linear_286_105)"/>
<path fill-rule="evenodd" clip-rule="evenodd" d="M246.209 0.191406C236.758 0.191406 227.694 3.94809 221.011 10.635C214.328 17.322 210.574 26.3914 210.574 35.8482C210.574 45.3049 214.328 54.3744 221.011 61.0613C227.694 67.7483 236.758 71.505 246.209 71.505C255.66 71.505 264.724 67.7483 271.407 61.0613C278.09 54.3744 281.845 45.3049 281.845 35.8482C281.845 26.3914 278.09 17.322 271.407 10.635C264.724 3.94809 255.66 0.191406 246.209 0.191406ZM246.209 19.6406C241.913 19.6406 237.793 21.3481 234.755 24.3877C231.718 27.4272 230.011 31.5497 230.011 35.8482C230.011 40.1467 231.718 44.2692 234.755 47.3087C237.793 50.3482 241.913 52.0558 246.209 52.0558C250.505 52.0558 254.625 50.3482 257.663 47.3087C260.7 44.2692 262.407 40.1467 262.407 35.8482C262.407 31.5497 260.7 27.4272 257.663 24.3877C254.625 21.3481 250.505 19.6406 246.209 19.6406ZM32.3707 197.185C33.319 196.329 34.4267 195.668 35.6305 195.24C36.8343 194.812 38.1106 194.626 39.3864 194.693C40.6621 194.759 41.9123 195.076 43.0654 195.626C44.2185 196.176 45.2519 196.948 46.1065 197.898L53.9852 206.664C57.9318 211.052 62.7557 214.561 68.1446 216.965C73.5334 219.368 79.3667 220.612 85.2666 220.615H225.735C231.637 220.614 237.473 219.371 242.864 216.967C248.255 214.564 253.081 211.053 257.029 206.664L264.908 197.898C265.762 196.948 266.795 196.176 267.948 195.625C269.1 195.075 270.35 194.756 271.626 194.689C272.901 194.622 274.177 194.806 275.382 195.232C276.586 195.658 277.694 196.318 278.644 197.172C279.593 198.027 280.365 199.061 280.916 200.214C281.466 201.367 281.784 202.618 281.851 203.894C281.919 205.17 281.734 206.447 281.308 207.652C280.883 208.857 280.224 209.966 279.369 210.916L271.478 219.682C265.706 226.097 258.652 231.226 250.771 234.738C242.891 238.249 234.361 240.064 225.735 240.064H85.2666C76.6403 240.064 68.1103 238.249 60.2301 234.738C52.3498 231.226 45.2952 226.097 39.5237 219.682L31.645 210.916C30.789 209.968 30.1284 208.859 29.7009 207.655C29.2735 206.45 29.0875 205.173 29.1537 203.897C29.2199 202.62 29.5369 201.369 30.0867 200.215C30.6365 199.062 31.4082 198.028 32.3577 197.172" fill="url(#paint1_linear_286_105)"/>
<path d="M103.667 256.272C103.667 259.711 102.301 263.009 99.8713 265.44C97.4411 267.872 94.1451 269.238 90.7083 269.238C87.2716 269.238 83.9756 267.872 81.5454 265.44C79.1153 263.009 77.75 259.711 77.75 256.272C77.75 252.833 79.1153 249.535 81.5454 247.103C83.9756 244.672 87.2716 243.306 90.7083 243.306C94.1451 243.306 97.4411 244.672 99.8713 247.103C102.301 249.535 103.667 252.833 103.667 256.272ZM233.25 256.272C233.25 259.711 231.885 263.009 229.455 265.44C227.024 267.872 223.728 269.238 220.292 269.238C216.855 269.238 213.559 267.872 211.129 265.44C208.699 263.009 207.333 259.711 207.333 256.272C207.333 252.833 208.699 249.535 211.129 247.103C213.559 244.672 216.855 243.306 220.292 243.306C223.728 243.306 227.024 244.672 229.455 247.103C231.885 249.535 233.25 252.833 233.25 256.272Z" fill="url(#paint2_linear_286_105)"/>
<defs>
<linearGradient id="paint0_linear_286_105" x1="178.18" y1="207.648" x2="178.18" y2="48.3838" gradientUnits="userSpaceOnUse">
<stop stop-color="#094A6F"/>
<stop offset="1" stop-color="#64C8BD"/>
</linearGradient>
<linearGradient id="paint1_linear_286_105" x1="155.503" y1="240.064" x2="155.503" y2="0.191406" gradientUnits="userSpaceOnUse">
<stop stop-color="#094A6F"/>
<stop offset="1" stop-color="#64C8BD"/>
</linearGradient>
<linearGradient id="paint2_linear_286_105" x1="155.5" y1="269.238" x2="155.5" y2="243.306" gradientUnits="userSpaceOnUse">
<stop stop-color="#094A6F"/>
<stop offset="1" stop-color="#64C8BD"/>
</linearGradient>
</defs>
</svg>
