<svg width="265" height="265" viewBox="0 0 265 265" fill="none" xmlns="http://www.w3.org/2000/svg">
<g clip-path="url(#clip0_411_121)">
<path d="M145.692 170.484C134.739 170.484 125.859 175.455 125.859 181.596C125.859 187.737 134.741 192.71 145.692 192.71C156.646 192.71 165.525 187.737 165.525 181.596C165.525 175.455 156.643 170.484 145.692 170.484ZM165.525 184.897C165.52 191.038 156.646 196.011 145.692 196.011C134.769 196.011 125.91 191.092 125.859 184.979V189.326C125.859 191.95 127.514 194.351 130.225 196.253C132.967 197.011 135.409 198.062 137.442 199.392C139.963 200.041 142.735 200.438 145.692 200.438C156.646 200.438 165.525 195.467 165.525 189.326V184.897ZM165.525 192.628C165.525 198.768 156.646 203.742 145.692 203.742C144.36 203.742 143.065 203.641 141.806 203.5C142.799 204.858 143.477 206.427 143.788 208.089C144.42 208.125 145.045 208.169 145.692 208.169C156.646 208.169 165.525 203.198 165.525 197.057V192.628ZM120.308 198.828C109.354 198.828 100.475 203.801 100.475 209.942C100.475 216.083 109.357 221.056 120.308 221.056C131.261 221.056 140.141 216.083 140.141 209.942C140.141 203.801 131.259 198.828 120.308 198.828ZM165.525 200.358C165.52 206.499 156.646 211.473 145.692 211.473C145.055 211.473 144.41 211.426 143.788 211.39C143.76 211.583 143.745 211.841 143.71 212.034C143.837 212.423 143.946 212.807 143.946 213.245V215.822C144.522 215.851 145.101 215.9 145.692 215.9C156.646 215.9 165.525 210.929 165.525 204.788V200.358ZM165.525 208.089C165.52 214.23 156.646 219.203 145.692 219.203C145.055 219.203 144.41 219.157 143.788 219.121C143.76 219.314 143.745 219.572 143.71 219.765C143.837 220.152 143.946 220.538 143.946 220.976V223.553C144.522 223.582 145.101 223.63 145.692 223.63C156.646 223.63 165.525 218.66 165.525 212.519V208.089ZM140.141 213.243C140.136 219.384 131.261 224.357 120.308 224.357C109.385 224.357 100.525 219.438 100.475 213.323V217.673C100.475 223.813 109.352 228.787 120.308 228.787C131.264 228.787 140.141 223.813 140.141 217.673V213.243ZM140.141 220.974C140.136 227.114 131.261 232.088 120.308 232.088C109.385 232.088 100.525 227.169 100.475 221.054V225.403C100.475 231.544 109.352 236.518 120.308 236.518C131.264 236.518 140.141 231.544 140.141 225.403V220.974Z" fill="url(#paint0_linear_411_121)"/>
</g>
<path d="M199.375 66.8728C202.542 64.5943 206.215 63.4551 210.363 63.4551C212.643 63.4551 215.145 64.0564 217.868 65.3222C220.592 66.5564 222.745 68.0121 224.328 69.6893C227.59 73.7399 228.952 78.4551 228.477 83.8348C227.97 89.2146 226.197 93.4235 223.125 96.3981L199.09 120.417C198.488 121.018 197.728 121.303 196.842 121.303C195.955 121.303 195.227 121.018 194.625 120.417C194.332 120.129 194.103 119.783 193.95 119.402C193.798 119.021 193.725 118.612 193.738 118.202C193.738 117.316 194.023 116.556 194.625 115.955L209.16 101.43C209.952 100.734 209.952 100.006 209.16 99.2146C208.368 98.4235 207.64 98.4235 206.943 99.2146L192.408 113.74C192.115 114.035 191.764 114.266 191.377 114.419C190.99 114.571 190.576 114.642 190.16 114.626C189.273 114.626 188.545 114.341 187.943 113.74C187.651 113.452 187.421 113.106 187.268 112.725C187.116 112.344 187.044 111.935 187.057 111.525C187.057 110.639 187.342 109.879 187.943 109.278L202.478 94.7526C203.333 93.9614 203.333 93.1703 202.478 92.3792C201.75 91.588 201.053 91.588 200.262 92.3792L185.727 107.063C185.43 107.353 185.078 107.581 184.692 107.733C184.306 107.886 183.893 107.959 183.478 107.949C182.592 107.949 181.832 107.664 181.167 107.063C180.533 106.461 180.217 105.734 180.217 104.848C180.217 103.961 180.565 103.17 181.262 102.474L195.828 87.9171C196.62 87.126 196.62 86.3981 195.828 85.7019C195.037 85.0057 194.277 85.0057 193.58 85.7019L178.887 100.291C178.19 100.923 177.462 101.272 176.67 101.272C175.783 101.272 175.023 100.955 174.453 100.291C173.852 99.6576 173.535 98.8981 173.535 98.0121C173.535 97.126 173.852 96.3981 174.453 95.7969C184.143 86.05 190.128 80.164 192.408 77.9804L203.682 89.1197C204.917 90.2905 206.342 90.8918 208.083 90.8918C210.3 90.8918 212.042 90.0057 213.34 88.2336C214.227 86.9361 214.543 85.5121 214.29 83.9298C214.037 82.3475 213.372 81.0184 212.295 79.9108L199.375 66.8728ZM205.898 86.9045L192.408 73.3918L169.988 95.7969C167.328 93.107 165.808 88.9931 165.46 83.3918C165.112 77.8222 166.632 72.9804 169.988 68.9298C173.757 65.1956 178.253 63.2969 183.478 63.2969C188.735 63.2969 193.2 65.1956 196.842 68.9298L210.363 82.4424C210.965 83.0437 211.25 83.7716 211.25 84.6576C211.25 85.5437 210.965 86.3032 210.363 86.9045C209.762 87.4741 209.033 87.7905 208.083 87.7905C207.228 87.7905 206.5 87.4741 205.898 86.9045Z" fill="url(#paint1_linear_411_121)"/>
<g clip-path="url(#clip1_411_121)">
<path d="M72.0275 124.547C71.6386 124.043 71.3987 123.441 71.3351 122.808C71.2714 122.175 71.3865 121.537 71.6674 120.966C72.4044 119.534 72.6934 117.897 72.5049 116.285C72.3505 115.134 71.9706 114.026 71.3869 113.023C70.8107 112.033 70.0401 111.169 69.1214 110.485C65.9906 108.132 63.7936 104.747 62.9197 100.929C55.7675 110.305 58.5103 115.627 61.9357 120.317C62.3373 120.867 62.5488 121.533 62.5383 122.214C62.5277 122.894 62.2956 123.553 61.877 124.09C61.4506 124.634 60.8784 125.045 60.2272 125.275C59.5835 125.501 58.8879 125.535 58.2255 125.372C53.5984 124.241 49.2434 122.089 46.2912 118.659C44.6177 116.754 43.3293 114.543 42.4973 112.147C41.6558 109.732 41.282 107.178 41.396 104.623C41.396 104.623 40.839 94.3087 53.2759 84.2043C53.2759 84.2043 67.974 71.7339 62.8737 62.513C62.6857 62.0594 62.63 61.5619 62.713 61.078C62.796 60.5941 63.0143 60.1436 63.3427 59.7786C63.6618 59.4207 64.0833 59.1696 64.55 59.0595C65.0167 58.9494 65.506 58.9855 65.9515 59.163L66.5629 59.4059C72.099 62.9054 76.426 68.0218 78.9579 74.0621C81.3866 79.9791 81.3699 86.8759 79.7284 93.019C81.0893 91.7962 82.2241 90.3348 83.0825 88.6933L83.204 88.4253C84.0331 86.4278 86.6419 87.0643 87.6218 88.3708C87.9819 88.9445 97.2195 102.37 92.2574 113.697C90.4431 117.129 87.7931 120.048 84.5524 122.185C81.8331 123.989 78.7944 125.259 75.5995 125.924C74.9391 126.063 74.2526 126.008 73.623 125.765C72.9877 125.518 72.4348 125.097 72.0275 124.551V124.547ZM64.6324 92.0475C65.0234 91.8437 65.4764 91.7934 65.9025 91.9065C66.3287 92.0197 66.6971 92.288 66.9355 92.6588C67.103 92.9059 67.2119 93.1865 67.2496 93.488L67.438 94.9494C67.5218 97.0892 67.4967 99.3253 68.33 101.381C69.1926 103.492 70.5326 105.36 72.2327 106.817C74.423 108.258 76.1184 110.336 77.0902 112.771C78.0115 115.133 78.1371 117.755 77.442 120.196C79.5687 119.525 81.5453 118.449 83.2626 117.026L83.6939 116.674C85.1009 115.514 86.2609 114.065 87.0984 112.415C87.94 110.77 88.4467 108.961 88.5807 107.102C88.8529 102.809 87.3915 98.5004 85.1177 94.6563C84.0792 96.1638 82.647 97.3321 80.993 98.023C79.9587 98.4627 78.8615 98.7349 77.7435 98.8186C77.1031 98.8598 76.4645 98.7144 75.9052 98.3999C75.3372 98.0771 74.8714 97.6012 74.561 97.0264C74.304 96.5629 74.1572 96.0465 74.1318 95.5171C74.1064 94.9878 74.2031 94.4597 74.4144 93.9737C76.1397 89.9035 76.6757 85.3893 75.9429 81.005C75.0754 75.989 72.673 71.3656 69.067 67.7725C68.4137 77.006 58.9458 85.6029 57.0028 87.4538C56.7016 87.7375 56.3887 88.0086 56.0648 88.2661C45.9059 96.4946 46.601 103.99 46.601 104.321C46.3993 107.299 47.0671 110.271 48.5231 112.876C50.0515 115.577 52.25 117.805 54.8881 119.325C51.8438 112.633 51.8438 104.602 63.0789 93.086L64.6366 92.0391L64.6324 92.0475Z" fill="url(#paint2_linear_411_121)"/>
</g>
<rect x="0.5" y="0.5" width="264" height="264" rx="132" stroke="#ECECEC"/>
<rect x="132" y="134" width="133" height="1" transform="rotate(-90 132 134)" fill="#ECECEC"/>
<rect x="132.404" y="133" width="131.956" height="1" transform="rotate(30 132.404 133)" fill="#ECECEC"/>
<rect x="132.672" y="134" width="131" height="1" transform="rotate(150 132.672 134)" fill="#ECECEC"/>
<defs>
<linearGradient id="paint0_linear_411_121" x1="133" y1="236.518" x2="133" y2="170.481" gradientUnits="userSpaceOnUse">
<stop stop-color="#094A6F"/>
<stop offset="1" stop-color="#64C8BD"/>
</linearGradient>
<linearGradient id="paint1_linear_411_121" x1="196.99" y1="121.303" x2="196.99" y2="63.2969" gradientUnits="userSpaceOnUse">
<stop stop-color="#094A6F"/>
<stop offset="1" stop-color="#64C8BD"/>
</linearGradient>
<linearGradient id="paint2_linear_411_121" x1="67.5473" y1="125.999" x2="67.5473" y2="58.9971" gradientUnits="userSpaceOnUse">
<stop stop-color="#094A6F"/>
<stop offset="1" stop-color="#64C8BD"/>
</linearGradient>
<clipPath id="clip0_411_121">
<rect width="66" height="67" fill="white" transform="translate(100 170)"/>
</clipPath>
<clipPath id="clip1_411_121">
<rect width="67" height="67" fill="white" transform="translate(33 59)"/>
</clipPath>
</defs>
</svg>
