<svg width="49" height="40" viewBox="0 0 49 40" fill="none" xmlns="http://www.w3.org/2000/svg">
<path d="M39.8125 0C40.124 0 40.428 0.0954056 40.6841 0.273487C40.9402 0.451569 41.1361 0.703858 41.2458 0.996693C42.5933 4.60817 45.1535 6.15243 47.4688 6.15243C47.8749 6.15243 48.2643 6.31448 48.5515 6.60293C48.8387 6.89138 49 7.2826 49 7.69053C49 8.09846 48.8387 8.48969 48.5515 8.77814C48.2643 9.06659 47.8749 9.22864 47.4688 9.22864C44.5226 9.22864 41.7235 7.69976 39.8125 4.88195C37.9015 7.69976 35.1024 9.22864 32.1562 9.22864C29.2101 9.22864 26.411 7.69976 24.5 4.88503C22.589 7.69976 19.7899 9.22864 16.8438 9.22864C13.9007 9.22864 11.0985 7.69976 9.1875 4.88503C7.2765 7.70591 4.47738 9.23787 1.53125 9.23787C1.12514 9.23787 0.735658 9.07582 0.448493 8.78737C0.161328 8.49892 0 8.10769 0 7.69976C0 7.29183 0.161328 6.90061 0.448493 6.61216C0.735658 6.3237 1.12514 6.16165 1.53125 6.16165C3.8465 6.16165 6.40675 4.61432 7.75425 0.999769C7.86389 0.706934 8.05981 0.454645 8.3159 0.276563C8.57198 0.0984816 8.87604 0.00307599 9.1875 0.00307599C9.49896 0.00307599 9.80302 0.0984816 10.0591 0.276563C10.3152 0.454645 10.5111 0.706934 10.6207 0.999769C11.9682 4.60817 14.5285 6.15243 16.8438 6.15243C19.159 6.15243 21.7192 4.60817 23.0667 0.999769C23.1764 0.706934 23.3723 0.454645 23.6284 0.276563C23.8845 0.0984816 24.1885 0.00307599 24.5 0.00307599C24.8115 0.00307599 25.1155 0.0984816 25.3716 0.276563C25.6277 0.454645 25.8236 0.706934 25.9333 0.999769C27.2808 4.60817 29.841 6.15243 32.1562 6.15243C34.4715 6.15243 37.0317 4.60817 38.3792 0.996693C38.4889 0.703858 38.6848 0.451569 38.9409 0.273487C39.197 0.0954056 39.501 0 39.8125 0ZM39.8125 15.3811C40.124 15.3811 40.428 15.4765 40.6841 15.6546C40.9402 15.8326 41.1361 16.0849 41.2458 16.3778C42.5933 19.9892 45.1535 21.5335 47.4688 21.5335C47.8749 21.5335 48.2643 21.6955 48.5515 21.984C48.8387 22.2724 49 22.6637 49 23.0716C49 23.4795 48.8387 23.8708 48.5515 24.1592C48.2643 24.4477 47.8749 24.6097 47.4688 24.6097C44.5226 24.6097 41.7235 23.0808 39.8125 20.263C37.9015 23.0808 35.1024 24.6097 32.1562 24.6097C29.2101 24.6097 26.411 23.0808 24.5 20.2661C22.589 23.0808 19.7899 24.6097 16.8438 24.6097C13.9007 24.6097 11.0985 23.0808 9.1875 20.2661C7.2765 23.087 4.47738 24.6189 1.53125 24.6189C1.12514 24.6189 0.735658 24.4569 0.448493 24.1684C0.161328 23.88 0 23.4888 0 23.0808C0 22.6729 0.161328 22.2817 0.448493 21.9932C0.735658 21.7048 1.12514 21.5427 1.53125 21.5427C3.8465 21.5427 6.40675 19.9954 7.75425 16.3808C7.86389 16.088 8.05981 15.8357 8.3159 15.6576C8.57198 15.4795 8.87604 15.3841 9.1875 15.3841C9.49896 15.3841 9.80302 15.4795 10.0591 15.6576C10.3152 15.8357 10.5111 16.088 10.6207 16.3808C11.9682 19.9892 14.5285 21.5335 16.8438 21.5335C19.159 21.5335 21.7192 19.9892 23.0667 16.3808C23.1764 16.088 23.3723 15.8357 23.6284 15.6576C23.8845 15.4795 24.1885 15.3841 24.5 15.3841C24.8115 15.3841 25.1155 15.4795 25.3716 15.6576C25.6277 15.8357 25.8236 16.088 25.9333 16.3808C27.2808 19.9892 29.841 21.5335 32.1562 21.5335C34.4715 21.5335 37.0317 19.9892 38.3792 16.3778C38.4889 16.0849 38.6848 15.8326 38.9409 15.6546C39.197 15.4765 39.501 15.3811 39.8125 15.3811ZM41.2458 31.7588C41.1361 31.466 40.9402 31.2137 40.6841 31.0356C40.428 30.8575 40.124 30.7621 39.8125 30.7621C39.501 30.7621 39.197 30.8575 38.9409 31.0356C38.6848 31.2137 38.4889 31.466 38.3792 31.7588C37.0317 35.3703 34.4715 36.9146 32.1562 36.9146C29.841 36.9146 27.2808 35.3703 25.9333 31.7619C25.8236 31.4691 25.6277 31.2168 25.3716 31.0387C25.1155 30.8606 24.8115 30.7652 24.5 30.7652C24.1885 30.7652 23.8845 30.8606 23.6284 31.0387C23.3723 31.2168 23.1764 31.4691 23.0667 31.7619C21.7192 35.3703 19.159 36.9146 16.8438 36.9146C14.5285 36.9146 11.9682 35.3703 10.6207 31.7619C10.5111 31.4691 10.3152 31.2168 10.0591 31.0387C9.80302 30.8606 9.49896 30.7652 9.1875 30.7652C8.87604 30.7652 8.57198 30.8606 8.3159 31.0387C8.05981 31.2168 7.86389 31.4691 7.75425 31.7619C6.40675 35.3764 3.8465 36.9238 1.53125 36.9238C1.12514 36.9238 0.735658 37.0858 0.448493 37.3743C0.161328 37.6627 0 38.054 0 38.4619C0 38.8698 0.161328 39.2611 0.448493 39.5495C0.735658 39.838 1.12514 40 1.53125 40C4.47738 40 7.2765 38.468 9.1875 35.6472C11.0985 38.4619 13.9038 39.9908 16.8438 39.9908C19.7899 39.9908 22.589 38.4619 24.5 35.6472C26.411 38.4619 29.2101 39.9908 32.1562 39.9908C35.1024 39.9908 37.9015 38.4619 39.8125 35.6441C41.7235 38.4619 44.5226 39.9908 47.4688 39.9908C47.8749 39.9908 48.2643 39.8287 48.5515 39.5403C48.8387 39.2518 49 38.8606 49 38.4527C49 38.0447 48.8387 37.6535 48.5515 37.3651C48.2643 37.0766 47.8749 36.9146 47.4688 36.9146C45.1535 36.9146 42.5933 35.3703 41.2458 31.7588Z" fill="url(#paint0_linear_172_351)"/>
<defs>
<linearGradient id="paint0_linear_172_351" x1="24.5" y1="40" x2="24.5" y2="0" gradientUnits="userSpaceOnUse">
<stop stop-color="#094A6F"/>
<stop offset="1" stop-color="#64C8BD"/>
</linearGradient>
</defs>
</svg>
