<svg width="304" height="481" viewBox="0 0 304 481" fill="none" xmlns="http://www.w3.org/2000/svg">
<path fill-rule="evenodd" clip-rule="evenodd" d="M170 0H0V481H170V0ZM48.476 193.62H34.94V199.596H41.744V200.388C41.072 201.372 40.22 202.152 39.188 202.728C38.156 203.304 37.004 203.592 35.732 203.592C34.676 203.592 33.68 203.4 32.744 203.016C31.808 202.608 30.992 202.068 30.296 201.396C29.624 200.7 29.084 199.884 28.676 198.948C28.292 198.012 28.1 197.016 28.1 195.96C28.1 194.904 28.292 193.908 28.676 192.972C29.084 192.036 29.624 191.232 30.296 190.56C30.992 189.864 31.808 189.324 32.744 188.94C33.68 188.532 34.676 188.328 35.732 188.328C36.956 188.328 38.084 188.592 39.116 189.12C40.172 189.624 41.048 190.32 41.744 191.208L47.612 187.248C46.244 185.472 44.528 184.056 42.464 183C40.4 181.92 38.156 181.38 35.732 181.38C33.692 181.38 31.772 181.764 29.972 182.532C28.172 183.3 26.588 184.344 25.22 185.664C23.876 186.984 22.808 188.532 22.016 190.308C21.224 192.06 20.828 193.944 20.828 195.96C20.828 197.976 21.224 199.872 22.016 201.648C22.808 203.4 23.876 204.936 25.22 206.256C26.588 207.576 28.172 208.62 29.972 209.388C31.772 210.156 33.692 210.54 35.732 210.54C37.172 210.54 38.54 210.276 39.836 209.748C41.132 209.22 42.128 208.428 42.824 207.372V210H48.476V193.62ZM81.9388 181.92H60.3748V210H81.9388V203.052H67.5748V199.452H79.3828V192.936H67.5748V188.904H81.9388V181.92ZM93.703 181.92V210H100.867V196.788L106.699 208.92H111.415L117.247 196.788V210H124.411V181.92H117.175L109.039 199.668L100.939 181.92H93.703ZM136.871 190.308C136.079 192.06 135.683 193.944 135.683 195.96C135.683 197.976 136.079 199.872 136.871 201.648C137.663 203.4 138.731 204.936 140.075 206.256C141.443 207.576 143.027 208.62 144.827 209.388C146.651 210.156 148.571 210.54 150.587 210.54C152.627 210.54 154.547 210.156 156.347 209.388C158.171 208.62 159.755 207.576 161.099 206.256C162.467 204.936 163.535 203.4 164.303 201.648C165.095 199.872 165.491 197.976 165.491 195.96C165.491 193.944 165.095 192.06 164.303 190.308C163.535 188.532 162.467 186.984 161.099 185.664C159.755 184.344 158.171 183.3 156.347 182.532C154.547 181.764 152.627 181.38 150.587 181.38C148.571 181.38 146.651 181.764 144.827 182.532C143.027 183.3 141.443 184.344 140.075 185.664C138.731 186.984 137.663 188.532 136.871 190.308ZM143.531 198.948C143.147 198.012 142.955 197.016 142.955 195.96C142.955 194.904 143.147 193.908 143.531 192.972C143.939 192.036 144.491 191.232 145.187 190.56C145.883 189.864 146.687 189.324 147.599 188.94C148.535 188.532 149.531 188.328 150.587 188.328C151.667 188.328 152.663 188.532 153.575 188.94C154.511 189.324 155.315 189.864 155.987 190.56C156.683 191.232 157.223 192.036 157.607 192.972C158.015 193.908 158.219 194.904 158.219 195.96C158.219 197.016 158.015 198.012 157.607 198.948C157.223 199.884 156.683 200.7 155.987 201.396C155.315 202.068 154.511 202.608 153.575 203.016C152.663 203.4 151.667 203.592 150.587 203.592C149.531 203.592 148.535 203.4 147.599 203.016C146.687 202.608 145.883 202.068 145.187 201.396C144.491 200.7 143.939 199.884 143.531 198.948ZM202.554 210V181.92H195.354V192.828H183.906V181.92H176.742V210H183.906V199.56H195.354V210H202.554ZM236.732 181.92H215.168V210H236.732V203.052H222.368V199.452H234.176V192.936H222.368V188.904H236.732V181.92ZM255.66 181.92H248.496V210H269.124V203.052H255.66V181.92ZM292.415 181.92H280.031V210H287.231V203.628H292.415C294.287 203.628 295.907 203.34 297.275 202.764C298.667 202.164 299.819 201.372 300.731 200.388C301.643 199.38 302.315 198.216 302.747 196.896C303.203 195.576 303.431 194.172 303.431 192.684C303.431 191.268 303.203 189.912 302.747 188.616C302.315 187.32 301.643 186.18 300.731 185.196C299.819 184.188 298.667 183.396 297.275 182.82C295.907 182.22 294.287 181.92 292.415 181.92ZM287.231 197.076V188.472H292.019C292.763 188.472 293.399 188.592 293.927 188.832C294.455 189.048 294.887 189.36 295.223 189.768C295.559 190.152 295.799 190.608 295.943 191.136C296.087 191.64 296.159 192.168 296.159 192.72C296.159 193.968 295.847 195.012 295.223 195.852C294.599 196.668 293.531 197.076 292.019 197.076H287.231Z" fill="white"/>
</svg>
