<?xml version="1.0" encoding="utf-8"?>
<!-- Generator: Adobe Illustrator 16.0.0, SVG Export Plug-In . SVG Version: 6.00 Build 0)  -->
<!DOCTYPE svg PUBLIC "-//W3C//DTD SVG 1.1//EN" "http://www.w3.org/Graphics/SVG/1.1/DTD/svg11.dtd">
<svg version="1.1" id="Layer_1" xmlns="http://www.w3.org/2000/svg" xmlns:xlink="http://www.w3.org/1999/xlink" x="0px" y="0px"
	 width="320px" height="1000px" viewBox="136.5 257 320 1000" enable-background="new 136.5 257 320 1000" xml:space="preserve">
<path fill="#FFFFFF" d="M136.5,1257h170V257h-170V1257z M273.371,736.809c0.792-1.776,1.859-3.324,3.204-4.645
	c1.368-1.32,2.952-2.364,4.752-3.132c1.823-0.769,3.743-1.152,5.76-1.152c2.04,0,3.96,0.384,5.761,1.152
	c1.823,0.768,3.407,1.812,4.752,3.132c1.367,1.32,2.436,2.868,3.203,4.645c0.793,1.752,1.188,3.635,1.188,5.651
	s-0.396,3.912-1.188,5.688c-0.768,1.752-1.836,3.287-3.203,4.607c-1.345,1.32-2.929,2.364-4.752,3.133
	c-1.801,0.768-3.721,1.151-5.761,1.151c-2.017,0-3.937-0.384-5.76-1.151c-1.8-0.769-3.384-1.813-4.752-3.133
	c-1.345-1.32-2.412-2.855-3.204-4.607c-0.792-1.776-1.188-3.672-1.188-5.688S272.579,738.561,273.371,736.809z M230.203,728.42
	h7.236l8.1,17.748l8.136-17.748h7.236v28.08h-7.164v-13.212l-5.832,12.132h-4.716l-5.832-12.132V756.5h-7.164V728.42z
	 M196.875,728.42h21.564v6.984h-14.365v4.031h11.809v6.517h-11.809v3.6h14.365v6.948h-21.564V728.42z M158.516,736.809
	c0.793-1.776,1.86-3.324,3.205-4.645c1.367-1.32,2.951-2.364,4.752-3.132c1.799-0.769,3.719-1.152,5.76-1.152
	c2.424,0,4.668,0.54,6.731,1.62c2.063,1.057,3.78,2.473,5.147,4.248l-5.867,3.96c-0.696-0.888-1.572-1.584-2.628-2.088
	c-1.032-0.528-2.16-0.792-3.384-0.792c-1.057,0-2.053,0.204-2.988,0.611c-0.936,0.385-1.752,0.924-2.448,1.621
	c-0.672,0.672-1.212,1.476-1.62,2.412c-0.384,0.936-0.576,1.932-0.576,2.987s0.192,2.052,0.576,2.988
	c0.408,0.936,0.948,1.752,1.62,2.448c0.696,0.672,1.513,1.211,2.448,1.619c0.936,0.385,1.932,0.576,2.988,0.576
	c1.271,0,2.424-0.287,3.455-0.863c1.033-0.576,1.885-1.356,2.557-2.34v-0.793h-6.805v-5.976h13.537v16.38h-5.652v-2.628
	c-0.696,1.056-1.692,1.849-2.988,2.376s-2.664,0.792-4.104,0.792c-2.041,0-3.961-0.384-5.76-1.151
	c-1.801-0.769-3.385-1.813-4.752-3.133c-1.345-1.32-2.412-2.855-3.205-4.607c-0.791-1.776-1.188-3.672-1.188-5.688
	S157.725,738.561,158.516,736.809z M280.031,745.448c-0.385-0.937-0.576-1.933-0.576-2.988s0.191-2.052,0.576-2.987
	c0.408-0.937,0.96-1.74,1.656-2.412c0.695-0.697,1.5-1.236,2.412-1.621c0.936-0.407,1.932-0.611,2.987-0.611
	c1.08,0,2.076,0.204,2.988,0.611c0.937,0.385,1.739,0.924,2.411,1.621c0.697,0.672,1.236,1.476,1.621,2.412
	c0.408,0.936,0.611,1.932,0.611,2.987s-0.203,2.052-0.611,2.988c-0.385,0.936-0.924,1.752-1.621,2.448
	c-0.672,0.672-1.475,1.211-2.411,1.619c-0.912,0.385-1.908,0.576-2.988,0.576c-1.056,0-2.052-0.191-2.987-0.576
	c-0.912-0.408-1.717-0.947-2.412-1.619C280.991,747.2,280.439,746.384,280.031,745.448z M331.854,728.42h7.201v28.08h-7.201v-10.439
	h-11.447V756.5h-7.164v-28.08h7.164v10.908h11.447V728.42z M351.668,728.42h21.564v6.984h-14.364v4.031h11.808v6.517h-11.808v3.6
	h14.364v6.948h-21.564V728.42z M392.16,749.552h13.464v6.948h-20.628v-28.08h7.164V749.552z M439.247,735.116
	c-0.432-1.296-1.104-2.437-2.016-3.421c-0.912-1.008-2.064-1.799-3.456-2.375c-1.368-0.6-2.988-0.9-4.86-0.9h-12.384v28.08h7.199
	v-6.372h5.185c1.872,0,3.492-0.288,4.86-0.864c1.392-0.6,2.544-1.392,3.456-2.375c0.911-1.009,1.584-2.173,2.016-3.492
	c0.456-1.32,0.684-2.725,0.684-4.213C439.931,737.768,439.703,736.412,439.247,735.116z M431.723,742.352
	c-0.623,0.816-1.691,1.225-3.203,1.225h-4.789v-8.604h4.789c0.744,0,1.379,0.119,1.907,0.359c0.528,0.216,0.96,0.527,1.296,0.936
	c0.336,0.385,0.576,0.84,0.721,1.369c0.144,0.504,0.216,1.031,0.216,1.584C432.659,740.468,432.348,741.512,431.723,742.352z"/>
</svg>
