<svg width="40" height="40" viewBox="0 0 40 40" fill="none" xmlns="http://www.w3.org/2000/svg">
<path d="M21.1838 29.5166L29.5172 21.1833C29.6689 21.0248 29.7878 20.8379 29.8672 20.6333C30.0339 20.2275 30.0339 19.7724 29.8672 19.3666C29.7878 19.1621 29.6689 18.9752 29.5172 18.8166L21.1838 10.4833C21.0284 10.3279 20.844 10.2047 20.6409 10.1206C20.4379 10.0365 20.2203 9.99316 20.0005 9.99316C19.5567 9.99316 19.131 10.1695 18.8172 10.4833C18.5033 10.7972 18.327 11.2228 18.327 11.6667C18.327 12.1105 18.5033 12.5361 18.8172 12.85L24.3172 18.3333H11.6672C11.2251 18.3333 10.8012 18.5089 10.4887 18.8215C10.1761 19.134 10.0005 19.558 10.0005 20C10.0005 20.442 10.1761 20.8659 10.4887 21.1785C10.8012 21.4911 11.2251 21.6666 11.6672 21.6666H24.3172L18.8172 27.15C18.661 27.3049 18.537 27.4893 18.4523 27.6924C18.3677 27.8955 18.3242 28.1133 18.3242 28.3333C18.3242 28.5533 18.3677 28.7712 18.4523 28.9743C18.537 29.1774 18.661 29.3617 18.8172 29.5166C18.9721 29.6729 19.1564 29.7969 19.3595 29.8815C19.5626 29.9661 19.7805 30.0096 20.0005 30.0096C20.2205 30.0096 20.4384 29.9661 20.6415 29.8815C20.8446 29.7969 21.0289 29.6729 21.1838 29.5166Z" fill="url(#paint0_linear_523_64)"/>
<defs>
<linearGradient id="paint0_linear_523_64" x1="10.0005" y1="20.0014" x2="29.9922" y2="20.0014" gradientUnits="userSpaceOnUse">
<stop stop-color="#094A6F"/>
<stop offset="1" stop-color="#64C8BD"/>
</linearGradient>
</defs>
</svg>
