<svg width="109" height="16" viewBox="0 0 109 16" fill="none" xmlns="http://www.w3.org/2000/svg">
<path d="M108 9C108.552 9 109 8.55228 109 8C109 7.44772 108.552 7 108 7V9ZM0.292885 7.29289C-0.097641 7.68342 -0.097641 8.31658 0.292885 8.70711L6.65685 15.0711C7.04737 15.4616 7.68053 15.4616 8.07106 15.0711C8.46159 14.6805 8.46159 14.0474 8.07106 13.6569L2.41421 8L8.07106 2.34315C8.46159 1.95262 8.46159 1.31946 8.07106 0.928932C7.68053 0.538408 7.04737 0.538408 6.65685 0.928932L0.292885 7.29289ZM108 7L0.999992 7V9L108 9V7Z" fill="url(#paint0_linear_993_276)"/>
<defs>
<linearGradient id="paint0_linear_993_276" x1="54.5" y1="7" x2="54.5" y2="8" gradientUnits="userSpaceOnUse">
<stop stop-color="#094A6F"/>
<stop offset="1" stop-color="#64C8BD"/>
</linearGradient>
</defs>
</svg>
