<?xml version="1.0" encoding="utf-8"?>
<!-- Generator: Adobe Illustrator 16.0.0, SVG Export Plug-In . SVG Version: 6.00 Build 0)  -->
<!DOCTYPE svg PUBLIC "-//W3C//DTD SVG 1.1//EN" "http://www.w3.org/Graphics/SVG/1.1/DTD/svg11.dtd">
<svg version="1.1" id="Layer_1" xmlns="http://www.w3.org/2000/svg" xmlns:xlink="http://www.w3.org/1999/xlink" x="0px" y="0px"
	 width="320px" height="1000px" viewBox="340 -520 320 1000" enable-background="new 340 -520 320 1000" xml:space="preserve">
<g id="Layer_1_1_">
	<polygon fill="#FFFFFF" points="523.862,-66.79 494.364,-66.79 494.364,-58.448 504.813,-58.448 504.813,-33.25 513.413,-33.25 
		513.413,-58.448 523.862,-58.448 	"/>
	<rect x="536.867" y="-66.79" fill="#FFFFFF" width="8.601" height="33.54"/>
	<polygon fill="#FFFFFF" points="569.151,-66.79 560.509,-66.79 560.509,-33.25 569.065,-33.25 569.065,-49.031 576.031,-34.54 
		581.664,-34.54 588.63,-49.031 588.63,-33.25 597.187,-33.25 597.187,-66.79 588.544,-66.79 578.826,-45.591 	"/>
	<polygon fill="#FFFFFF" points="638,-66.79 612.243,-66.79 612.243,-33.25 638,-33.25 638,-41.549 620.843,-41.549 
		620.843,-45.849 634.947,-45.849 634.947,-53.632 620.843,-53.632 620.843,-58.448 638,-58.448 	"/>
	<g>
		<path fill="#FFFFFF" d="M379.074,5.552h-6.321v16.899h6.321c1.29,0,2.422-0.201,3.397-0.602c0.975-0.433,1.792-1.021,2.451-1.766
			c0.659-0.745,1.146-1.634,1.462-2.666c0.344-1.029,0.516-2.179,0.516-3.438c0-2.523-0.66-4.561-1.978-6.106
			C383.603,6.326,381.654,5.552,379.074,5.552z"/>
		<polygon fill="#FFFFFF" points="418.72,18.064 426.073,18.064 422.418,8.218 		"/>
		<path fill="#FFFFFF" d="M340-520V480h148V-520H340z M364.153-66.79h25.757v8.342h-17.157v4.816h14.104v7.783h-14.104v4.3h17.157
			v8.299h-25.757V-66.79z M394.554,20.473c-0.659,2.035-1.648,3.813-2.967,5.332c-1.319,1.521-2.981,2.723-4.988,3.612
			c-1.978,0.89-4.271,1.333-6.88,1.333h-15.566V-2.79h15.566c2.609,0,4.902,0.444,6.88,1.333c2.007,0.889,3.669,2.107,4.988,3.654
			c1.318,1.52,2.308,3.298,2.967,5.332c0.688,2.035,1.032,4.186,1.032,6.451C395.586,16.273,395.242,18.438,394.554,20.473z
			 M402.371-50.02c0-2.408,0.473-4.658,1.419-6.751c0.946-2.121,2.222-3.97,3.827-5.547c1.634-1.577,3.526-2.824,5.676-3.741
			c2.179-0.917,4.472-1.376,6.88-1.376c1.72,0,3.368,0.244,4.945,0.731c1.605,0.459,3.096,1.104,4.472,1.935s2.609,1.835,3.698,3.01
			c1.089,1.175,2.006,2.465,2.752,3.87l-7.826,3.526c-0.745-1.433-1.835-2.58-3.268-3.44c-1.405-0.889-2.996-1.333-4.773-1.333
			c-1.261,0-2.451,0.244-3.569,0.731c-1.089,0.459-2.05,1.104-2.881,1.935c-0.831,0.803-1.491,1.763-1.978,2.881
			c-0.458,1.118-0.688,2.308-0.688,3.569s0.229,2.451,0.688,3.569c0.487,1.118,1.147,2.093,1.978,2.924
			c0.832,0.803,1.792,1.448,2.881,1.935c1.118,0.459,2.308,0.688,3.569,0.688c1.806,0,3.411-0.43,4.816-1.29
			c1.405-0.889,2.48-2.05,3.225-3.483l7.869,3.44c-0.746,1.433-1.663,2.738-2.752,3.913c-1.089,1.175-2.322,2.193-3.698,3.053
			c-1.376,0.831-2.867,1.491-4.472,1.978c-1.605,0.459-3.268,0.688-4.988,0.688c-2.408,0-4.701-0.459-6.88-1.376
			c-2.15-0.917-4.042-2.164-5.676-3.741c-1.605-1.577-2.881-3.411-3.827-5.504C402.844-45.347,402.371-47.612,402.371-50.02z
			 M430.846,30.75l-1.849-4.902h-13.201l-1.849,4.902h-9.374l13.588-33.54h8.514l13.545,33.54H430.846z M464.335,18.452V30.75
			h-8.557V18.452L442.534-2.79h10.105l7.396,12.169l7.439-12.169h10.148L464.335,18.452z M481.571-43.226
			c-0.917,2.093-2.193,3.927-3.827,5.504c-1.604,1.577-3.497,2.824-5.676,3.741c-2.15,0.917-4.443,1.376-6.88,1.376
			c-2.408,0-4.701-0.459-6.88-1.376c-2.15-0.917-4.042-2.164-5.676-3.741c-1.605-1.577-2.881-3.411-3.827-5.504
			c-0.946-2.121-1.419-4.386-1.419-6.794s0.473-4.658,1.419-6.751c0.946-2.121,2.222-3.97,3.827-5.547
			c1.634-1.577,3.526-2.824,5.676-3.741c2.179-0.917,4.472-1.376,6.88-1.376c2.437,0,4.73,0.459,6.88,1.376
			c2.179,0.917,4.071,2.164,5.676,3.741c1.634,1.577,2.91,3.426,3.827,5.547c0.945,2.093,1.419,4.343,1.419,6.751
			S482.517-45.347,481.571-43.226z"/>
		<path fill="#FFFFFF" d="M471.638-56.47c-0.802-0.831-1.763-1.476-2.881-1.935c-1.089-0.487-2.279-0.731-3.569-0.731
			c-1.261,0-2.451,0.244-3.569,0.731c-1.089,0.459-2.049,1.104-2.881,1.935c-0.831,0.803-1.49,1.763-1.978,2.881
			c-0.458,1.118-0.688,2.308-0.688,3.569s0.23,2.451,0.688,3.569c0.488,1.118,1.147,2.093,1.978,2.924
			c0.832,0.803,1.792,1.448,2.881,1.935c1.118,0.459,2.308,0.688,3.569,0.688c1.29,0,2.48-0.229,3.569-0.688
			c1.118-0.487,2.079-1.132,2.881-1.935c0.832-0.831,1.477-1.806,1.935-2.924c0.488-1.118,0.731-2.308,0.731-3.569
			s-0.243-2.451-0.731-3.569C473.115-54.707,472.47-55.667,471.638-56.47z"/>
	</g>
</g>
</svg>
