<?xml version="1.0" encoding="utf-8"?>
<!-- Generator: Adobe Illustrator 16.0.0, SVG Export Plug-In . SVG Version: 6.00 Build 0)  -->
<!DOCTYPE svg PUBLIC "-//W3C//DTD SVG 1.1//EN" "http://www.w3.org/Graphics/SVG/1.1/DTD/svg11.dtd">
<svg version="1.1" id="Layer_1" xmlns="http://www.w3.org/2000/svg" xmlns:xlink="http://www.w3.org/1999/xlink" x="0px" y="0px"
	 width="1000px" height="480px" viewBox="-260 0 1000 480" enable-background="new -260 0 1000 480" xml:space="preserve">
<g id="Layer_2">
</g>
<g id="Layer_1_1_">
	<polygon fill="#FFFFFF" points="263.789,193.46 234.291,193.46 234.291,201.802 244.74,201.802 244.74,227 253.34,227 
		253.34,201.802 263.789,201.802 	"/>
	<rect x="276.794" y="193.46" fill="#FFFFFF" width="8.601" height="33.54"/>
	<polygon fill="#FFFFFF" points="309.078,193.46 300.436,193.46 300.436,227 308.992,227 308.992,211.219 315.958,225.71 
		321.591,225.71 328.557,211.219 328.557,227 337.113,227 337.113,193.46 328.471,193.46 318.753,214.659 	"/>
	<polygon fill="#FFFFFF" points="377.927,193.46 352.17,193.46 352.17,227 377.927,227 377.927,218.701 360.77,218.701 
		360.77,214.401 374.874,214.401 374.874,206.618 360.77,206.618 360.77,201.802 377.927,201.802 	"/>
	<g>
		<path fill="#FFFFFF" d="M119.001,265.802h-6.321v16.899h6.321c1.29,0,2.422-0.201,3.397-0.602c0.975-0.432,1.792-1.02,2.451-1.765
			c0.659-0.745,1.146-1.634,1.462-2.666c0.344-1.03,0.516-2.179,0.516-3.438c0-2.523-0.66-4.56-1.978-6.106
			C123.53,266.576,121.581,265.802,119.001,265.802z"/>
		<polygon fill="#FFFFFF" points="158.647,278.314 166,278.314 162.345,268.468 		"/>
		<path fill="#FFFFFF" d="M-260,0v480l488.5,0.5V0.5L-260,0z M104.08,193.46h25.757v8.342H112.68v4.816h14.104v7.783H112.68v4.3
			h17.157V227H104.08V193.46z M134.481,280.723c-0.659,2.035-1.648,3.813-2.967,5.332c-1.319,1.521-2.981,2.723-4.988,3.612
			c-1.978,0.89-4.271,1.333-6.88,1.333H104.08v-33.54h15.566c2.609,0,4.902,0.444,6.88,1.333c2.007,0.889,3.669,2.107,4.988,3.654
			c1.318,1.52,2.308,3.298,2.967,5.332c0.688,2.035,1.032,4.186,1.032,6.451C135.513,276.523,135.169,278.688,134.481,280.723z
			 M142.298,210.23c0-2.408,0.473-4.658,1.419-6.751c0.946-2.121,2.222-3.97,3.827-5.547c1.634-1.577,3.526-2.824,5.676-3.741
			c2.179-0.917,4.472-1.376,6.88-1.376c1.72,0,3.368,0.244,4.945,0.731c1.605,0.459,3.096,1.104,4.472,1.935s2.609,1.835,3.698,3.01
			c1.089,1.175,2.006,2.465,2.752,3.87l-7.826,3.526c-0.745-1.433-1.835-2.58-3.268-3.44c-1.405-0.889-2.996-1.333-4.773-1.333
			c-1.261,0-2.451,0.244-3.569,0.731c-1.089,0.459-2.05,1.104-2.881,1.935c-0.831,0.803-1.491,1.763-1.978,2.881
			c-0.458,1.118-0.688,2.308-0.688,3.569s0.229,2.451,0.688,3.569c0.487,1.118,1.147,2.093,1.978,2.924
			c0.832,0.803,1.792,1.448,2.881,1.935c1.118,0.459,2.308,0.688,3.569,0.688c1.806,0,3.411-0.43,4.816-1.29
			c1.405-0.889,2.48-2.05,3.225-3.483l7.869,3.44c-0.746,1.433-1.663,2.738-2.752,3.913c-1.089,1.175-2.322,2.193-3.698,3.053
			c-1.376,0.831-2.867,1.491-4.472,1.978c-1.605,0.459-3.268,0.688-4.988,0.688c-2.408,0-4.701-0.459-6.88-1.376
			c-2.15-0.917-4.042-2.164-5.676-3.741c-1.605-1.577-2.881-3.411-3.827-5.504C142.771,214.903,142.298,212.638,142.298,210.23z
			 M170.773,291l-1.849-4.902h-13.201L153.874,291H144.5l13.588-33.54h8.514L180.147,291H170.773z M204.262,278.702V291h-8.557
			v-12.298l-13.244-21.242h10.105l7.396,12.169l7.439-12.169h10.148L204.262,278.702z M221.498,217.024
			c-0.917,2.093-2.193,3.927-3.827,5.504c-1.605,1.577-3.497,2.824-5.676,3.741c-2.15,0.917-4.443,1.376-6.88,1.376
			c-2.408,0-4.701-0.459-6.88-1.376c-2.15-0.917-4.042-2.164-5.676-3.741c-1.605-1.577-2.881-3.411-3.827-5.504
			c-0.946-2.121-1.419-4.386-1.419-6.794s0.473-4.658,1.419-6.751c0.946-2.121,2.222-3.97,3.827-5.547
			c1.634-1.577,3.526-2.824,5.676-3.741c2.179-0.917,4.472-1.376,6.88-1.376c2.437,0,4.73,0.459,6.88,1.376
			c2.179,0.917,4.071,2.164,5.676,3.741c1.634,1.577,2.91,3.426,3.827,5.547c0.946,2.093,1.419,4.343,1.419,6.751
			S222.444,214.903,221.498,217.024z"/>
		<path fill="#FFFFFF" d="M211.565,203.78c-0.802-0.831-1.763-1.476-2.881-1.935c-1.089-0.487-2.279-0.731-3.569-0.731
			c-1.261,0-2.451,0.244-3.569,0.731c-1.089,0.459-2.049,1.104-2.881,1.935c-0.831,0.803-1.49,1.763-1.978,2.881
			c-0.458,1.118-0.688,2.308-0.688,3.569s0.23,2.451,0.688,3.569c0.488,1.118,1.147,2.093,1.978,2.924
			c0.832,0.803,1.792,1.448,2.881,1.935c1.118,0.459,2.308,0.688,3.569,0.688c1.29,0,2.48-0.229,3.569-0.688
			c1.118-0.487,2.079-1.132,2.881-1.935c0.832-0.831,1.477-1.806,1.935-2.924c0.488-1.118,0.731-2.308,0.731-3.569
			s-0.243-2.451-0.731-3.569C213.042,205.543,212.397,204.583,211.565,203.78z"/>
	</g>
</g>
</svg>
