<svg width="438" height="262" viewBox="0 0 438 262" fill="none" xmlns="http://www.w3.org/2000/svg">
<path fill-rule="evenodd" clip-rule="evenodd" d="M215 0H0V262H215V0ZM62.835 71.9611H23.9V122.661H62.835V110.116H36.9V103.616H58.22V91.8511H36.9V84.5711H62.835V71.9611ZM128.471 114.991C130.117 113.214 131.504 111.243 132.631 109.076L120.736 103.876C119.609 106.043 117.984 107.798 115.861 109.141C113.737 110.441 111.311 111.091 108.581 111.091C106.674 111.091 104.876 110.744 103.186 110.051C101.539 109.314 100.087 108.339 98.8308 107.126C97.5741 105.869 96.5774 104.396 95.8408 102.706C95.1474 101.016 94.8008 99.2178 94.8008 97.3111C94.8008 95.4045 95.1474 93.6061 95.8408 91.9161C96.5774 90.2261 97.5741 88.7745 98.8308 87.5611C100.087 86.3045 101.539 85.3295 103.186 84.6361C104.876 83.8995 106.674 83.5311 108.581 83.5311C111.267 83.5311 113.672 84.2028 115.796 85.5461C117.962 86.8461 119.609 88.5795 120.736 90.7461L132.566 85.4161C131.439 83.2928 130.052 81.3428 128.406 79.5661C126.759 77.7895 124.896 76.2728 122.816 75.0161C120.736 73.7595 118.482 72.7845 116.056 72.0911C113.672 71.3545 111.181 70.9861 108.581 70.9861C104.941 70.9861 101.474 71.6795 98.1808 73.0661C94.9308 74.4528 92.0708 76.3378 89.6008 78.7211C87.1741 81.1045 85.2458 83.8995 83.8158 87.1061C82.3858 90.2695 81.6708 93.6711 81.6708 97.3111C81.6708 100.951 82.3858 104.374 83.8158 107.581C85.2458 110.744 87.1741 113.518 89.6008 115.901C92.0708 118.284 94.9308 120.169 98.1808 121.556C101.474 122.943 104.941 123.636 108.581 123.636C111.181 123.636 113.694 123.289 116.121 122.596C118.547 121.859 120.801 120.863 122.881 119.606C124.961 118.306 126.824 116.768 128.471 114.991ZM151.863 87.1061C150.433 90.2695 149.718 93.6711 149.718 97.3111C149.718 100.951 150.433 104.374 151.863 107.581C153.293 110.744 155.221 113.518 157.648 115.901C160.118 118.284 162.978 120.169 166.228 121.556C169.521 122.943 172.988 123.636 176.628 123.636C180.311 123.636 183.778 122.943 187.028 121.556C190.321 120.169 193.181 118.284 195.608 115.901C198.078 113.518 200.006 110.744 201.393 107.581C202.823 104.374 203.538 100.951 203.538 97.3111C203.538 93.6711 202.823 90.2695 201.393 87.1061C200.006 83.8995 198.078 81.1045 195.608 78.7211C193.181 76.3378 190.321 74.4528 187.028 73.0661C183.778 71.6795 180.311 70.9861 176.628 70.9861C172.988 70.9861 169.521 71.6795 166.228 73.0661C162.978 74.4528 160.118 76.3378 157.648 78.7211C155.221 81.1045 153.293 83.8995 151.863 87.1061ZM163.888 102.706C163.194 101.016 162.848 99.2178 162.848 97.3111C162.848 95.4045 163.194 93.6061 163.888 91.9161C164.624 90.2261 165.621 88.7745 166.878 87.5611C168.134 86.3045 169.586 85.3295 171.233 84.6361C172.923 83.8995 174.721 83.5311 176.628 83.5311C178.578 83.5311 180.376 83.8995 182.023 84.6361C183.713 85.3295 185.164 86.3045 186.378 87.5611C187.634 88.7745 188.609 90.2261 189.303 91.9161C190.039 93.6061 190.408 95.4045 190.408 97.3111C190.408 99.2178 190.039 101.016 189.303 102.706C188.609 104.396 187.634 105.869 186.378 107.126C185.164 108.339 183.713 109.314 182.023 110.051C180.376 110.744 178.578 111.091 176.628 111.091C174.721 111.091 172.923 110.744 171.233 110.051C169.586 109.314 168.134 108.339 166.878 107.126C165.621 105.869 164.624 104.396 163.888 102.706ZM265.321 71.9611H220.731V84.5711H236.526V122.661H249.526V84.5711H265.321V71.9611ZM297.979 122.661V71.9611H284.979V122.661H297.979ZM320.716 71.9611V122.661H333.651V98.8061L344.181 120.711H352.696L363.226 98.8061V122.661H376.161V71.9611H363.096L348.406 104.006L333.781 71.9611H320.716ZM437.855 71.9611H398.92V122.661H437.855V110.116H411.92V103.616H433.24V91.8511H411.92V84.5711H437.855V71.9611ZM47.43 168.961H23.9V219.661H47.43C51.3733 219.661 54.84 218.989 57.83 217.646C60.8633 216.303 63.3767 214.483 65.37 212.186C67.3633 209.889 68.8583 207.203 69.855 204.126C70.895 201.049 71.415 197.778 71.415 194.311C71.415 190.888 70.895 187.638 69.855 184.561C68.8583 181.484 67.3633 178.798 65.37 176.501C63.3767 174.161 60.8633 172.319 57.83 170.976C54.84 169.633 51.3733 168.961 47.43 168.961ZM36.9 207.116V181.571H46.455C50.355 181.571 53.3017 182.741 55.295 185.081C57.2883 187.421 58.285 190.498 58.285 194.311C58.285 196.218 58.025 197.951 57.505 199.511C57.0283 201.071 56.2917 202.414 55.295 203.541C54.2983 204.668 53.0633 205.556 51.59 206.206C50.1167 206.813 48.405 207.116 46.455 207.116H36.9ZM124.715 219.661H138.885L118.41 168.961H105.54L85 219.661H99.17L101.965 212.251H121.92L124.715 219.661ZM106.385 200.486L111.975 185.601L117.5 200.486H106.385ZM180.083 168.961L168.838 187.356L157.658 168.961H142.383L162.403 201.071V219.661H175.338V201.071L195.423 168.961H180.083Z" fill="white"/>
</svg>
