<svg width="297" height="481" viewBox="0 0 297 481" fill="none" xmlns="http://www.w3.org/2000/svg">
<path fill-rule="evenodd" clip-rule="evenodd" d="M147 0H0V481H147V0ZM48.337 183.46H22.58V217H48.337V208.701H31.18V204.401H45.284V196.618H31.18V191.802H48.337V183.46ZM91.7576 211.926C92.8469 210.751 93.7643 209.446 94.5096 208.013L86.6406 204.573C85.8953 206.006 84.8203 207.167 83.4156 208.056C82.0109 208.916 80.4056 209.346 78.5996 209.346C77.3383 209.346 76.1486 209.117 75.0306 208.658C73.9413 208.171 72.9809 207.526 72.1496 206.723C71.3183 205.892 70.6589 204.917 70.1716 203.799C69.7129 202.681 69.4836 201.491 69.4836 200.23C69.4836 198.969 69.7129 197.779 70.1716 196.661C70.6589 195.543 71.3183 194.583 72.1496 193.78C72.9809 192.949 73.9413 192.304 75.0306 191.845C76.1486 191.358 77.3383 191.114 78.5996 191.114C80.3769 191.114 81.9679 191.558 83.3726 192.447C84.8059 193.307 85.8953 194.454 86.6406 195.887L94.4666 192.361C93.7213 190.956 92.8039 189.666 91.7146 188.491C90.6253 187.316 89.3926 186.312 88.0166 185.481C86.6406 184.65 85.1499 184.005 83.5446 183.546C81.9679 183.059 80.3196 182.815 78.5996 182.815C76.1916 182.815 73.8983 183.274 71.7196 184.191C69.5696 185.108 67.6776 186.355 66.0436 187.932C64.4383 189.509 63.1626 191.358 62.2166 193.479C61.2706 195.572 60.7976 197.822 60.7976 200.23C60.7976 202.638 61.2706 204.903 62.2166 207.024C63.1626 209.117 64.4383 210.951 66.0436 212.528C67.6776 214.105 69.5696 215.352 71.7196 216.269C73.8983 217.186 76.1916 217.645 78.5996 217.645C80.3196 217.645 81.9823 217.416 83.5876 216.957C85.1929 216.47 86.6836 215.81 88.0596 214.979C89.4356 214.119 90.6683 213.101 91.7576 211.926ZM107.232 193.479C106.286 195.572 105.813 197.822 105.813 200.23C105.813 202.638 106.286 204.903 107.232 207.024C108.178 209.117 109.454 210.951 111.059 212.528C112.693 214.105 114.585 215.352 116.735 216.269C118.914 217.186 121.207 217.645 123.615 217.645C126.052 217.645 128.345 217.186 130.495 216.269C132.674 215.352 134.566 214.105 136.171 212.528C137.805 210.951 139.081 209.117 139.998 207.024C140.944 204.903 141.417 202.638 141.417 200.23C141.417 197.822 140.944 195.572 139.998 193.479C139.081 191.358 137.805 189.509 136.171 187.932C134.566 186.355 132.674 185.108 130.495 184.191C128.345 183.274 126.052 182.815 123.615 182.815C121.207 182.815 118.914 183.274 116.735 184.191C114.585 185.108 112.693 186.355 111.059 187.932C109.454 189.509 108.178 191.358 107.232 193.479ZM115.187 203.799C114.729 202.681 114.499 201.491 114.499 200.23C114.499 198.969 114.729 197.779 115.187 196.661C115.675 195.543 116.334 194.583 117.165 193.78C117.997 192.949 118.957 192.304 120.046 191.845C121.164 191.358 122.354 191.114 123.615 191.114C124.905 191.114 126.095 191.358 127.184 191.845C128.302 192.304 129.263 192.949 130.065 193.78C130.897 194.583 131.542 195.543 132 196.661C132.488 197.779 132.731 198.969 132.731 200.23C132.731 201.491 132.488 202.681 132 203.799C131.542 204.917 130.897 205.892 130.065 206.723C129.263 207.526 128.302 208.171 127.184 208.658C126.095 209.117 124.905 209.346 123.615 209.346C122.354 209.346 121.164 209.117 120.046 208.658C118.957 208.171 117.997 207.526 117.165 206.723C116.334 205.892 115.675 204.917 115.187 203.799ZM182.289 183.46H152.791V191.802H163.24V217H171.84V191.802H182.289V183.46ZM195.294 217H203.894V183.46H195.294V217ZM227.578 183.46H218.935V217H227.492V201.219L234.458 215.71H240.091L247.057 201.219V217H255.614V183.46H246.971L237.253 204.659L227.578 183.46ZM296.427 183.46H270.67V217H296.427V208.701H279.27V204.401H293.374V196.618H279.27V191.802H296.427V183.46ZM38.146 247.46H22.58V281H38.146C40.7547 281 43.048 280.556 45.026 279.667C47.0327 278.778 48.6953 277.574 50.014 276.055C51.3327 274.536 52.3217 272.758 52.981 270.723C53.669 268.688 54.013 266.523 54.013 264.23C54.013 261.965 53.669 259.815 52.981 257.78C52.3217 255.745 51.3327 253.967 50.014 252.448C48.6953 250.9 47.0327 249.682 45.026 248.793C43.048 247.904 40.7547 247.46 38.146 247.46ZM31.18 272.701V255.802H37.501C40.081 255.802 42.0303 256.576 43.349 258.124C44.6677 259.672 45.327 261.707 45.327 264.23C45.327 265.491 45.155 266.638 44.811 267.67C44.4957 268.702 44.0083 269.591 43.349 270.336C42.6897 271.081 41.8727 271.669 40.898 272.099C39.9233 272.5 38.791 272.701 37.501 272.701H31.18ZM98.647 281L85.102 247.46H76.588L63 281H72.374L74.223 276.098H87.424L89.273 281H98.647ZM77.147 268.315L80.845 258.468L84.5 268.315H77.147ZM125.901 247.46L118.462 259.629L111.066 247.46H100.961L114.205 268.702V281H122.762V268.702L136.049 247.46H125.901Z" fill="white"/>
</svg>
