<svg width="871" height="539" viewBox="0 0 871 539" fill="none" xmlns="http://www.w3.org/2000/svg">
<path fill-rule="evenodd" clip-rule="evenodd" d="M414.217 0H0V539H414.217V0ZM114.78 163.956H36.3112V266.136H114.78V240.853H62.5112V227.753H105.479V204.042H62.5112V189.37H114.78V163.956ZM247.062 250.678C250.38 247.097 253.175 243.123 255.446 238.757L231.473 228.277C229.202 232.643 225.927 236.18 221.648 238.888C217.368 241.508 212.478 242.818 206.976 242.818C203.133 242.818 199.509 242.119 196.103 240.722C192.784 239.237 189.858 237.272 187.326 234.827C184.793 232.294 182.784 229.325 181.3 225.919C179.902 222.513 179.204 218.888 179.204 215.046C179.204 211.203 179.902 207.579 181.3 204.173C182.784 200.767 184.793 197.841 187.326 195.396C189.858 192.863 192.784 190.898 196.103 189.501C199.509 188.016 203.133 187.274 206.976 187.274C212.39 187.274 217.237 188.627 221.517 191.335C225.883 193.955 229.202 197.448 231.473 201.815L255.315 191.073C253.044 186.793 250.249 182.863 246.931 179.283C243.612 175.702 239.857 172.645 235.665 170.113C231.473 167.58 226.931 165.615 222.041 164.218C217.237 162.733 212.216 161.991 206.976 161.991C199.64 161.991 192.653 163.388 186.016 166.183C179.466 168.977 173.702 172.776 168.724 177.58C163.833 182.383 159.947 188.016 157.065 194.479C154.183 200.854 152.742 207.71 152.742 215.046C152.742 222.382 154.183 229.281 157.065 235.744C159.947 242.119 163.833 247.708 168.724 252.512C173.702 257.315 179.466 261.114 186.016 263.909C192.653 266.703 199.64 268.101 206.976 268.101C212.216 268.101 217.281 267.402 222.172 266.005C227.062 264.52 231.604 262.511 235.796 259.979C239.988 257.359 243.743 254.258 247.062 250.678ZM294.205 194.479C291.323 200.854 289.882 207.71 289.882 215.046C289.882 222.382 291.323 229.281 294.205 235.744C297.087 242.119 300.973 247.708 305.864 252.512C310.842 257.315 316.606 261.114 323.156 263.909C329.793 266.703 336.78 268.101 344.116 268.101C351.539 268.101 358.526 266.703 365.076 263.909C371.713 261.114 377.477 257.315 382.368 252.512C387.346 247.708 391.232 242.119 394.027 235.744C396.909 229.281 398.35 222.382 398.35 215.046C398.35 207.71 396.909 200.854 394.027 194.479C391.232 188.016 387.346 182.383 382.368 177.58C377.477 172.776 371.713 168.977 365.076 166.183C358.526 163.388 351.539 161.991 344.116 161.991C336.78 161.991 329.793 163.388 323.156 166.183C316.606 168.977 310.842 172.776 305.864 177.58C300.973 182.383 297.087 188.016 294.205 194.479ZM318.44 225.919C317.043 222.513 316.344 218.888 316.344 215.046C316.344 211.203 317.043 207.579 318.44 204.173C319.925 200.767 321.933 197.841 324.466 195.396C326.999 192.863 329.924 190.898 333.243 189.501C336.649 188.016 340.273 187.274 344.116 187.274C348.046 187.274 351.67 188.016 354.989 189.501C358.395 190.898 361.321 192.863 363.766 195.396C366.299 197.841 368.264 200.767 369.661 204.173C371.146 207.579 371.888 211.203 371.888 215.046C371.888 218.888 371.146 222.513 369.661 225.919C368.264 229.325 366.299 232.294 363.766 234.827C361.321 237.272 358.395 239.237 354.989 240.722C351.67 242.119 348.046 242.818 344.116 242.818C340.273 242.818 336.649 242.119 333.243 240.722C329.924 239.237 326.999 237.272 324.466 234.827C321.933 232.294 319.925 229.325 318.44 225.919ZM522.868 163.956H433.002V189.37H464.835V266.136H491.035V189.37H522.868V163.956ZM562.486 266.136H588.686V163.956H562.486V266.136ZM660.841 163.956H634.51V266.136H660.579V218.059L681.801 262.206H698.962L720.184 218.059V266.136H746.253V163.956H719.922L690.316 228.539L660.841 163.956ZM870.589 163.956H792.12V266.136H870.589V240.853H818.32V227.753H861.288V204.042H818.32V189.37H870.589V163.956ZM83.7332 358.956H36.3112V461.136H83.7332C91.6805 461.136 98.6672 459.782 104.693 457.075C110.807 454.367 115.872 450.699 119.889 446.071C123.907 441.442 126.92 436.027 128.928 429.827C131.024 423.626 132.072 417.032 132.072 410.046C132.072 403.146 131.024 396.596 128.928 390.396C126.92 384.195 123.907 378.78 119.889 374.152C115.872 369.436 110.807 365.724 104.693 363.017C98.6672 360.309 91.6805 358.956 83.7332 358.956ZM62.5112 435.853V384.37H81.7682C89.6282 384.37 95.5668 386.728 99.5842 391.444C103.602 396.16 105.61 402.36 105.61 410.046C105.61 413.888 105.086 417.382 104.038 420.526C103.078 423.67 101.593 426.377 99.5842 428.648C97.5755 430.918 95.0865 432.709 92.1172 434.019C89.1478 435.241 85.6982 435.853 81.7682 435.853H62.5112ZM239.492 461.136H268.05L226.785 358.956H200.847L159.451 461.136H188.009L193.642 446.202H233.859L239.492 461.136ZM202.55 422.491L213.816 392.492L224.951 422.491H202.55ZM351.08 358.956L328.417 396.029L305.885 358.956H275.1L315.448 423.67V461.136H341.517V423.67L381.996 358.956H351.08Z" fill="white"/>
</svg>
