<svg width="613" height="720" viewBox="0 0 613 720" fill="none" xmlns="http://www.w3.org/2000/svg">
<path fill-rule="evenodd" clip-rule="evenodd" d="M290 0H0V720H290V0ZM76.287 272.247H20.58V344.787H76.287V326.838H39.18V317.538H69.684V300.705H39.18V290.289H76.287V272.247ZM170.197 333.813C172.553 331.271 174.537 328.45 176.149 325.35L159.13 317.91C157.518 321.01 155.193 323.521 152.155 325.443C149.117 327.303 145.645 328.233 141.739 328.233C139.011 328.233 136.438 327.737 134.02 326.745C131.664 325.691 129.587 324.296 127.789 322.56C125.991 320.762 124.565 318.654 123.511 316.236C122.519 313.818 122.023 311.245 122.023 308.517C122.023 305.789 122.519 303.216 123.511 300.798C124.565 298.38 125.991 296.303 127.789 294.567C129.587 292.769 131.664 291.374 134.02 290.382C136.438 289.328 139.011 288.801 141.739 288.801C145.583 288.801 149.024 289.762 152.062 291.684C155.162 293.544 157.518 296.024 159.13 299.124L176.056 291.498C174.444 288.46 172.46 285.67 170.104 283.128C167.748 280.586 165.082 278.416 162.106 276.618C159.13 274.82 155.906 273.425 152.434 272.433C149.024 271.379 145.459 270.852 141.739 270.852C136.531 270.852 131.571 271.844 126.859 273.828C122.209 275.812 118.117 278.509 114.583 281.919C111.111 285.329 108.352 289.328 106.306 293.916C104.26 298.442 103.237 303.309 103.237 308.517C103.237 313.725 104.26 318.623 106.306 323.211C108.352 327.737 111.111 331.705 114.583 335.115C118.117 338.525 122.209 341.222 126.859 343.206C131.571 345.19 136.531 346.182 141.739 346.182C145.459 346.182 149.055 345.686 152.527 344.694C155.999 343.64 159.223 342.214 162.199 340.416C165.175 338.556 167.841 336.355 170.197 333.813ZM203.665 293.916C201.619 298.442 200.596 303.309 200.596 308.517C200.596 313.725 201.619 318.623 203.665 323.211C205.711 327.737 208.47 331.705 211.942 335.115C215.476 338.525 219.568 341.222 224.218 343.206C228.93 345.19 233.89 346.182 239.098 346.182C244.368 346.182 249.328 345.19 253.978 343.206C258.69 341.222 262.782 338.525 266.254 335.115C269.788 331.705 272.547 327.737 274.531 323.211C276.577 318.623 277.6 313.725 277.6 308.517C277.6 303.309 276.577 298.442 274.531 293.916C272.547 289.328 269.788 285.329 266.254 281.919C262.782 278.509 258.69 275.812 253.978 273.828C249.328 271.844 244.368 270.852 239.098 270.852C233.89 270.852 228.93 271.844 224.218 273.828C219.568 275.812 215.476 278.509 211.942 281.919C208.47 285.329 205.711 289.328 203.665 293.916ZM220.87 316.236C219.878 313.818 219.382 311.245 219.382 308.517C219.382 305.789 219.878 303.216 220.87 300.798C221.924 298.38 223.35 296.303 225.148 294.567C226.946 292.769 229.023 291.374 231.379 290.382C233.797 289.328 236.37 288.801 239.098 288.801C241.888 288.801 244.461 289.328 246.817 290.382C249.235 291.374 251.312 292.769 253.048 294.567C254.846 296.303 256.241 298.38 257.233 300.798C258.287 303.216 258.814 305.789 258.814 308.517C258.814 311.245 258.287 313.818 257.233 316.236C256.241 318.654 254.846 320.762 253.048 322.56C251.312 324.296 249.235 325.691 246.817 326.745C244.461 327.737 241.888 328.233 239.098 328.233C236.37 328.233 233.797 327.737 231.379 326.745C229.023 325.691 226.946 324.296 225.148 322.56C223.35 320.762 221.924 318.654 220.87 316.236ZM365.998 272.247H302.2V290.289H324.799V344.787H343.399V290.289H365.998V272.247ZM412.724 344.787V272.247H394.124V344.787H412.724ZM445.256 272.247V344.787H463.763V310.656L478.829 341.997H491.012L506.078 310.656V344.787H524.585V272.247H505.892L484.874 318.096L463.949 272.247H445.256ZM612.853 272.247H557.146V344.787H612.853V326.838H575.746V317.538H606.25V300.705H575.746V290.289H612.853V272.247ZM54.246 410.247H20.58V482.787H54.246C59.888 482.787 64.848 481.826 69.126 479.904C73.466 477.982 77.062 475.378 79.914 472.092C82.766 468.806 84.905 464.962 86.331 460.56C87.819 456.158 88.563 451.477 88.563 446.517C88.563 441.619 87.819 436.969 86.331 432.567C84.905 428.165 82.766 424.321 79.914 421.035C77.062 417.687 73.466 415.052 69.126 413.13C64.848 411.208 59.888 410.247 54.246 410.247ZM39.18 464.838V428.289H52.851C58.431 428.289 62.647 429.963 65.499 433.311C68.351 436.659 69.777 441.061 69.777 446.517C69.777 449.245 69.405 451.725 68.661 453.957C67.979 456.189 66.925 458.111 65.499 459.723C64.073 461.335 62.306 462.606 60.198 463.536C58.09 464.404 55.641 464.838 52.851 464.838H39.18ZM185.097 482.787L155.802 410.247H137.388L108 482.787H128.274L132.273 472.185H160.824L164.823 482.787H185.097ZM138.597 455.352L146.595 434.055L154.5 455.352H138.597ZM244.042 410.247L227.953 436.566L211.957 410.247H190.102L218.746 456.189V482.787H237.253V456.189L265.99 410.247H244.042Z" fill="white"/>
</svg>
