<svg width="461" height="262" viewBox="0 0 461 262" fill="none" xmlns="http://www.w3.org/2000/svg">
<path fill-rule="evenodd" clip-rule="evenodd" d="M253 0H0V262H253V0ZM64.296 117.52H43.24V126.816H53.824V128.048C52.7787 129.579 51.4533 130.792 49.848 131.688C48.2427 132.584 46.4507 133.032 44.472 133.032C42.8293 133.032 41.28 132.733 39.824 132.136C38.368 131.501 37.0987 130.661 36.016 129.616C34.9707 128.533 34.1307 127.264 33.496 125.808C32.8987 124.352 32.6 122.803 32.6 121.16C32.6 119.517 32.8987 117.968 33.496 116.512C34.1307 115.056 34.9707 113.805 36.016 112.76C37.0987 111.677 38.368 110.837 39.824 110.24C41.28 109.605 42.8293 109.288 44.472 109.288C46.376 109.288 48.1307 109.699 49.736 110.52C51.3787 111.304 52.7413 112.387 53.824 113.768L62.952 107.608C60.824 104.845 58.1547 102.643 54.944 101C51.7333 99.32 48.2427 98.48 44.472 98.48C41.2987 98.48 38.312 99.0773 35.512 100.272C32.712 101.467 30.248 103.091 28.12 105.144C26.0293 107.197 24.368 109.605 23.136 112.368C21.904 115.093 21.288 118.024 21.288 121.16C21.288 124.296 21.904 127.245 23.136 130.008C24.368 132.733 26.0293 135.123 28.12 137.176C30.248 139.229 32.712 140.853 35.512 142.048C38.312 143.243 41.2987 143.84 44.472 143.84C46.712 143.84 48.84 143.429 50.856 142.608C52.872 141.787 54.4213 140.555 55.504 138.912V143H64.296V117.52ZM116.349 99.32H82.8053V143H116.349V132.192H94.0053V126.592H112.373V116.456H94.0053V110.184H116.349V99.32ZM134.649 99.32V143H145.793V122.448L154.865 141.32H162.201L171.273 122.448V143H182.417V99.32H171.161L158.505 126.928L145.905 99.32H134.649ZM201.8 112.368C200.568 115.093 199.952 118.024 199.952 121.16C199.952 124.296 200.568 127.245 201.8 130.008C203.032 132.733 204.693 135.123 206.784 137.176C208.912 139.229 211.376 140.853 214.176 142.048C217.013 143.243 220 143.84 223.136 143.84C226.309 143.84 229.296 143.243 232.096 142.048C234.933 140.853 237.397 139.229 239.488 137.176C241.616 135.123 243.277 132.733 244.472 130.008C245.704 127.245 246.32 124.296 246.32 121.16C246.32 118.024 245.704 115.093 244.472 112.368C243.277 109.605 241.616 107.197 239.488 105.144C237.397 103.091 234.933 101.467 232.096 100.272C229.296 99.0773 226.309 98.48 223.136 98.48C220 98.48 217.013 99.0773 214.176 100.272C211.376 101.467 208.912 103.091 206.784 105.144C204.693 107.197 203.032 109.605 201.8 112.368ZM212.16 125.808C211.563 124.352 211.264 122.803 211.264 121.16C211.264 119.517 211.563 117.968 212.16 116.512C212.795 115.056 213.653 113.805 214.736 112.76C215.819 111.677 217.069 110.837 218.488 110.24C219.944 109.605 221.493 109.288 223.136 109.288C224.816 109.288 226.365 109.605 227.784 110.24C229.24 110.837 230.491 111.677 231.536 112.76C232.619 113.805 233.459 115.056 234.056 116.512C234.691 117.968 235.008 119.517 235.008 121.16C235.008 122.803 234.691 124.352 234.056 125.808C233.459 127.264 232.619 128.533 231.536 129.616C230.491 130.661 229.24 131.501 227.784 132.136C226.365 132.733 224.816 133.032 223.136 133.032C221.493 133.032 219.944 132.733 218.488 132.136C217.069 131.501 215.819 130.661 214.736 129.616C213.653 128.533 212.795 127.264 212.16 125.808ZM303.973 143V99.32H292.773V116.288H274.965V99.32H263.821V143H274.965V126.76H292.773V143H303.973ZM357.138 99.32H323.594V143H357.138V132.192H334.794V126.592H353.162V116.456H334.794V110.184H357.138V99.32ZM386.582 99.32H375.438V143H407.526V132.192H386.582V99.32ZM443.757 99.32H424.493V143H435.693V133.088H443.757C446.669 133.088 449.189 132.64 451.317 131.744C453.482 130.811 455.274 129.579 456.693 128.048C458.111 126.48 459.157 124.669 459.829 122.616C460.538 120.563 460.893 118.379 460.893 116.064C460.893 113.861 460.538 111.752 459.829 109.736C459.157 107.72 458.111 105.947 456.693 104.416C455.274 102.848 453.482 101.616 451.317 100.72C449.189 99.7867 446.669 99.32 443.757 99.32ZM435.693 122.896V109.512H443.141C444.298 109.512 445.287 109.699 446.109 110.072C446.93 110.408 447.602 110.893 448.125 111.528C448.647 112.125 449.021 112.835 449.245 113.656C449.469 114.44 449.581 115.261 449.581 116.12C449.581 118.061 449.095 119.685 448.125 120.992C447.154 122.261 445.493 122.896 443.141 122.896H435.693Z" fill="white"/>
</svg>
