<svg width="717" height="540" viewBox="0 0 717 540" fill="none" xmlns="http://www.w3.org/2000/svg">
<path fill-rule="evenodd" clip-rule="evenodd" d="M392 0H0V540H392V0ZM100.817 235.415H68.105V249.857H84.548V251.771C82.924 254.149 80.865 256.034 78.371 257.426C75.877 258.818 73.093 259.514 70.019 259.514C67.467 259.514 65.06 259.05 62.798 258.122C60.536 257.136 58.564 255.831 56.882 254.207C55.258 252.525 53.953 250.553 52.967 248.291C52.039 246.029 51.575 243.622 51.575 241.07C51.575 238.518 52.039 236.111 52.967 233.849C53.953 231.587 55.258 229.644 56.882 228.02C58.564 226.338 60.536 225.033 62.798 224.105C65.06 223.119 67.467 222.626 70.019 222.626C72.977 222.626 75.703 223.264 78.197 224.54C80.749 225.758 82.866 227.44 84.548 229.586L98.729 220.016C95.423 215.724 91.276 212.302 86.288 209.75C81.3 207.14 75.877 205.835 70.019 205.835C65.089 205.835 60.449 206.763 56.099 208.619C51.749 210.475 47.921 212.998 44.615 216.188C41.367 219.378 38.786 223.119 36.872 227.411C34.958 231.645 34.001 236.198 34.001 241.07C34.001 245.942 34.958 250.524 36.872 254.816C38.786 259.05 41.367 262.762 44.615 265.952C47.921 269.142 51.749 271.665 56.099 273.521C60.449 275.377 65.089 276.305 70.019 276.305C73.499 276.305 76.805 275.667 79.937 274.391C83.069 273.115 85.476 271.201 87.158 268.649V275H100.817V235.415ZM181.686 207.14H129.573V275H181.686V258.209H146.973V249.509H175.509V233.762H146.973V224.018H181.686V207.14ZM210.116 207.14V275H227.429V243.071L241.523 272.39H252.92L267.014 243.071V275H284.327V207.14H266.84L247.178 250.031L227.603 207.14H210.116ZM314.439 227.411C312.525 231.645 311.568 236.198 311.568 241.07C311.568 245.942 312.525 250.524 314.439 254.816C316.353 259.05 318.934 262.762 322.182 265.952C325.488 269.142 329.316 271.665 333.666 273.521C338.074 275.377 342.714 276.305 347.586 276.305C352.516 276.305 357.156 275.377 361.506 273.521C365.914 271.665 369.742 269.142 372.99 265.952C376.296 262.762 378.877 259.05 380.733 254.816C382.647 250.524 383.604 245.942 383.604 241.07C383.604 236.198 382.647 231.645 380.733 227.411C378.877 223.119 376.296 219.378 372.99 216.188C369.742 212.998 365.914 210.475 361.506 208.619C357.156 206.763 352.516 205.835 347.586 205.835C342.714 205.835 338.074 206.763 333.666 208.619C329.316 210.475 325.488 212.998 322.182 216.188C318.934 219.378 316.353 223.119 314.439 227.411ZM330.534 248.291C329.606 246.029 329.142 243.622 329.142 241.07C329.142 238.518 329.606 236.111 330.534 233.849C331.52 231.587 332.854 229.644 334.536 228.02C336.218 226.338 338.161 225.033 340.365 224.105C342.627 223.119 345.034 222.626 347.586 222.626C350.196 222.626 352.603 223.119 354.807 224.105C357.069 225.033 359.012 226.338 360.636 228.02C362.318 229.644 363.623 231.587 364.551 233.849C365.537 236.111 366.03 238.518 366.03 241.07C366.03 243.622 365.537 246.029 364.551 248.291C363.623 250.553 362.318 252.525 360.636 254.207C359.012 255.831 357.069 257.136 354.807 258.122C352.603 259.05 350.196 259.514 347.586 259.514C345.034 259.514 342.627 259.05 340.365 258.122C338.161 257.136 336.218 255.831 334.536 254.207C332.854 252.525 331.52 250.553 330.534 248.291ZM473.172 275V207.14H455.772V233.501H428.106V207.14H410.793V275H428.106V249.77H455.772V275H473.172ZM555.769 207.14H503.656V275H555.769V258.209H521.056V249.509H549.592V233.762H521.056V224.018H555.769V207.14ZM601.512 207.14H584.198V275H634.049V258.209H601.512V207.14ZM690.336 207.14H660.408V275H677.808V259.601H690.336C694.86 259.601 698.775 258.905 702.081 257.513C705.445 256.063 708.229 254.149 710.433 251.771C712.637 249.335 714.261 246.522 715.305 243.332C716.407 240.142 716.958 236.749 716.958 233.153C716.958 229.731 716.407 226.454 715.305 223.322C714.261 220.19 712.637 217.435 710.433 215.057C708.229 212.621 705.445 210.707 702.081 209.315C698.775 207.865 694.86 207.14 690.336 207.14ZM677.808 243.767V222.974H689.379C691.177 222.974 692.714 223.264 693.99 223.844C695.266 224.366 696.31 225.12 697.122 226.106C697.934 227.034 698.514 228.136 698.862 229.412C699.21 230.63 699.384 231.906 699.384 233.24C699.384 236.256 698.63 238.779 697.122 240.809C695.615 242.781 693.034 243.767 689.379 243.767H677.808Z" fill="white"/>
</svg>
