<svg width="582" height="720" viewBox="0 0 582 720" fill="none" xmlns="http://www.w3.org/2000/svg">
<path fill-rule="evenodd" clip-rule="evenodd" d="M313 0H0V720H313V0ZM71.952 314.24H44.88V326.192H58.488V327.776C57.144 329.744 55.44 331.304 53.376 332.456C51.312 333.608 49.008 334.184 46.464 334.184C44.352 334.184 42.36 333.8 40.488 333.032C38.616 332.216 36.984 331.136 35.592 329.792C34.248 328.4 33.168 326.768 32.352 324.896C31.584 323.024 31.2 321.032 31.2 318.92C31.2 316.808 31.584 314.816 32.352 312.944C33.168 311.072 34.248 309.464 35.592 308.12C36.984 306.728 38.616 305.648 40.488 304.88C42.36 304.064 44.352 303.656 46.464 303.656C48.912 303.656 51.168 304.184 53.232 305.24C55.344 306.248 57.096 307.64 58.488 309.416L70.224 301.496C67.488 297.944 64.056 295.112 59.928 293C55.8 290.84 51.312 289.76 46.464 289.76C42.384 289.76 38.544 290.528 34.944 292.064C31.344 293.6 28.176 295.688 25.44 298.328C22.752 300.968 20.616 304.064 19.032 307.616C17.448 311.12 16.656 314.888 16.656 318.92C16.656 322.952 17.448 326.744 19.032 330.296C20.616 333.8 22.752 336.872 25.44 339.512C28.176 342.152 31.344 344.24 34.944 345.776C38.544 347.312 42.384 348.08 46.464 348.08C49.344 348.08 52.08 347.552 54.672 346.496C57.264 345.44 59.256 343.856 60.648 341.744V347H71.952V314.24ZM138.878 290.84H95.7497V347H138.878V333.104H110.15V325.904H133.766V312.872H110.15V304.808H138.878V290.84ZM162.406 290.84V347H176.734V320.576L188.398 344.84H197.83L209.494 320.576V347H223.822V290.84H209.35L193.078 326.336L176.878 290.84H162.406ZM248.743 307.616C247.159 311.12 246.367 314.888 246.367 318.92C246.367 322.952 247.159 326.744 248.743 330.296C250.327 333.8 252.463 336.872 255.151 339.512C257.887 342.152 261.055 344.24 264.655 345.776C268.303 347.312 272.143 348.08 276.175 348.08C280.255 348.08 284.095 347.312 287.695 345.776C291.343 344.24 294.511 342.152 297.199 339.512C299.935 336.872 302.071 333.8 303.607 330.296C305.191 326.744 305.983 322.952 305.983 318.92C305.983 314.888 305.191 311.12 303.607 307.616C302.071 304.064 299.935 300.968 297.199 298.328C294.511 295.688 291.343 293.6 287.695 292.064C284.095 290.528 280.255 289.76 276.175 289.76C272.143 289.76 268.303 290.528 264.655 292.064C261.055 293.6 257.887 295.688 255.151 298.328C252.463 300.968 250.327 304.064 248.743 307.616ZM262.063 324.896C261.295 323.024 260.911 321.032 260.911 318.92C260.911 316.808 261.295 314.816 262.063 312.944C262.879 311.072 263.983 309.464 265.375 308.12C266.767 306.728 268.375 305.648 270.199 304.88C272.071 304.064 274.063 303.656 276.175 303.656C278.335 303.656 280.327 304.064 282.151 304.88C284.023 305.648 285.631 306.728 286.975 308.12C288.367 309.464 289.447 311.072 290.215 312.944C291.031 314.816 291.439 316.808 291.439 318.92C291.439 321.032 291.031 323.024 290.215 324.896C289.447 326.768 288.367 328.4 286.975 329.792C285.631 331.136 284.023 332.216 282.151 333.032C280.327 333.8 278.335 334.184 276.175 334.184C274.063 334.184 272.071 333.8 270.199 333.032C268.375 332.216 266.767 331.136 265.375 329.792C263.983 328.4 262.879 326.768 262.063 324.896ZM380.108 347V290.84H365.708V312.656H342.812V290.84H328.484V347H342.812V326.12H365.708V347H380.108ZM448.464 290.84H405.336V347H448.464V333.104H419.736V325.904H443.352V312.872H419.736V304.808H448.464V290.84ZM486.32 290.84H471.992V347H513.248V333.104H486.32V290.84ZM559.83 290.84H535.062V347H549.462V334.256H559.83C563.574 334.256 566.814 333.68 569.55 332.528C572.334 331.328 574.638 329.744 576.462 327.776C578.286 325.76 579.63 323.432 580.494 320.792C581.406 318.152 581.862 315.344 581.862 312.368C581.862 309.536 581.406 306.824 580.494 304.232C579.63 301.64 578.286 299.36 576.462 297.392C574.638 295.376 572.334 293.792 569.55 292.64C566.814 291.44 563.574 290.84 559.83 290.84ZM549.462 321.152V303.944H559.038C560.526 303.944 561.798 304.184 562.854 304.664C563.91 305.096 564.774 305.72 565.446 306.536C566.118 307.304 566.598 308.216 566.886 309.272C567.174 310.28 567.318 311.336 567.318 312.44C567.318 314.936 566.694 317.024 565.446 318.704C564.198 320.336 562.062 321.152 559.038 321.152H549.462Z" fill="white"/>
</svg>
