<svg width="762" height="540" viewBox="0 0 762 540" fill="none" xmlns="http://www.w3.org/2000/svg">
<path fill-rule="evenodd" clip-rule="evenodd" d="M-15 0H381V540H-15V0ZM22.28 207.369H39.792V259.025H72.704V276.009H22.28V207.369ZM96.1099 241.689C96.1099 236.761 97.0779 232.155 99.0139 227.873C100.95 223.531 103.561 219.747 106.846 216.521C110.19 213.294 114.062 210.742 118.462 208.865C122.921 206.987 127.614 206.049 132.542 206.049C137.529 206.049 142.222 206.987 146.622 208.865C151.081 210.742 154.953 213.294 158.238 216.521C161.582 219.747 164.193 223.531 166.07 227.873C168.006 232.155 168.974 236.761 168.974 241.689C168.974 246.617 168.006 251.251 166.07 255.593C164.193 259.875 161.582 263.63 158.238 266.857C154.953 270.083 151.081 272.635 146.622 274.513C142.222 276.39 137.529 277.329 132.542 277.329C127.614 277.329 122.921 276.39 118.462 274.513C114.062 272.635 110.19 270.083 106.846 266.857C103.561 263.63 100.95 259.875 99.0139 255.593C97.0779 251.251 96.1099 246.617 96.1099 241.689ZM113.886 241.689C113.886 244.27 114.355 246.705 115.294 248.993C116.291 251.281 117.641 253.275 119.342 254.977C121.043 256.619 123.009 257.939 125.238 258.937C127.526 259.875 129.961 260.345 132.542 260.345C135.182 260.345 137.617 259.875 139.846 258.937C142.134 257.939 144.099 256.619 145.742 254.977C147.443 253.275 148.763 251.281 149.702 248.993C150.699 246.705 151.198 244.27 151.198 241.689C151.198 239.107 150.699 236.673 149.702 234.385C148.763 232.097 147.443 230.131 145.742 228.489C144.099 226.787 142.134 225.467 139.846 224.529C137.617 223.531 135.182 223.033 132.542 223.033C129.961 223.033 127.526 223.531 125.238 224.529C123.009 225.467 121.043 226.787 119.342 228.489C117.641 230.131 116.291 232.097 115.294 234.385C114.355 236.673 113.886 239.107 113.886 241.689ZM196.475 207.369H211.435L242.059 245.737V207.369H259.571V276.009H244.699L214.075 237.729V276.009H196.475V207.369ZM321.645 235.969H354.733V276.009H340.917V269.585C339.216 272.166 336.781 274.102 333.613 275.393C330.445 276.683 327.101 277.329 323.581 277.329C318.594 277.329 313.901 276.39 309.501 274.513C305.101 272.635 301.229 270.083 297.885 266.857C294.6 263.63 291.989 259.875 290.053 255.593C288.117 251.251 287.149 246.617 287.149 241.689C287.149 236.761 288.117 232.155 290.053 227.873C291.989 223.531 294.6 219.747 297.885 216.521C301.229 213.294 305.101 210.742 309.501 208.865C313.901 206.987 318.594 206.049 323.581 206.049C329.506 206.049 334.992 207.369 340.037 210.009C345.082 212.59 349.277 216.051 352.621 220.393L338.277 230.073C336.576 227.902 334.434 226.201 331.853 224.969C329.33 223.678 326.573 223.033 323.581 223.033C321 223.033 318.565 223.531 316.277 224.529C313.989 225.467 311.994 226.787 310.293 228.489C308.65 230.131 307.33 232.097 306.333 234.385C305.394 236.673 304.925 239.107 304.925 241.689C304.925 244.27 305.394 246.705 306.333 248.993C307.33 251.281 308.65 253.275 310.293 254.977C311.994 256.619 313.989 257.939 316.277 258.937C318.565 259.875 321 260.345 323.581 260.345C326.69 260.345 329.506 259.641 332.029 258.233C334.552 256.825 336.634 254.918 338.277 252.513V250.577H321.645V235.969ZM428.764 207.369H446.276V259.025H479.188V276.009H428.764V207.369ZM502.594 241.689C502.594 236.761 503.562 232.155 505.498 227.873C507.434 223.531 510.045 219.747 513.33 216.521C516.674 213.294 520.546 210.742 524.946 208.865C529.405 206.987 534.098 206.049 539.026 206.049C544.013 206.049 548.706 206.987 553.106 208.865C557.565 210.742 561.437 213.294 564.722 216.521C568.066 219.747 570.677 223.531 572.554 227.873C574.49 232.155 575.458 236.761 575.458 241.689C575.458 246.617 574.49 251.251 572.554 255.593C570.677 259.875 568.066 263.63 564.722 266.857C561.437 270.083 557.565 272.635 553.106 274.513C548.706 276.39 544.013 277.329 539.026 277.329C534.098 277.329 529.405 276.39 524.946 274.513C520.546 272.635 516.674 270.083 513.33 266.857C510.045 263.63 507.434 259.875 505.498 255.593C503.562 251.251 502.594 246.617 502.594 241.689ZM520.37 241.689C520.37 244.27 520.84 246.705 521.778 248.993C522.776 251.281 524.125 253.275 525.826 254.977C527.528 256.619 529.493 257.939 531.722 258.937C534.01 259.875 536.445 260.345 539.026 260.345C541.666 260.345 544.101 259.875 546.33 258.937C548.618 257.939 550.584 256.619 552.226 254.977C553.928 253.275 555.248 251.281 556.186 248.993C557.184 246.705 557.682 244.27 557.682 241.689C557.682 239.107 557.184 236.673 556.186 234.385C555.248 232.097 553.928 230.131 552.226 228.489C550.584 226.787 548.618 225.467 546.33 224.529C544.101 223.531 541.666 223.033 539.026 223.033C536.445 223.033 534.01 223.531 531.722 224.529C529.493 225.467 527.528 226.787 525.826 228.489C524.125 230.131 522.776 232.097 521.778 234.385C520.84 236.673 520.37 239.107 520.37 241.689ZM602.96 207.369H617.92L648.544 245.737V207.369H666.056V276.009H651.184L620.56 237.729V276.009H602.96V207.369ZM728.129 235.969H761.217V276.009H747.401V269.585C745.7 272.166 743.265 274.102 740.097 275.393C736.929 276.683 733.585 277.329 730.065 277.329C725.079 277.329 720.385 276.39 715.985 274.513C711.585 272.635 707.713 270.083 704.369 266.857C701.084 263.63 698.473 259.875 696.537 255.593C694.601 251.251 693.633 246.617 693.633 241.689C693.633 236.761 694.601 232.155 696.537 227.873C698.473 223.531 701.084 219.747 704.369 216.521C707.713 213.294 711.585 210.742 715.985 208.865C720.385 206.987 725.079 206.049 730.065 206.049C735.991 206.049 741.476 207.369 746.521 210.009C751.567 212.59 755.761 216.051 759.105 220.393L744.761 230.073C743.06 227.902 740.919 226.201 738.337 224.969C735.815 223.678 733.057 223.033 730.065 223.033C727.484 223.033 725.049 223.531 722.761 224.529C720.473 225.467 718.479 226.787 716.777 228.489C715.135 230.131 713.815 232.097 712.817 234.385C711.879 236.673 711.409 239.107 711.409 241.689C711.409 244.27 711.879 246.705 712.817 248.993C713.815 251.281 715.135 253.275 716.777 254.977C718.479 256.619 720.473 257.939 722.761 258.937C725.049 259.875 727.484 260.345 730.065 260.345C733.175 260.345 735.991 259.641 738.513 258.233C741.036 256.825 743.119 254.918 744.761 252.513V250.577H728.129V235.969ZM476.248 327.384C473.021 326.035 469.208 325.36 464.808 325.36H431.28V394H448.792V375.608H457.768L470.792 394H491.824L476.952 373.232C479.24 372.176 481.235 370.856 482.936 369.272C484.637 367.629 486.045 365.84 487.16 363.904C488.275 361.909 489.096 359.768 489.624 357.48C490.211 355.192 490.504 352.845 490.504 350.44C490.504 347.037 489.976 343.811 488.92 340.76C487.923 337.709 486.368 335.04 484.256 332.752C482.144 330.464 479.475 328.675 476.248 327.384ZM448.792 359.68V341.376H463.84C467.36 341.376 469.853 342.256 471.32 344.016C472.787 345.776 473.52 347.976 473.52 350.616C473.52 351.789 473.344 352.933 472.992 354.048C472.64 355.163 472.083 356.131 471.32 356.952C470.557 357.773 469.56 358.448 468.328 358.976C467.096 359.445 465.6 359.68 463.84 359.68H448.792ZM518.936 394H536.536V325.36H518.936V394ZM599.175 325.36H567.319V394H599.175C604.514 394 609.207 393.091 613.255 391.272C617.362 389.453 620.764 386.989 623.463 383.88C626.162 380.771 628.186 377.133 629.535 372.968C630.943 368.803 631.647 364.373 631.647 359.68C631.647 355.045 630.943 350.645 629.535 346.48C628.186 342.315 626.162 338.677 623.463 335.568C620.764 332.4 617.362 329.907 613.255 328.088C609.207 326.269 604.514 325.36 599.175 325.36ZM584.919 377.016V342.432H597.855C603.135 342.432 607.124 344.016 609.823 347.184C612.522 350.352 613.871 354.517 613.871 359.68C613.871 362.261 613.519 364.608 612.815 366.72C612.17 368.832 611.172 370.651 609.823 372.176C608.474 373.701 606.802 374.904 604.807 375.784C602.812 376.605 600.495 377.016 597.855 377.016H584.919ZM712.242 325.36H659.53V394H712.242V377.016H677.13V368.216H705.994V352.288H677.13V342.432H712.242V325.36Z" fill="white"/>
</svg>
