<svg width="460" height="262" viewBox="0 0 460 262" fill="none" xmlns="http://www.w3.org/2000/svg">
<path fill-rule="evenodd" clip-rule="evenodd" d="M0 0H242.124V262H0V0ZM23.1302 93.4488H33.4782V123.973H52.9262V134.009H23.1302V93.4488ZM66.757 113.729C66.757 110.817 67.329 108.095 68.473 105.565C69.617 102.999 71.1597 100.763 73.101 98.8568C75.077 96.9501 77.365 95.4421 79.965 94.3328C82.5997 93.2235 85.373 92.6688 88.285 92.6688C91.2317 92.6688 94.005 93.2235 96.605 94.3328C99.2397 95.4421 101.528 96.9501 103.469 98.8568C105.445 100.763 106.988 102.999 108.097 105.565C109.241 108.095 109.813 110.817 109.813 113.729C109.813 116.641 109.241 119.379 108.097 121.945C106.988 124.475 105.445 126.694 103.469 128.601C101.528 130.507 99.2397 132.015 96.605 133.125C94.005 134.234 91.2317 134.789 88.285 134.789C85.373 134.789 82.5997 134.234 79.965 133.125C77.365 132.015 75.077 130.507 73.101 128.601C71.1597 126.694 69.617 124.475 68.473 121.945C67.329 119.379 66.757 116.641 66.757 113.729ZM77.261 113.729C77.261 115.254 77.5383 116.693 78.093 118.045C78.6824 119.397 79.4797 120.575 80.485 121.581C81.4903 122.551 82.6517 123.331 83.969 123.921C85.321 124.475 86.7597 124.753 88.285 124.753C89.845 124.753 91.2837 124.475 92.601 123.921C93.953 123.331 95.1143 122.551 96.085 121.581C97.0903 120.575 97.8703 119.397 98.425 118.045C99.0144 116.693 99.309 115.254 99.309 113.729C99.309 112.203 99.0144 110.765 98.425 109.413C97.8703 108.061 97.0903 106.899 96.085 105.929C95.1143 104.923 93.953 104.143 92.601 103.589C91.2837 102.999 89.845 102.705 88.285 102.705C86.7597 102.705 85.321 102.999 83.969 103.589C82.6517 104.143 81.4903 104.923 80.485 105.929C79.4797 106.899 78.6824 108.061 78.093 109.413C77.5383 110.765 77.261 112.203 77.261 113.729ZM126.064 93.4488H134.904L153 116.121V93.4488H163.348V134.009H154.56L136.464 111.389V134.009H126.064V93.4488ZM200.028 110.349H219.58V134.009H211.416V130.213C210.41 131.738 208.972 132.882 207.1 133.645C205.228 134.407 203.252 134.789 201.172 134.789C198.225 134.789 195.452 134.234 192.852 133.125C190.252 132.015 187.964 130.507 185.988 128.601C184.046 126.694 182.504 124.475 181.36 121.945C180.216 119.379 179.644 116.641 179.644 113.729C179.644 110.817 180.216 108.095 181.36 105.565C182.504 102.999 184.046 100.763 185.988 98.8568C187.964 96.9501 190.252 95.4421 192.852 94.3328C195.452 93.2235 198.225 92.6688 201.172 92.6688C204.673 92.6688 207.914 93.4488 210.896 95.0088C213.877 96.5341 216.356 98.5795 218.332 101.145L209.856 106.865C208.85 105.582 207.585 104.577 206.06 103.849C204.569 103.086 202.94 102.705 201.172 102.705C199.646 102.705 198.208 102.999 196.856 103.589C195.504 104.143 194.325 104.923 193.32 105.929C192.349 106.899 191.569 108.061 190.98 109.413C190.425 110.765 190.148 112.203 190.148 113.729C190.148 115.254 190.425 116.693 190.98 118.045C191.569 119.397 192.349 120.575 193.32 121.581C194.325 122.551 195.504 123.331 196.856 123.921C198.208 124.475 199.646 124.753 201.172 124.753C203.009 124.753 204.673 124.337 206.164 123.505C207.654 122.673 208.885 121.546 209.856 120.125V118.981H200.028V110.349ZM263.326 93.4488H273.674V123.973H293.122V134.009H263.326V93.4488ZM306.952 113.729C306.952 110.817 307.524 108.095 308.668 105.565C309.812 102.999 311.355 100.763 313.296 98.8568C315.272 96.9501 317.56 95.4421 320.16 94.3328C322.795 93.2235 325.568 92.6688 328.48 92.6688C331.427 92.6688 334.2 93.2235 336.8 94.3328C339.435 95.4421 341.723 96.9501 343.664 98.8568C345.64 100.763 347.183 102.999 348.292 105.565C349.436 108.095 350.008 110.817 350.008 113.729C350.008 116.641 349.436 119.379 348.292 121.945C347.183 124.475 345.64 126.694 343.664 128.601C341.723 130.507 339.435 132.015 336.8 133.125C334.2 134.234 331.427 134.789 328.48 134.789C325.568 134.789 322.795 134.234 320.16 133.125C317.56 132.015 315.272 130.507 313.296 128.601C311.355 126.694 309.812 124.475 308.668 121.945C307.524 119.379 306.952 116.641 306.952 113.729ZM317.456 113.729C317.456 115.254 317.734 116.693 318.288 118.045C318.878 119.397 319.675 120.575 320.68 121.581C321.686 122.551 322.847 123.331 324.164 123.921C325.516 124.475 326.955 124.753 328.48 124.753C330.04 124.753 331.479 124.475 332.796 123.921C334.148 123.331 335.31 122.551 336.28 121.581C337.286 120.575 338.066 119.397 338.62 118.045C339.21 116.693 339.504 115.254 339.504 113.729C339.504 112.203 339.21 110.765 338.62 109.413C338.066 108.061 337.286 106.899 336.28 105.929C335.31 104.923 334.148 104.143 332.796 103.589C331.479 102.999 330.04 102.705 328.48 102.705C326.955 102.705 325.516 102.999 324.164 103.589C322.847 104.143 321.686 104.923 320.68 105.929C319.675 106.899 318.878 108.061 318.288 109.413C317.734 110.765 317.456 112.203 317.456 113.729ZM366.259 93.4488H375.099L393.195 116.121V93.4488H403.543V134.009H394.755L376.659 111.389V134.009H366.259V93.4488ZM440.223 110.349H459.775V134.009H451.611V130.213C450.606 131.738 449.167 132.882 447.295 133.645C445.423 134.407 443.447 134.789 441.367 134.789C438.42 134.789 435.647 134.234 433.047 133.125C430.447 132.015 428.159 130.507 426.183 128.601C424.242 126.694 422.699 124.475 421.555 121.945C420.411 119.379 419.839 116.641 419.839 113.729C419.839 110.817 420.411 108.095 421.555 105.565C422.699 102.999 424.242 100.763 426.183 98.8568C428.159 96.9501 430.447 95.4421 433.047 94.3328C435.647 93.2235 438.42 92.6688 441.367 92.6688C444.868 92.6688 448.11 93.4488 451.091 95.0088C454.072 96.5341 456.551 98.5795 458.527 101.145L450.051 106.865C449.046 105.582 447.78 104.577 446.255 103.849C444.764 103.086 443.135 102.705 441.367 102.705C439.842 102.705 438.403 102.999 437.051 103.589C435.699 104.143 434.52 104.923 433.515 105.929C432.544 106.899 431.764 108.061 431.175 109.413C430.62 110.765 430.343 112.203 430.343 113.729C430.343 115.254 430.62 116.693 431.175 118.045C431.764 119.397 432.544 120.575 433.515 121.581C434.52 122.551 435.699 123.331 437.051 123.921C438.403 124.475 439.842 124.753 441.367 124.753C443.204 124.753 444.868 124.337 446.359 123.505C447.85 122.673 449.08 121.546 450.051 120.125V118.981H440.223V110.349ZM289.692 169.636C287.785 168.839 285.532 168.44 282.932 168.44H263.12V209H273.468V198.132H278.772L286.468 209H298.896L290.108 196.728C291.46 196.104 292.639 195.324 293.644 194.388C294.649 193.417 295.481 192.36 296.14 191.216C296.799 190.037 297.284 188.772 297.596 187.42C297.943 186.068 298.116 184.681 298.116 183.26C298.116 181.249 297.804 179.343 297.18 177.54C296.591 175.737 295.672 174.16 294.424 172.808C293.176 171.456 291.599 170.399 289.692 169.636ZM273.468 188.72V177.904H282.36C284.44 177.904 285.913 178.424 286.78 179.464C287.647 180.504 288.08 181.804 288.08 183.364C288.08 184.057 287.976 184.733 287.768 185.392C287.56 186.051 287.231 186.623 286.78 187.108C286.329 187.593 285.74 187.992 285.012 188.304C284.284 188.581 283.4 188.72 282.36 188.72H273.468ZM314.917 209H325.317V168.44H314.917V209ZM362.331 168.44H343.507V209H362.331C365.485 209 368.259 208.463 370.651 207.388C373.077 206.313 375.088 204.857 376.683 203.02C378.277 201.183 379.473 199.033 380.271 196.572C381.103 194.111 381.519 191.493 381.519 188.72C381.519 185.981 381.103 183.381 380.271 180.92C379.473 178.459 378.277 176.309 376.683 174.472C375.088 172.6 373.077 171.127 370.651 170.052C368.259 168.977 365.485 168.44 362.331 168.44ZM353.907 198.964V178.528H361.551C364.671 178.528 367.028 179.464 368.623 181.336C370.217 183.208 371.015 185.669 371.015 188.72C371.015 190.245 370.807 191.632 370.391 192.88C370.009 194.128 369.42 195.203 368.623 196.104C367.825 197.005 366.837 197.716 365.659 198.236C364.48 198.721 363.111 198.964 361.551 198.964H353.907ZM429.143 168.44H397.995V209H429.143V198.964H408.395V193.764H425.451V184.352H408.395V178.528H429.143V168.44Z" fill="white"/>
</svg>
