<svg width="300" height="481" viewBox="0 0 300 481" fill="none" xmlns="http://www.w3.org/2000/svg">
<path fill-rule="evenodd" clip-rule="evenodd" d="M0 0H161V481H0V0ZM21.9903 176.269H28.5573V195.64H40.8993V202.009H21.9903V176.269ZM49.6765 189.139C49.6765 187.291 50.0395 185.564 50.7655 183.958C51.4915 182.33 52.4705 180.911 53.7025 179.701C54.9565 178.491 56.4085 177.534 58.0585 176.83C59.7305 176.126 61.4905 175.774 63.3385 175.774C65.2085 175.774 66.9685 176.126 68.6185 176.83C70.2905 177.534 71.7425 178.491 72.9745 179.701C74.2285 180.911 75.2075 182.33 75.9115 183.958C76.6375 185.564 77.0005 187.291 77.0005 189.139C77.0005 190.987 76.6375 192.725 75.9115 194.353C75.2075 195.959 74.2285 197.367 72.9745 198.577C71.7425 199.787 70.2905 200.744 68.6185 201.448C66.9685 202.152 65.2085 202.504 63.3385 202.504C61.4905 202.504 59.7305 202.152 58.0585 201.448C56.4085 200.744 54.9565 199.787 53.7025 198.577C52.4705 197.367 51.4915 195.959 50.7655 194.353C50.0395 192.725 49.6765 190.987 49.6765 189.139ZM56.3425 189.139C56.3425 190.107 56.5185 191.02 56.8705 191.878C57.2445 192.736 57.7505 193.484 58.3885 194.122C59.0265 194.738 59.7635 195.233 60.5995 195.607C61.4575 195.959 62.3705 196.135 63.3385 196.135C64.3285 196.135 65.2415 195.959 66.0775 195.607C66.9355 195.233 67.6725 194.738 68.2885 194.122C68.9265 193.484 69.4215 192.736 69.7735 191.878C70.1475 191.02 70.3345 190.107 70.3345 189.139C70.3345 188.171 70.1475 187.258 69.7735 186.4C69.4215 185.542 68.9265 184.805 68.2885 184.189C67.6725 183.551 66.9355 183.056 66.0775 182.704C65.2415 182.33 64.3285 182.143 63.3385 182.143C62.3705 182.143 61.4575 182.33 60.5995 182.704C59.7635 183.056 59.0265 183.551 58.3885 184.189C57.7505 184.805 57.2445 185.542 56.8705 186.4C56.5185 187.258 56.3425 188.171 56.3425 189.139ZM87.3135 176.269H92.9235L104.407 190.657V176.269H110.974V202.009H105.397L93.9135 187.654V202.009H87.3135V176.269ZM134.252 186.994H146.66V202.009H141.479V199.6C140.841 200.568 139.928 201.294 138.74 201.778C137.552 202.262 136.298 202.504 134.978 202.504C133.108 202.504 131.348 202.152 129.698 201.448C128.048 200.744 126.596 199.787 125.342 198.577C124.11 197.367 123.131 195.959 122.405 194.353C121.679 192.725 121.316 190.987 121.316 189.139C121.316 187.291 121.679 185.564 122.405 183.958C123.131 182.33 124.11 180.911 125.342 179.701C126.596 178.491 128.048 177.534 129.698 176.83C131.348 176.126 133.108 175.774 134.978 175.774C137.2 175.774 139.257 176.269 141.149 177.259C143.041 178.227 144.614 179.525 145.868 181.153L140.489 184.783C139.851 183.969 139.048 183.331 138.08 182.869C137.134 182.385 136.1 182.143 134.978 182.143C134.01 182.143 133.097 182.33 132.239 182.704C131.381 183.056 130.633 183.551 129.995 184.189C129.379 184.805 128.884 185.542 128.51 186.4C128.158 187.258 127.982 188.171 127.982 189.139C127.982 190.107 128.158 191.02 128.51 191.878C128.884 192.736 129.379 193.484 129.995 194.122C130.633 194.738 131.381 195.233 132.239 195.607C133.097 195.959 134.01 196.135 134.978 196.135C136.144 196.135 137.2 195.871 138.146 195.343C139.092 194.815 139.873 194.1 140.489 193.198V192.472H134.252V186.994ZM174.422 176.269H180.989V195.64H193.331V202.009H174.422V176.269ZM202.108 189.139C202.108 187.291 202.471 185.564 203.197 183.958C203.923 182.33 204.902 180.911 206.134 179.701C207.388 178.491 208.84 177.534 210.49 176.83C212.162 176.126 213.922 175.774 215.77 175.774C217.64 175.774 219.4 176.126 221.05 176.83C222.722 177.534 224.174 178.491 225.406 179.701C226.66 180.911 227.639 182.33 228.343 183.958C229.069 185.564 229.432 187.291 229.432 189.139C229.432 190.987 229.069 192.725 228.343 194.353C227.639 195.959 226.66 197.367 225.406 198.577C224.174 199.787 222.722 200.744 221.05 201.448C219.4 202.152 217.64 202.504 215.77 202.504C213.922 202.504 212.162 202.152 210.49 201.448C208.84 200.744 207.388 199.787 206.134 198.577C204.902 197.367 203.923 195.959 203.197 194.353C202.471 192.725 202.108 190.987 202.108 189.139ZM208.774 189.139C208.774 190.107 208.95 191.02 209.302 191.878C209.676 192.736 210.182 193.484 210.82 194.122C211.458 194.738 212.195 195.233 213.031 195.607C213.889 195.959 214.802 196.135 215.77 196.135C216.76 196.135 217.673 195.959 218.509 195.607C219.367 195.233 220.104 194.738 220.72 194.122C221.358 193.484 221.853 192.736 222.205 191.878C222.579 191.02 222.766 190.107 222.766 189.139C222.766 188.171 222.579 187.258 222.205 186.4C221.853 185.542 221.358 184.805 220.72 184.189C220.104 183.551 219.367 183.056 218.509 182.704C217.673 182.33 216.76 182.143 215.77 182.143C214.802 182.143 213.889 182.33 213.031 182.704C212.195 183.056 211.458 183.551 210.82 184.189C210.182 184.805 209.676 185.542 209.302 186.4C208.95 187.258 208.774 188.171 208.774 189.139ZM239.745 176.269H245.355L256.839 190.657V176.269H263.406V202.009H257.829L246.345 187.654V202.009H239.745V176.269ZM286.684 186.994H299.092V202.009H293.911V199.6C293.273 200.568 292.36 201.294 291.172 201.778C289.984 202.262 288.73 202.504 287.41 202.504C285.54 202.504 283.78 202.152 282.13 201.448C280.48 200.744 279.028 199.787 277.774 198.577C276.542 197.367 275.563 195.959 274.837 194.353C274.111 192.725 273.748 190.987 273.748 189.139C273.748 187.291 274.111 185.564 274.837 183.958C275.563 182.33 276.542 180.911 277.774 179.701C279.028 178.491 280.48 177.534 282.13 176.83C283.78 176.126 285.54 175.774 287.41 175.774C289.632 175.774 291.689 176.269 293.581 177.259C295.473 178.227 297.046 179.525 298.3 181.153L292.921 184.783C292.283 183.969 291.48 183.331 290.512 182.869C289.566 182.385 288.532 182.143 287.41 182.143C286.442 182.143 285.529 182.33 284.671 182.704C283.813 183.056 283.065 183.551 282.427 184.189C281.811 184.805 281.316 185.542 280.942 186.4C280.59 187.258 280.414 188.171 280.414 189.139C280.414 190.107 280.59 191.02 280.942 191.878C281.316 192.736 281.811 193.484 282.427 194.122C283.065 194.738 283.813 195.233 284.671 195.607C285.529 195.959 286.442 196.135 287.41 196.135C288.576 196.135 289.632 195.871 290.578 195.343C291.524 194.815 292.305 194.1 292.921 193.198V192.472H286.684V186.994ZM187.843 233.019C186.633 232.513 185.203 232.26 183.553 232.26H170.98V258H177.547V251.103H180.913L185.797 258H193.684L188.107 250.212C188.965 249.816 189.713 249.321 190.351 248.727C190.989 248.111 191.517 247.44 191.935 246.714C192.353 245.966 192.661 245.163 192.859 244.305C193.079 243.447 193.189 242.567 193.189 241.665C193.189 240.389 192.991 239.179 192.595 238.035C192.221 236.891 191.638 235.89 190.846 235.032C190.054 234.174 189.053 233.503 187.843 233.019ZM177.547 245.13V238.266H183.19C184.51 238.266 185.445 238.596 185.995 239.256C186.545 239.916 186.82 240.741 186.82 241.731C186.82 242.171 186.754 242.6 186.622 243.018C186.49 243.436 186.281 243.799 185.995 244.107C185.709 244.415 185.335 244.668 184.873 244.866C184.411 245.042 183.85 245.13 183.19 245.13H177.547ZM203.851 258H210.451V232.26H203.851V258ZM233.941 232.26H221.995V258H233.941C235.943 258 237.703 257.659 239.221 256.977C240.761 256.295 242.037 255.371 243.049 254.205C244.061 253.039 244.82 251.675 245.326 250.113C245.854 248.551 246.118 246.89 246.118 245.13C246.118 243.392 245.854 241.742 245.326 240.18C244.82 238.618 244.061 237.254 243.049 236.088C242.037 234.9 240.761 233.965 239.221 233.283C237.703 232.601 235.943 232.26 233.941 232.26ZM228.595 251.631V238.662H233.446C235.426 238.662 236.922 239.256 237.934 240.444C238.946 241.632 239.452 243.194 239.452 245.13C239.452 246.098 239.32 246.978 239.056 247.77C238.814 248.562 238.44 249.244 237.934 249.816C237.428 250.388 236.801 250.839 236.053 251.169C235.305 251.477 234.436 251.631 233.446 251.631H228.595ZM276.341 232.26H256.574V258H276.341V251.631H263.174V248.331H273.998V242.358H263.174V238.662H276.341V232.26Z" fill="white"/>
</svg>
