<svg width="616" height="720" viewBox="0 0 616 720" fill="none" xmlns="http://www.w3.org/2000/svg">
<path fill-rule="evenodd" clip-rule="evenodd" d="M0 0H312V720H0V0ZM19.26 290.629H33.389V332.306H59.943V346.009H19.26V290.629ZM78.8273 318.319C78.8273 314.343 79.6083 310.627 81.1703 307.172C82.7323 303.669 84.8387 300.616 87.4893 298.013C90.1873 295.409 93.3113 293.35 96.8613 291.836C100.459 290.321 104.245 289.564 108.221 289.564C112.245 289.564 116.031 290.321 119.581 291.836C123.179 293.35 126.303 295.409 128.953 298.013C131.651 300.616 133.758 303.669 135.272 307.172C136.834 310.627 137.615 314.343 137.615 318.319C137.615 322.295 136.834 326.034 135.272 329.537C133.758 332.992 131.651 336.021 128.953 338.625C126.303 341.228 123.179 343.287 119.581 344.802C116.031 346.316 112.245 347.074 108.221 347.074C104.245 347.074 100.459 346.316 96.8613 344.802C93.3113 343.287 90.1873 341.228 87.4893 338.625C84.8387 336.021 82.7323 332.992 81.1703 329.537C79.6083 326.034 78.8273 322.295 78.8273 318.319ZM93.1693 318.319C93.1693 320.401 93.548 322.366 94.3053 324.212C95.11 326.058 96.1987 327.667 97.5713 329.04C98.944 330.365 100.53 331.43 102.328 332.235C104.174 332.992 106.139 333.371 108.221 333.371C110.351 333.371 112.316 332.992 114.114 332.235C115.96 331.43 117.546 330.365 118.871 329.04C120.244 327.667 121.309 326.058 122.066 324.212C122.871 322.366 123.273 320.401 123.273 318.319C123.273 316.236 122.871 314.272 122.066 312.426C121.309 310.58 120.244 308.994 118.871 307.669C117.546 306.296 115.96 305.231 114.114 304.474C112.316 303.669 110.351 303.267 108.221 303.267C106.139 303.267 104.174 303.669 102.328 304.474C100.53 305.231 98.944 306.296 97.5713 307.669C96.1987 308.994 95.11 310.58 94.3053 312.426C93.548 314.272 93.1693 316.236 93.1693 318.319ZM159.804 290.629H171.874L196.582 321.585V290.629H210.711V346.009H198.712L174.004 315.124V346.009H159.804V290.629ZM260.793 313.704H287.489V346.009H276.342V340.826C274.969 342.908 273.005 344.47 270.449 345.512C267.893 346.553 265.195 347.074 262.355 347.074C258.332 347.074 254.545 346.316 250.995 344.802C247.445 343.287 244.321 341.228 241.623 338.625C238.972 336.021 236.866 332.992 235.304 329.537C233.742 326.034 232.961 322.295 232.961 318.319C232.961 314.343 233.742 310.627 235.304 307.172C236.866 303.669 238.972 300.616 241.623 298.013C244.321 295.409 247.445 293.35 250.995 291.836C254.545 290.321 258.332 289.564 262.355 289.564C267.136 289.564 271.561 290.629 275.632 292.759C279.703 294.841 283.087 297.634 285.785 301.137L274.212 308.947C272.839 307.195 271.112 305.823 269.029 304.829C266.994 303.787 264.769 303.267 262.355 303.267C260.272 303.267 258.308 303.669 256.462 304.474C254.616 305.231 253.007 306.296 251.634 307.669C250.309 308.994 249.244 310.58 248.439 312.426C247.682 314.272 247.303 316.236 247.303 318.319C247.303 320.401 247.682 322.366 248.439 324.212C249.244 326.058 250.309 327.667 251.634 329.04C253.007 330.365 254.616 331.43 256.462 332.235C258.308 332.992 260.272 333.371 262.355 333.371C264.864 333.371 267.136 332.803 269.171 331.667C271.206 330.531 272.887 328.992 274.212 327.052V325.49H260.793V313.704ZM347.219 290.629H361.348V332.306H387.902V346.009H347.219V290.629ZM406.786 318.319C406.786 314.343 407.567 310.627 409.129 307.172C410.691 303.669 412.798 300.616 415.448 298.013C418.146 295.409 421.27 293.35 424.82 291.836C428.418 290.321 432.204 289.564 436.18 289.564C440.204 289.564 443.99 290.321 447.54 291.836C451.138 293.35 454.262 295.409 456.912 298.013C459.61 300.616 461.717 303.669 463.231 307.172C464.793 310.627 465.574 314.343 465.574 318.319C465.574 322.295 464.793 326.034 463.231 329.537C461.717 332.992 459.61 336.021 456.912 338.625C454.262 341.228 451.138 343.287 447.54 344.802C443.99 346.316 440.204 347.074 436.18 347.074C432.204 347.074 428.418 346.316 424.82 344.802C421.27 343.287 418.146 341.228 415.448 338.625C412.798 336.021 410.691 332.992 409.129 329.537C407.567 326.034 406.786 322.295 406.786 318.319ZM421.128 318.319C421.128 320.401 421.507 322.366 422.264 324.212C423.069 326.058 424.158 327.667 425.53 329.04C426.903 330.365 428.489 331.43 430.287 332.235C432.133 332.992 434.098 333.371 436.18 333.371C438.31 333.371 440.275 332.992 442.073 332.235C443.919 331.43 445.505 330.365 446.83 329.04C448.203 327.667 449.268 326.058 450.025 324.212C450.83 322.366 451.232 320.401 451.232 318.319C451.232 316.236 450.83 314.272 450.025 312.426C449.268 310.58 448.203 308.994 446.83 307.669C445.505 306.296 443.919 305.231 442.073 304.474C440.275 303.669 438.31 303.267 436.18 303.267C434.098 303.267 432.133 303.669 430.287 304.474C428.489 305.231 426.903 306.296 425.53 307.669C424.158 308.994 423.069 310.58 422.264 312.426C421.507 314.272 421.128 316.236 421.128 318.319ZM487.763 290.629H499.833L524.541 321.585V290.629H538.67V346.009H526.671L501.963 315.124V346.009H487.763V290.629ZM588.752 313.704H615.448V346.009H604.301V340.826C602.928 342.908 600.964 344.47 598.408 345.512C595.852 346.553 593.154 347.074 590.314 347.074C586.291 347.074 582.504 346.316 578.954 344.802C575.404 343.287 572.28 341.228 569.582 338.625C566.931 336.021 564.825 332.992 563.263 329.537C561.701 326.034 560.92 322.295 560.92 318.319C560.92 314.343 561.701 310.627 563.263 307.172C564.825 303.669 566.931 300.616 569.582 298.013C572.28 295.409 575.404 293.35 578.954 291.836C582.504 290.321 586.291 289.564 590.314 289.564C595.095 289.564 599.52 290.629 603.591 292.759C607.662 294.841 611.046 297.634 613.744 301.137L602.171 308.947C600.798 307.195 599.071 305.823 596.988 304.829C594.953 303.787 592.728 303.267 590.314 303.267C588.231 303.267 586.267 303.669 584.421 304.474C582.575 305.231 580.966 306.296 579.593 307.669C578.268 308.994 577.203 310.58 576.398 312.426C575.641 314.272 575.262 316.236 575.262 318.319C575.262 320.401 575.641 322.366 576.398 324.212C577.203 326.058 578.268 327.667 579.593 329.04C580.966 330.365 582.575 331.43 584.421 332.235C586.267 332.992 588.231 333.371 590.314 333.371C592.823 333.371 595.095 332.803 597.13 331.667C599.165 330.531 600.846 328.992 602.171 327.052V325.49H588.752V313.704ZM386.541 410.253C383.938 409.164 380.861 408.62 377.311 408.62H350.26V464H364.389V449.161H371.631L382.139 464H399.108L387.109 447.244C388.955 446.392 390.564 445.327 391.937 444.049C393.31 442.724 394.446 441.28 395.345 439.718C396.244 438.109 396.907 436.381 397.333 434.535C397.806 432.689 398.043 430.796 398.043 428.855C398.043 426.11 397.617 423.506 396.765 421.045C395.96 418.584 394.706 416.43 393.002 414.584C391.298 412.738 389.144 411.294 386.541 410.253ZM364.389 436.31V421.542H376.53C379.37 421.542 381.382 422.252 382.565 423.672C383.748 425.092 384.34 426.867 384.34 428.997C384.34 429.944 384.198 430.867 383.914 431.766C383.63 432.665 383.18 433.446 382.565 434.109C381.95 434.772 381.145 435.316 380.151 435.742C379.157 436.121 377.95 436.31 376.53 436.31H364.389ZM420.983 464H435.183V408.62H420.983V464ZM485.721 408.62H460.019V464H485.721C490.028 464 493.815 463.266 497.081 461.799C500.394 460.332 503.139 458.344 505.317 455.835C507.494 453.326 509.127 450.392 510.216 447.031C511.352 443.67 511.92 440.097 511.92 436.31C511.92 432.571 511.352 429.021 510.216 425.66C509.127 422.299 507.494 419.365 505.317 416.856C503.139 414.3 500.394 412.288 497.081 410.821C493.815 409.354 490.028 408.62 485.721 408.62ZM474.219 450.297V422.394H484.656C488.916 422.394 492.134 423.672 494.312 426.228C496.489 428.784 497.578 432.145 497.578 436.31C497.578 438.393 497.294 440.286 496.726 441.99C496.205 443.694 495.4 445.161 494.312 446.392C493.223 447.623 491.874 448.593 490.265 449.303C488.655 449.966 486.786 450.297 484.656 450.297H474.219ZM576.945 408.62H534.416V464H576.945V450.297H548.616V443.197H571.904V430.346H548.616V422.394H576.945V408.62Z" fill="white"/>
</svg>
