<svg width="11" height="18" viewBox="0 0 11 18" fill="none" xmlns="http://www.w3.org/2000/svg">
<path d="M1.13435 0.874196C0.889503 1.11387 0.751953 1.43889 0.751953 1.77778C0.751953 2.11667 0.889503 2.44169 1.13435 2.68136L7.59939 9.00772L1.13435 15.3341C0.896441 15.5751 0.764797 15.898 0.767774 16.2331C0.770749 16.5682 0.908107 16.8887 1.15026 17.1257C1.39242 17.3626 1.72 17.497 2.06244 17.5C2.40489 17.5029 2.7348 17.374 2.98113 17.1412L10.3696 9.9113C10.6144 9.67163 10.752 9.34661 10.752 9.00772C10.752 8.66882 10.6144 8.3438 10.3696 8.10413L2.98113 0.874196C2.73621 0.634599 2.40406 0.5 2.05774 0.5C1.71142 0.5 1.37928 0.634599 1.13435 0.874196Z" fill="url(#paint0_linear_2097_51)"/>
<defs>
<linearGradient id="paint0_linear_2097_51" x1="0.751953" y1="9" x2="10.752" y2="9" gradientUnits="userSpaceOnUse">
<stop stop-color="#094A6F"/>
<stop offset="1" stop-color="#64C8BD"/>
</linearGradient>
</defs>
</svg>
