<svg width="37" height="26" viewBox="0 0 37 26" fill="none" xmlns="http://www.w3.org/2000/svg">
<g clip-path="url(#clip0_1190_392)">
<path d="M26.7807 7.78901V6.42837C26.7807 3.0783 21.0461 0.454102 13.7263 0.454102C6.4065 0.454102 0.671875 3.0783 0.671875 6.42837V12.4026C0.671875 15.2613 4.84619 17.5883 10.6181 18.2111V19.5717C10.6181 22.9218 16.3527 25.546 23.6725 25.546C30.9924 25.546 36.727 22.9218 36.727 19.5717V13.5975C36.727 10.7776 32.6661 8.42526 26.7807 7.78901ZM35.4837 13.5975C35.4837 15.905 30.7375 18.3769 23.6725 18.3769C22.2144 18.379 20.7586 18.2621 19.3211 18.0274V17.8198C23.7673 16.8774 26.7807 14.8327 26.7807 12.4026V8.99282C31.7881 9.56485 35.4837 11.496 35.4837 13.5975ZM15.6208 17.1208C15.0105 17.1616 14.379 17.182 13.7263 17.182C12.8762 17.182 12.0603 17.1447 11.2817 17.079H11.2398C10.5932 17.0222 9.97161 16.9446 9.37483 16.846V12.074C10.8138 12.2954 12.269 12.4053 13.7263 12.4026C15.1836 12.4053 16.6388 12.2954 18.0778 12.074V16.8415C17.2791 16.9725 16.4741 17.0648 15.6658 17.1178L15.6208 17.1208ZM25.5375 9.01522V12.4026C25.5375 14.0276 23.1815 15.7333 19.3211 16.601V11.8455C22.0609 11.2645 24.2553 10.2653 25.5375 9.01522ZM13.7263 1.64895C20.7912 1.64895 25.5375 4.12081 25.5375 6.42837C25.5375 8.73593 20.7912 11.2078 13.7263 11.2078C6.66137 11.2078 1.91515 8.73593 1.91515 6.42837C1.91515 4.12081 6.66137 1.64895 13.7263 1.64895ZM1.91515 12.4026V9.01522C3.19729 10.2653 5.39167 11.2645 8.13155 11.853V16.6085C4.27117 15.7333 1.91515 14.0276 1.91515 12.4026ZM11.8614 19.5717V18.3172C12.469 18.356 13.0922 18.3769 13.7263 18.3769C14.3604 18.3769 14.9789 18.356 15.5912 18.3186C16.403 18.6025 17.2337 18.8335 18.0778 19.0102V23.7702C14.2174 22.9024 11.8614 21.1967 11.8614 19.5717ZM19.3211 24.0106V19.2387C20.7599 19.4619 22.2151 19.5733 23.6725 19.5717C25.1299 19.5744 26.585 19.4646 28.024 19.2432V24.0106C25.1423 24.4649 22.2028 24.4649 19.3211 24.0106ZM35.4837 19.5717C35.4837 21.1967 33.1277 22.9024 29.2673 23.7702V19.0146C32.0072 18.4337 34.2016 17.4345 35.4837 16.1769V19.5717Z" fill="#898989"/>
</g>
<defs>
<clipPath id="clip0_1190_392">
<rect width="37" height="26" fill="white"/>
</clipPath>
</defs>
</svg>
