<svg width="303" height="481" viewBox="0 0 303 481" fill="none" xmlns="http://www.w3.org/2000/svg">
<path fill-rule="evenodd" clip-rule="evenodd" d="M0 0H170V481H0V0ZM44.087 167.82V192H37.887V183.01H28.029V192H21.86V167.82H28.029V177.213H37.887V167.82H44.087ZM54.9489 167.82H73.5179V173.834H61.1489V177.306H71.3169V182.917H61.1489V186.017H73.5179V192H54.9489V167.82ZM83.6481 167.82H89.8171V186.017H101.411V192H83.6481V167.82ZM110.803 167.82H121.467C123.079 167.82 124.474 168.078 125.652 168.595C126.851 169.091 127.843 169.773 128.628 170.641C129.414 171.488 129.992 172.47 130.364 173.586C130.757 174.702 130.953 175.87 130.953 177.089C130.953 178.37 130.757 179.579 130.364 180.716C129.992 181.853 129.414 182.855 128.628 183.723C127.843 184.57 126.851 185.252 125.652 185.769C124.474 186.265 123.079 186.513 121.467 186.513H117.003V192H110.803V167.82ZM117.003 173.462V180.871H121.126C122.428 180.871 123.348 180.52 123.885 179.817C124.423 179.094 124.691 178.195 124.691 177.12C124.691 176.645 124.629 176.19 124.505 175.756C124.381 175.301 124.175 174.909 123.885 174.578C123.596 174.227 123.224 173.958 122.769 173.772C122.315 173.565 121.767 173.462 121.126 173.462H117.003ZM152.456 167.82L162.221 192H155.463L154.13 188.466H144.613L143.28 192H136.522L146.318 167.82H152.456ZM149.387 175.756L146.721 182.855H152.022L149.387 175.756ZM197.094 191V173.84H192.694V180.506H185.698V173.84H181.32V191H185.698V184.62H192.694V191H197.094ZM217.98 173.84H204.802V191H217.98V186.754H209.202V184.554H216.418V180.572H209.202V178.108H217.98V173.84ZM229.548 173.84H225.17V191H237.776V186.754H229.548V173.84ZM252.009 173.84H244.441V191H248.841V187.106H252.009C253.153 187.106 254.143 186.93 254.979 186.578C255.83 186.211 256.534 185.727 257.091 185.126C257.648 184.51 258.059 183.799 258.323 182.992C258.602 182.185 258.741 181.327 258.741 180.418C258.741 179.553 258.602 178.724 258.323 177.932C258.059 177.14 257.648 176.443 257.091 175.842C256.534 175.226 255.83 174.742 254.979 174.39C254.143 174.023 253.153 173.84 252.009 173.84ZM248.841 183.102V177.844H251.767C252.222 177.844 252.61 177.917 252.933 178.064C253.256 178.196 253.52 178.387 253.725 178.636C253.93 178.871 254.077 179.149 254.165 179.472C254.253 179.78 254.297 180.103 254.297 180.44C254.297 181.203 254.106 181.841 253.725 182.354C253.344 182.853 252.691 183.102 251.767 183.102H248.841ZM188.888 206.84H181.32V224H185.72V220.106H188.888C190.032 220.106 191.022 219.93 191.858 219.578C192.709 219.211 193.413 218.727 193.97 218.126C194.527 217.51 194.938 216.799 195.202 215.992C195.481 215.185 195.62 214.327 195.62 213.418C195.62 212.553 195.481 211.724 195.202 210.932C194.938 210.14 194.527 209.443 193.97 208.842C193.413 208.226 192.709 207.742 191.858 207.39C191.022 207.023 190.032 206.84 188.888 206.84ZM185.72 216.102V210.844H188.646C189.101 210.844 189.489 210.917 189.812 211.064C190.135 211.196 190.399 211.387 190.604 211.636C190.809 211.871 190.956 212.149 191.044 212.472C191.132 212.78 191.176 213.103 191.176 213.44C191.176 214.203 190.985 214.841 190.604 215.354C190.223 215.853 189.57 216.102 188.646 216.102H185.72ZM206.753 206.84H202.375V224H214.981V219.754H206.753V206.84ZM238.564 224L231.634 206.84H227.278L220.326 224H225.122L226.068 221.492H232.822L233.768 224H238.564ZM227.564 217.51L229.456 212.472L231.326 217.51H227.564ZM244.935 206.84V224H249.335V214.43L256.991 224H260.709V206.84H256.331V216.432L248.675 206.84H244.935ZM281.596 206.84H268.418V224H281.596V219.754H272.818V217.554H280.034V213.572H272.818V211.108H281.596V206.84ZM302.821 206.84H287.729V211.108H293.075V224H297.475V211.108H302.821V206.84Z" fill="white"/>
</svg>
