<?xml version="1.0" encoding="utf-8"?>
<!-- Generator: Adobe Illustrator 16.0.0, SVG Export Plug-In . SVG Version: 6.00 Build 0)  -->
<!DOCTYPE svg PUBLIC "-//W3C//DTD SVG 1.1//EN" "http://www.w3.org/Graphics/SVG/1.1/DTD/svg11.dtd">
<svg version="1.1" id="Layer_1" xmlns="http://www.w3.org/2000/svg" xmlns:xlink="http://www.w3.org/1999/xlink" x="0px" y="0px"
	 width="320px" height="1000px" viewBox="0 0 320 1000" enable-background="new 0 0 320 1000" xml:space="preserve">
<path fill="#FFFFFF" d="M121.126,460.371h-4.123v-7.409h4.123c0.641,0,1.189,0.103,1.643,0.31c0.455,0.187,0.827,0.455,1.116,0.807
	c0.29,0.331,0.496,0.723,0.62,1.178c0.124,0.434,0.186,0.889,0.186,1.364c0,1.075-0.268,1.974-0.806,2.696
	C123.348,460.02,122.428,460.371,121.126,460.371z M0,0h170v1000H0V0z M136.522,471.5h6.758l1.333-3.534h9.517l1.333,3.534h6.758
	l-9.765-24.18h-6.138L136.522,471.5z M110.803,471.5h6.2v-5.486h4.464c1.612,0,3.007-0.248,4.185-0.744
	c1.199-0.518,2.191-1.199,2.976-2.047c0.786-0.867,1.364-1.869,1.736-3.007c0.393-1.137,0.589-2.346,0.589-3.627
	c0-1.219-0.196-2.387-0.589-3.503c-0.372-1.115-0.95-2.098-1.736-2.945c-0.785-0.867-1.777-1.55-2.976-2.045
	c-1.178-0.518-2.573-0.775-4.185-0.775h-10.664V471.5z M83.648,471.5h17.763v-5.982H89.817V447.32h-6.169V471.5z M54.949,471.5
	h18.569v-5.982H61.149v-3.101h10.168v-5.61H61.149v-3.473h12.369v-6.014H54.949V471.5z M21.86,471.5h6.169v-8.99h9.858v8.99h6.2
	v-24.18h-6.2v9.393h-9.858v-9.393H21.86V471.5z M149.387,455.256l-2.666,7.1h5.3L149.387,455.256z M192.693,460.006h-6.995v-6.666
	h-4.378v17.16h4.378v-6.38h6.995v6.38h4.4v-17.16h-4.4V460.006z M204.802,470.5h13.179v-4.246h-8.778v-2.199h7.216v-3.982h-7.216
	v-2.465h8.778v-4.268h-13.179V470.5z M237.775,466.254h-8.228V453.34h-4.378v17.16h12.605V466.254z M248.841,470.5h-4.399v-17.16
	h7.567c1.144,0,2.134,0.184,2.97,0.551c0.852,0.352,1.556,0.836,2.112,1.451c0.558,0.602,0.968,1.299,1.232,2.09
	c0.278,0.793,0.418,1.621,0.418,2.486c0,0.909-0.14,1.768-0.418,2.574c-0.265,0.807-0.675,1.518-1.232,2.134
	c-0.557,0.601-1.261,1.085-2.112,1.452c-0.836,0.352-1.826,0.527-2.97,0.527h-3.168V470.5z M248.841,462.602h2.927
	c0.924,0,1.576-0.248,1.957-0.748c0.381-0.513,0.572-1.15,0.572-1.914c0-0.336-0.044-0.66-0.132-0.967
	c-0.088-0.324-0.235-0.602-0.44-0.837c-0.205-0.249-0.469-0.44-0.791-0.571c-0.324-0.147-0.711-0.221-1.166-0.221h-2.927V462.602z
	 M195.202,490.432c0.278,0.793,0.418,1.621,0.418,2.486c0,0.909-0.14,1.768-0.418,2.574c-0.265,0.807-0.675,1.518-1.231,2.134
	c-0.558,0.601-1.262,1.085-2.113,1.452c-0.836,0.352-1.825,0.527-2.969,0.527h-3.168v3.895h-4.4v-17.16h7.568
	c1.144,0,2.133,0.184,2.969,0.551c0.852,0.352,1.556,0.836,2.113,1.451C194.527,488.943,194.938,489.641,195.202,490.432z
	 M191.176,492.939c0-0.336-0.044-0.66-0.132-0.967c-0.088-0.324-0.235-0.602-0.44-0.836c-0.205-0.25-0.469-0.441-0.791-0.572
	c-0.324-0.147-0.711-0.221-1.166-0.221h-2.926v5.258h2.926c0.924,0,1.576-0.248,1.957-0.748
	C190.984,494.341,191.176,493.703,191.176,492.939z M206.753,486.34h-4.378v17.16h12.605v-4.246h-8.228V486.34z M231.634,486.34
	l6.931,17.16h-4.797l-0.945-2.508h-6.754l-0.946,2.508h-4.796l6.951-17.16H231.634z M231.326,497.01l-1.87-5.037l-1.892,5.037
	H231.326z M256.331,495.932l-7.656-9.592h-3.739v17.16h4.399v-9.57l7.656,9.57h3.718v-17.16h-4.378V495.932z M268.418,503.5h13.178
	v-4.246h-8.777v-2.199h7.216v-3.982h-7.216v-2.465h8.777v-4.268h-13.178V503.5z M287.729,486.34v4.268h5.347V503.5h4.399v-12.893
	h5.347v-4.268H287.729z"/>
</svg>
