<svg width="907" height="540" viewBox="0 0 907 540" fill="none" xmlns="http://www.w3.org/2000/svg">
<path fill-rule="evenodd" clip-rule="evenodd" d="M0 0H392V540H0V0ZM75.944 217.84V274H61.544V253.12H38.648V274H24.32V217.84H38.648V239.656H61.544V217.84H75.944ZM101.172 217.84H144.3V231.808H115.572V239.872H139.188V252.904H115.572V260.104H144.3V274H101.172V217.84ZM167.828 217.84H182.156V260.104H209.084V274H167.828V217.84ZM230.898 217.84H255.666C259.41 217.84 262.65 218.44 265.386 219.64C268.17 220.792 270.474 222.376 272.298 224.392C274.122 226.36 275.466 228.64 276.33 231.232C277.242 233.824 277.698 236.536 277.698 239.368C277.698 242.344 277.242 245.152 276.33 247.792C275.466 250.432 274.122 252.76 272.298 254.776C270.474 256.744 268.17 258.328 265.386 259.528C262.65 260.68 259.41 261.256 255.666 261.256H245.298V274H230.898V217.84ZM245.298 230.944V248.152H254.874C257.898 248.152 260.034 247.336 261.282 245.704C262.53 244.024 263.154 241.936 263.154 239.44C263.154 238.336 263.01 237.28 262.722 236.272C262.434 235.216 261.954 234.304 261.282 233.536C260.61 232.72 259.746 232.096 258.69 231.664C257.634 231.184 256.362 230.944 254.874 230.944H245.298ZM327.641 217.84L350.321 274H334.625L331.529 265.792H309.425L306.329 274H290.633L313.385 217.84H327.641ZM320.513 236.272L314.321 252.76H326.633L320.513 236.272ZM492.822 281V213.92H475.622V239.978H448.274V213.92H431.16V281H448.274V256.06H475.622V281H492.822ZM574.469 213.92H522.955V281H574.469V264.402H540.155V255.802H568.363V240.236H540.155V230.604H574.469V213.92ZM619.686 213.92H602.572V281H651.85V264.402H619.686V213.92ZM707.49 213.92H677.906V281H695.106V265.778H707.49C711.962 265.778 715.832 265.09 719.1 263.714C722.425 262.281 725.177 260.389 727.356 258.038C729.535 255.63 731.14 252.849 732.172 249.696C733.261 246.543 733.806 243.189 733.806 239.634C733.806 236.251 733.261 233.012 732.172 229.916C731.14 226.82 729.535 224.097 727.356 221.746C725.177 219.338 722.425 217.446 719.1 216.07C715.832 214.637 711.962 213.92 707.49 213.92ZM695.106 250.126V229.572H706.544C708.321 229.572 709.841 229.859 711.102 230.432C712.363 230.948 713.395 231.693 714.198 232.668C715.001 233.585 715.574 234.675 715.918 235.936C716.262 237.14 716.434 238.401 716.434 239.72C716.434 242.701 715.689 245.195 714.198 247.202C712.707 249.151 710.156 250.126 706.544 250.126H695.106ZM460.744 341.92H431.16V409H448.36V393.778H460.744C465.216 393.778 469.086 393.09 472.354 391.714C475.679 390.281 478.431 388.389 480.61 386.038C482.789 383.63 484.394 380.849 485.426 377.696C486.515 374.543 487.06 371.189 487.06 367.634C487.06 364.251 486.515 361.012 485.426 357.916C484.394 354.82 482.789 352.097 480.61 349.746C478.431 347.338 475.679 345.446 472.354 344.07C469.086 342.637 465.216 341.92 460.744 341.92ZM448.36 378.126V357.572H459.798C461.575 357.572 463.095 357.859 464.356 358.432C465.617 358.948 466.649 359.693 467.452 360.668C468.255 361.585 468.828 362.675 469.172 363.936C469.516 365.14 469.688 366.401 469.688 367.72C469.688 370.701 468.943 373.195 467.452 375.202C465.961 377.151 463.41 378.126 459.798 378.126H448.36ZM530.579 341.92H513.465V409H562.743V392.402H530.579V341.92ZM654.933 409L627.843 341.92H610.815L583.639 409H602.387L606.085 399.196H632.487L636.185 409H654.933ZM611.933 383.63L619.329 363.936L626.639 383.63H611.933ZM679.838 341.92V409H697.038V371.59L726.966 409H741.5V341.92H724.386V379.416L694.458 341.92H679.838ZM823.147 341.92H771.633V409H823.147V392.402H788.833V383.802H817.041V368.236H788.833V358.604H823.147V341.92ZM906.118 341.92H847.122V358.604H868.02V409H885.22V358.604H906.118V341.92Z" fill="white"/>
</svg>
