<svg width="624" height="720" viewBox="0 0 624 720" fill="none" xmlns="http://www.w3.org/2000/svg">
<path fill-rule="evenodd" clip-rule="evenodd" d="M0 0H313V720H0V0ZM62.397 294.42V342H50.197V324.31H30.799V342H18.66V294.42H30.799V312.903H50.197V294.42H62.397ZM83.7704 294.42H120.309V306.254H95.9704V313.086H115.978V324.127H95.9704V330.227H120.309V342H83.7704V294.42ZM140.243 294.42H152.382V330.227H175.196V342H140.243V294.42ZM193.678 294.42H214.662C217.834 294.42 220.579 294.928 222.897 295.945C225.255 296.921 227.207 298.263 228.753 299.971C230.298 301.638 231.437 303.57 232.169 305.766C232.941 307.962 233.328 310.26 233.328 312.659C233.328 315.18 232.941 317.559 232.169 319.796C231.437 322.033 230.298 324.005 228.753 325.713C227.207 327.38 225.255 328.722 222.897 329.739C220.579 330.715 217.834 331.203 214.662 331.203H205.878V342H193.678V294.42ZM205.878 305.522V320.101H213.991C216.553 320.101 218.362 319.41 219.42 318.027C220.477 316.604 221.006 314.835 221.006 312.72C221.006 311.785 220.884 310.89 220.64 310.036C220.396 309.141 219.989 308.369 219.42 307.718C218.85 307.027 218.118 306.498 217.224 306.132C216.329 305.725 215.251 305.522 213.991 305.522H205.878ZM275.64 294.42L294.855 342H281.557L278.934 335.046H260.207L257.584 342H244.286L263.562 294.42H275.64ZM269.601 310.036L264.355 324.005H274.786L269.601 310.036ZM369.181 341V299.66H358.581V315.719H341.727V299.66H331.18V341H341.727V325.63H358.581V341H369.181ZM419.498 299.66H387.751V341H419.498V330.771H398.351V325.471H415.735V315.878H398.351V309.942H419.498V299.66ZM447.365 299.66H436.818V341H467.187V330.771H447.365V299.66ZM501.476 299.66H483.244V341H493.844V331.619H501.476C504.232 331.619 506.617 331.195 508.631 330.347C510.681 329.464 512.377 328.298 513.719 326.849C515.062 325.365 516.051 323.651 516.687 321.708C517.359 319.765 517.694 317.698 517.694 315.507C517.694 313.422 517.359 311.426 516.687 309.518C516.051 307.61 515.062 305.932 513.719 304.483C512.377 302.999 510.681 301.833 508.631 300.985C506.617 300.102 504.232 299.66 501.476 299.66ZM493.844 321.973V309.306H500.893C501.989 309.306 502.925 309.483 503.702 309.836C504.48 310.154 505.116 310.613 505.61 311.214C506.105 311.779 506.458 312.451 506.67 313.228C506.882 313.97 506.988 314.747 506.988 315.56C506.988 317.397 506.529 318.934 505.61 320.171C504.692 321.372 503.119 321.973 500.893 321.973H493.844ZM349.412 378.66H331.18V420H341.78V410.619H349.412C352.168 410.619 354.553 410.195 356.567 409.347C358.616 408.464 360.312 407.298 361.655 405.849C362.998 404.365 363.987 402.651 364.623 400.708C365.294 398.765 365.63 396.698 365.63 394.507C365.63 392.422 365.294 390.426 364.623 388.518C363.987 386.61 362.998 384.932 361.655 383.483C360.312 381.999 358.616 380.833 356.567 379.985C354.553 379.102 352.168 378.66 349.412 378.66ZM341.78 400.973V388.306H348.829C349.924 388.306 350.861 388.483 351.638 388.836C352.415 389.154 353.051 389.613 353.546 390.214C354.041 390.779 354.394 391.451 354.606 392.228C354.818 392.97 354.924 393.747 354.924 394.56C354.924 396.397 354.465 397.934 353.546 399.171C352.627 400.372 351.055 400.973 348.829 400.973H341.78ZM392.45 378.66H381.903V420H412.272V409.771H392.45V378.66ZM469.086 420L452.391 378.66H441.897L425.149 420H436.703L438.982 413.958H455.253L457.532 420H469.086ZM442.586 404.365L447.144 392.228L451.649 404.365H442.586ZM484.435 378.66V420H495.035V396.945L513.479 420H522.436V378.66H511.889V401.768L493.445 378.66H484.435ZM572.753 378.66H541.006V420H572.753V409.771H551.606V404.471H568.99V394.878H551.606V388.942H572.753V378.66ZM623.887 378.66H587.529V388.942H600.408V420H611.008V388.942H623.887V378.66Z" fill="white"/>
</svg>
