<?xml version="1.0" encoding="utf-8"?>
<!-- Generator: Adobe Illustrator 16.0.0, SVG Export Plug-In . SVG Version: 6.00 Build 0)  -->
<!DOCTYPE svg PUBLIC "-//W3C//DTD SVG 1.1//EN" "http://www.w3.org/Graphics/SVG/1.1/DTD/svg11.dtd">
<svg version="1.1" id="Layer_1" xmlns="http://www.w3.org/2000/svg" xmlns:xlink="http://www.w3.org/1999/xlink" x="0px" y="0px"
	 width="960px" height="2000px" viewBox="0 -500 960 2000" enable-background="new 0 -500 960 2000" xml:space="preserve">
<path fill="#FFFFFF" d="M245.298,460.943v17.209h9.576c3.024,0,5.16-0.816,6.408-2.448c1.247-1.681,1.872-3.769,1.872-6.265
	c0-1.104-0.145-2.16-0.432-3.168c-0.289-1.056-0.769-1.967-1.44-2.735c-0.673-0.815-1.536-1.44-2.593-1.872
	c-1.056-0.48-2.328-0.721-3.815-0.721H245.298z M0-500v2000h392V-500H0z M75.944,504h-14.4v-20.88H38.648V504H24.32v-56.16h14.328
	v21.816h22.896V447.84h14.4V504z M144.3,461.809h-28.728v8.063h23.616v13.032h-23.616v7.199H144.3V504h-43.128v-56.16H144.3V461.809
	z M209.084,504h-41.256v-56.16h14.328v42.264h26.928V504z M276.33,477.792c-0.864,2.64-2.208,4.968-4.032,6.983
	c-1.823,1.969-4.128,3.553-6.912,4.752c-2.735,1.152-5.976,1.729-9.72,1.729h-10.368V504h-14.399v-56.16h24.768
	c3.744,0,6.984,0.6,9.72,1.801c2.784,1.151,5.089,2.735,6.912,4.752c1.824,1.967,3.168,4.248,4.032,6.84
	c0.912,2.592,1.368,5.304,1.368,8.136C277.698,472.344,277.242,475.152,276.33,477.792z M334.625,504l-3.096-8.208h-22.104
	L306.329,504h-15.696l22.752-56.16h14.256L350.321,504H334.625z M320.513,466.271l-6.191,16.488h12.312L320.513,466.271z
	 M492.822,511v-67.08h-17.2v26.059h-27.348V443.92H431.16V511h17.114v-24.939h27.348V511H492.822z M574.469,443.92h-51.514V511
	h51.514v-16.598h-34.313v-8.601h28.208v-15.565h-28.208v-9.633h34.313V443.92z M619.686,443.92h-17.113V511h49.277v-16.598h-32.164
	V443.92z M732.172,459.916c-1.032-3.096-2.637-5.818-4.815-8.17c-2.18-2.408-4.932-4.301-8.257-5.676
	c-3.268-1.434-7.138-2.15-11.609-2.15h-29.584V511h17.2v-15.223h12.384c4.472,0,8.342-0.688,11.609-2.063
	c3.325-1.433,6.077-3.325,8.257-5.676c2.179-2.408,3.783-5.188,4.815-8.343c1.089-3.152,1.634-6.506,1.634-10.062
	C733.806,466.251,733.261,463.012,732.172,459.916z M714.198,477.202c-1.491,1.948-4.042,2.924-7.654,2.924h-11.438v-20.554h11.438
	c1.777,0,3.297,0.287,4.558,0.859c1.262,0.517,2.293,1.262,3.097,2.236c0.803,0.917,1.376,2.007,1.72,3.268
	c0.344,1.205,0.516,2.465,0.516,3.785C716.434,472.701,715.689,475.195,714.198,477.202z M485.426,587.916
	c-1.032-3.096-2.637-5.818-4.815-8.17c-2.18-2.408-4.932-4.301-8.257-5.676c-3.268-1.434-7.138-2.15-11.609-2.15H431.16V639h17.2
	v-15.223h12.384c4.472,0,8.342-0.688,11.609-2.063c3.325-1.433,6.077-3.325,8.257-5.676c2.179-2.408,3.783-5.188,4.815-8.343
	c1.089-3.152,1.634-6.506,1.634-10.062C487.06,594.251,486.515,591.012,485.426,587.916z M467.452,605.202
	c-1.491,1.948-4.042,2.924-7.654,2.924H448.36v-20.554h11.438c1.777,0,3.297,0.287,4.559,0.859c1.261,0.517,2.293,1.262,3.096,2.236
	c0.803,0.917,1.376,2.007,1.72,3.268c0.344,1.205,0.516,2.465,0.516,3.785C469.688,600.701,468.943,603.195,467.452,605.202z
	 M530.579,571.92h-17.114V639h49.278v-16.598h-32.164V571.92z M627.843,571.92h-17.027L583.639,639h18.748l3.698-9.805h26.402
	l3.697,9.805h18.748L627.843,571.92z M611.933,613.63l7.396-19.694l7.31,19.694H611.933z M679.838,571.92V639h17.2v-37.41
	L726.966,639H741.5v-67.08h-17.114v37.496l-29.928-37.496H679.838z M823.146,571.92h-51.514V639h51.514v-16.598h-34.313v-8.601
	h28.208v-15.565h-28.208v-9.633h34.313V571.92z M906.118,571.92h-58.996v16.684h20.897V639h17.2v-50.396h20.898V571.92z"/>
</svg>
