<svg width="457" height="262" viewBox="0 0 457 262" fill="none" xmlns="http://www.w3.org/2000/svg">
<path fill-rule="evenodd" clip-rule="evenodd" d="M0 0H239V262H0V0ZM54.965 103.9V139H45.965V125.95H31.655V139H22.7V103.9H31.655V117.535H45.965V103.9H54.965ZM70.7322 103.9H97.6872V112.63H79.7322V117.67H94.4922V125.815H79.7322V130.315H97.6872V139H70.7322V103.9ZM112.392 103.9H121.347V130.315H138.177V139H112.392V103.9ZM151.811 103.9H167.291C169.631 103.9 171.656 104.275 173.366 105.025C175.106 105.745 176.546 106.735 177.686 107.995C178.826 109.225 179.666 110.65 180.206 112.27C180.776 113.89 181.061 115.585 181.061 117.355C181.061 119.215 180.776 120.97 180.206 122.62C179.666 124.27 178.826 125.725 177.686 126.985C176.546 128.215 175.106 129.205 173.366 129.955C171.656 130.675 169.631 131.035 167.291 131.035H160.811V139H151.811V103.9ZM160.811 112.09V122.845H166.796C168.686 122.845 170.021 122.335 170.801 121.315C171.581 120.265 171.971 118.96 171.971 117.4C171.971 116.71 171.881 116.05 171.701 115.42C171.521 114.76 171.221 114.19 170.801 113.71C170.381 113.2 169.841 112.81 169.181 112.54C168.521 112.24 167.726 112.09 166.796 112.09H160.811ZM212.276 103.9L226.451 139H216.641L214.706 133.87H200.891L198.956 139H189.146L203.366 103.9H212.276ZM207.821 115.42L203.951 125.725H211.646L207.821 115.42ZM278.749 139V110.14H271.349V121.351H259.583V110.14H252.22V139H259.583V128.27H271.349V139H278.749ZM313.876 110.14H291.713V139H313.876V131.859H299.113V128.159H311.249V121.462H299.113V117.318H313.876V110.14ZM333.33 110.14H325.967V139H347.168V131.859H333.33V110.14ZM371.106 110.14H358.378V139H365.778V132.451H371.106C373.03 132.451 374.695 132.155 376.101 131.563C377.532 130.946 378.716 130.132 379.653 129.121C380.591 128.085 381.281 126.889 381.725 125.532C382.194 124.175 382.428 122.732 382.428 121.203C382.428 119.748 382.194 118.354 381.725 117.022C381.281 115.69 380.591 114.518 379.653 113.507C378.716 112.471 377.532 111.657 376.101 111.065C374.695 110.448 373.03 110.14 371.106 110.14ZM365.778 125.717V116.874H370.699C371.464 116.874 372.118 116.997 372.66 117.244C373.203 117.466 373.647 117.787 373.992 118.206C374.338 118.601 374.584 119.069 374.732 119.612C374.88 120.13 374.954 120.673 374.954 121.24C374.954 122.523 374.634 123.596 373.992 124.459C373.351 125.298 372.253 125.717 370.699 125.717H365.778ZM264.948 165.14H252.22V194H259.62V187.451H264.948C266.872 187.451 268.537 187.155 269.943 186.563C271.374 185.946 272.558 185.132 273.495 184.121C274.432 183.085 275.123 181.889 275.567 180.532C276.036 179.175 276.27 177.732 276.27 176.203C276.27 174.748 276.036 173.354 275.567 172.022C275.123 170.69 274.432 169.518 273.495 168.507C272.558 167.471 271.374 166.657 269.943 166.065C268.537 165.448 266.872 165.14 264.948 165.14ZM259.62 180.717V171.874H264.541C265.306 171.874 265.959 171.997 266.502 172.244C267.045 172.466 267.489 172.787 267.834 173.206C268.179 173.601 268.426 174.069 268.574 174.612C268.722 175.13 268.796 175.673 268.796 176.24C268.796 177.523 268.475 178.596 267.834 179.459C267.193 180.298 266.095 180.717 264.541 180.717H259.62ZM294.993 165.14H287.63V194H308.831V186.859H294.993V165.14ZM348.494 194L336.839 165.14H329.513L317.821 194H325.887L327.478 189.782H338.837L340.428 194H348.494ZM329.994 183.085L333.176 174.612L336.321 183.085H329.994ZM359.209 165.14V194H366.609V177.905L379.485 194H385.738V165.14H378.375V181.272L365.499 165.14H359.209ZM420.865 165.14H398.702V194H420.865V186.859H406.102V183.159H418.238V176.462H406.102V172.318H420.865V165.14ZM456.562 165.14H431.18V172.318H440.171V194H447.571V172.318H456.562V165.14Z" fill="white"/>
</svg>
