<?xml version="1.0" encoding="utf-8"?>
<!-- Generator: Adobe Illustrator 16.0.0, SVG Export Plug-In . SVG Version: 6.00 Build 0)  -->
<!DOCTYPE svg PUBLIC "-//W3C//DTD SVG 1.1//EN" "http://www.w3.org/Graphics/SVG/1.1/DTD/svg11.dtd">
<svg version="1.1" id="Layer_1" xmlns="http://www.w3.org/2000/svg" xmlns:xlink="http://www.w3.org/1999/xlink" x="0px" y="0px"
	 width="480px" height="1000px" viewBox="144.5 516.5 480 1000" enable-background="new 144.5 516.5 480 1000" xml:space="preserve"
	>
<path fill="#FFFFFF" d="M209.521,997.291c-0.483-1.175-0.724-2.425-0.724-3.752c0-1.325,0.24-2.577,0.724-3.752
	c0.512-1.176,1.206-2.186,2.079-3.027c0.873-0.875,1.885-1.552,3.029-2.034c1.175-0.513,2.426-0.771,3.752-0.771
	c1.355,0,2.606,0.259,3.751,0.771c1.178,0.482,2.186,1.159,3.029,2.034c0.874,0.842,1.552,1.852,2.036,3.027
	c0.51,1.175,0.768,2.427,0.768,3.752c0,1.327-0.258,2.577-0.768,3.752c-0.484,1.178-1.162,2.2-2.036,3.074
	c-0.844,0.843-1.852,1.522-3.029,2.034c-1.145,0.482-2.396,0.723-3.751,0.723c-1.326,0-2.577-0.24-3.752-0.723
	c-1.145-0.512-2.156-1.191-3.029-2.034C210.725,999.491,210.033,998.469,209.521,997.291z M144.5,516.5h206.446v1000H144.5V516.5z
	 M297.802,993.539c0,2.532,0.498,4.913,1.493,7.144c0.994,2.199,2.336,4.128,4.022,5.786c1.719,1.657,3.707,2.969,5.968,3.933
	c2.261,0.965,4.672,1.447,7.231,1.447c1.809,0,3.526-0.333,5.154-0.996c1.629-0.662,2.878-1.655,3.753-2.984v3.302h7.098v-20.569
	h-16.998v7.505h8.544v0.995c-0.845,1.234-1.914,2.214-3.21,2.938c-1.296,0.723-2.743,1.084-4.341,1.084
	c-1.325,0-2.576-0.24-3.751-0.723c-1.175-0.512-2.2-1.191-3.074-2.034c-0.843-0.874-1.522-1.896-2.034-3.074
	c-0.481-1.175-0.724-2.425-0.724-3.752c0-1.325,0.242-2.577,0.724-3.752c0.512-1.176,1.191-2.186,2.034-3.027
	c0.874-0.875,1.899-1.552,3.074-2.034c1.175-0.513,2.426-0.771,3.751-0.771c1.539,0,2.954,0.333,4.251,0.996
	c1.325,0.634,2.425,1.508,3.3,2.623l7.368-4.975c-1.717-2.228-3.872-4.009-6.464-5.334c-2.593-1.354-5.41-2.035-8.455-2.035
	c-2.56,0-4.971,0.484-7.231,1.448c-2.261,0.965-4.249,2.275-5.968,3.934c-1.687,1.656-3.028,3.602-4.022,5.831
	C298.3,988.644,297.802,991.007,297.802,993.539z M251.224,1011.17h9.04v-19.664l15.729,19.664h7.643v-35.26h-8.996v19.709
	l-15.732-19.709h-7.684V1011.17z M199.665,993.539c0,2.532,0.496,4.913,1.491,7.144c0.995,2.199,2.335,4.128,4.024,5.786
	c1.717,1.657,3.707,2.969,5.966,3.933c2.29,0.965,4.702,1.447,7.233,1.447c2.563,0,4.973-0.482,7.233-1.447
	c2.29-0.964,4.279-2.275,5.966-3.933c1.718-1.658,3.061-3.587,4.025-5.786c0.994-2.23,1.49-4.611,1.49-7.144
	s-0.496-4.896-1.49-7.097c-0.965-2.229-2.308-4.175-4.025-5.831c-1.687-1.658-3.676-2.969-5.966-3.934
	c-2.261-0.964-4.671-1.448-7.233-1.448c-2.531,0-4.943,0.484-7.233,1.448c-2.259,0.965-4.249,2.275-5.966,3.934
	c-1.689,1.656-3.029,3.602-4.024,5.831C200.164,988.644,199.665,991.007,199.665,993.539z M161.738,1011.17h25.904v-8.725h-16.906
	V975.91h-8.998V1011.17z M396.454,1002.445h-16.909V975.91h-8.994v35.26h25.903V1002.445z M440.393,1006.469
	c-1.688,1.657-3.677,2.969-5.968,3.933c-2.258,0.965-4.667,1.447-7.231,1.447c-2.532,0-4.941-0.482-7.231-1.447
	c-2.262-0.964-4.249-2.275-5.969-3.933c-1.687-1.658-3.028-3.587-4.021-5.786c-0.996-2.23-1.494-4.611-1.494-7.144
	s0.498-4.896,1.494-7.097c0.993-2.229,2.335-4.175,4.021-5.831c1.72-1.658,3.707-2.969,5.969-3.934
	c2.29-0.964,4.7-1.448,7.231-1.448c2.564,0,4.974,0.484,7.231,1.448c2.293,0.965,4.28,2.275,5.968,3.934
	c1.719,1.656,3.058,3.602,4.022,5.831c0.996,2.201,1.493,4.564,1.493,7.097s-0.497,4.913-1.493,7.144
	C443.452,1002.882,442.111,1004.811,440.393,1006.469z M436.776,993.539c0-1.325-0.256-2.577-0.769-3.752
	c-0.483-1.176-1.162-2.186-2.032-3.027c-0.845-0.875-1.855-1.552-3.031-2.034c-1.145-0.513-2.396-0.771-3.751-0.771
	c-1.327,0-2.576,0.259-3.751,0.771c-1.146,0.482-2.155,1.159-3.028,2.034c-0.876,0.842-1.57,1.852-2.082,3.027
	c-0.482,1.175-0.723,2.427-0.723,3.752c0,1.327,0.242,2.577,0.723,3.752c0.512,1.178,1.206,2.2,2.082,3.074
	c0.873,0.843,1.883,1.522,3.028,2.034c1.175,0.482,2.425,0.723,3.751,0.723c1.355,0,2.606-0.24,3.751-0.723
	c1.176-0.512,2.187-1.191,3.031-2.034c0.872-0.874,1.552-1.896,2.032-3.074C436.521,996.116,436.776,994.866,436.776,993.539z
	 M492.446,1011.17v-35.26h-8.994v19.709l-15.729-19.709h-7.687v35.26h9.042v-19.664l15.731,19.664H492.446z M524.337,990.601v7.505
	h8.543v0.995c-0.844,1.234-1.914,2.214-3.21,2.938c-1.296,0.723-2.742,1.084-4.34,1.084c-1.328,0-2.577-0.24-3.751-0.723
	c-1.176-0.512-2.2-1.191-3.075-2.034c-0.842-0.874-1.521-1.896-2.033-3.074c-0.482-1.175-0.723-2.425-0.723-3.752
	c0-1.325,0.241-2.577,0.723-3.752c0.513-1.176,1.191-2.186,2.033-3.027c0.875-0.875,1.899-1.552,3.075-2.034
	c1.174-0.513,2.426-0.771,3.751-0.771c1.537,0,2.953,0.333,4.251,0.996c1.326,0.634,2.425,1.508,3.299,2.623l7.368-4.975
	c-1.718-2.228-3.871-4.009-6.464-5.334c-2.592-1.354-5.41-2.035-8.454-2.035c-2.562,0-4.975,0.484-7.232,1.448
	c-2.259,0.965-4.251,2.275-5.967,3.934c-1.687,1.656-3.029,3.602-4.023,5.831c-0.996,2.201-1.492,4.564-1.492,7.097
	s0.496,4.913,1.492,7.144c0.994,2.199,2.336,4.128,4.023,5.786c1.718,1.657,3.708,2.969,5.967,3.933
	c2.258,0.965,4.671,1.447,7.232,1.447c1.808,0,3.526-0.333,5.154-0.996c1.628-0.662,2.879-1.655,3.752-2.984v3.302h7.097v-20.569
	H524.337L524.337,990.601z M394.776,1067.201l7.639,10.669h-10.804l-6.689-9.447h-4.612v9.447h-8.994v-35.26h17.223
	c2.261,0,4.219,0.348,5.876,1.04c1.657,0.661,3.03,1.581,4.113,2.757c1.086,1.176,1.885,2.545,2.398,4.114
	c0.542,1.567,0.813,3.224,0.813,4.974c0,1.232-0.149,2.44-0.452,3.615c-0.271,1.174-0.693,2.274-1.265,3.299
	c-0.574,0.993-1.299,1.914-2.17,2.758C396.977,1065.979,395.953,1066.66,394.776,1067.201z M393.014,1055.584
	c0-1.356-0.376-2.487-1.129-3.393c-0.755-0.902-2.035-1.355-3.845-1.355h-7.73v9.403h7.73c0.904,0,1.675-0.121,2.308-0.361
	c0.632-0.272,1.146-0.618,1.537-1.042c0.391-0.423,0.678-0.921,0.858-1.493C392.924,1056.771,393.014,1056.187,393.014,1055.584z
	 M416.347,1077.87h9.041v-35.26h-9.041V1077.87z M473.16,1053.458c0.722,2.141,1.085,4.402,1.085,6.781
	c0,2.412-0.363,4.688-1.085,6.828c-0.694,2.139-1.734,4.008-3.12,5.604c-1.384,1.598-3.131,2.862-5.242,3.797
	c-2.08,0.936-4.489,1.399-7.232,1.399h-16.364v-35.26h16.364c2.743,0,5.154,0.466,7.232,1.401c2.111,0.935,3.857,2.214,5.242,3.843
	C471.428,1049.451,472.466,1051.319,473.16,1053.458z M465.113,1060.239c0-2.651-0.695-4.792-2.081-6.42
	c-1.386-1.626-3.436-2.439-6.148-2.439h-6.644v17.766h6.644c1.355,0,2.547-0.212,3.572-0.632c1.024-0.454,1.884-1.07,2.576-1.854
	c0.692-0.784,1.207-1.717,1.539-2.804C464.932,1062.772,465.113,1061.564,465.113,1060.239z M488.569,1077.87h27.077v-8.725h-18.037
	v-4.52h14.828v-8.184h-14.828v-5.063h18.037v-8.77h-27.077V1077.87L488.569,1077.87z"/>
</svg>
