<?xml version="1.0" encoding="utf-8"?>
<!-- Generator: Adobe Illustrator 16.0.0, SVG Export Plug-In . SVG Version: 6.00 Build 0)  -->
<!DOCTYPE svg PUBLIC "-//W3C//DTD SVG 1.1//EN" "http://www.w3.org/Graphics/SVG/1.1/DTD/svg11.dtd">
<svg version="1.1" id="Layer_1" xmlns="http://www.w3.org/2000/svg" xmlns:xlink="http://www.w3.org/1999/xlink" x="0px" y="0px"
	 width="320px" height="1000px" viewBox="144.5 516.5 320 1000" enable-background="new 144.5 516.5 320 1000" xml:space="preserve"
	>
<path fill="#FFFFFF" d="M200.704,987.878c-0.353-0.858-0.528-1.771-0.528-2.739c0-0.968,0.176-1.881,0.528-2.738
	c0.374-0.858,0.88-1.596,1.519-2.211c0.637-0.639,1.375-1.133,2.211-1.485c0.857-0.374,1.771-0.562,2.738-0.562
	c0.99,0,1.903,0.188,2.739,0.562c0.858,0.353,1.595,0.847,2.211,1.485c0.638,0.615,1.133,1.353,1.485,2.211
	c0.373,0.857,0.561,1.771,0.561,2.738c0,0.969-0.188,1.881-0.561,2.739c-0.353,0.858-0.848,1.606-1.485,2.244
	c-0.616,0.616-1.353,1.11-2.211,1.485c-0.836,0.352-1.749,0.527-2.739,0.527c-0.968,0-1.881-0.176-2.738-0.527
	c-0.836-0.375-1.574-0.869-2.211-1.485C201.583,989.484,201.078,988.736,200.704,987.878z M144.5,516.5h160v1000h-160V516.5z
	 M265.148,985.139c0,1.848,0.363,3.586,1.09,5.215c0.726,1.605,1.705,3.014,2.937,4.224c1.255,1.21,2.706,2.167,4.356,2.871
	s3.41,1.056,5.279,1.056c1.32,0,2.574-0.242,3.763-0.727c1.188-0.483,2.101-1.209,2.739-2.178v2.409h5.181v-15.015h-12.408v5.479
	h6.237v0.726c-0.616,0.901-1.397,1.616-2.344,2.145c-0.945,0.528-2.002,0.792-3.168,0.792c-0.968,0-1.881-0.176-2.738-0.527
	c-0.858-0.375-1.606-0.869-2.244-1.485c-0.616-0.638-1.111-1.386-1.485-2.244c-0.352-0.858-0.528-1.771-0.528-2.739
	c0-0.968,0.177-1.881,0.528-2.738c0.374-0.858,0.869-1.596,1.485-2.211c0.638-0.639,1.386-1.133,2.244-1.485
	c0.857-0.374,1.771-0.562,2.738-0.562c1.123,0,2.156,0.242,3.103,0.727c0.968,0.462,1.771,1.1,2.409,1.914l5.379-3.631
	c-1.254-1.627-2.827-2.926-4.719-3.894c-1.893-0.989-3.949-1.485-6.172-1.485c-1.869,0-3.629,0.353-5.279,1.057
	s-3.102,1.661-4.356,2.871c-1.231,1.21-2.211,2.629-2.937,4.257C265.512,981.564,265.148,983.291,265.148,985.139z M231.146,998.009
	h6.6v-14.354l11.482,14.354h5.578V972.27h-6.566v14.388l-11.484-14.388h-5.609V998.009z M193.509,985.139
	c0,1.848,0.363,3.586,1.089,5.215c0.727,1.605,1.705,3.014,2.938,4.224c1.254,1.21,2.706,2.167,4.355,2.871
	c1.672,0.704,3.433,1.056,5.28,1.056c1.87,0,3.63-0.352,5.28-1.056c1.672-0.704,3.124-1.661,4.355-2.871
	c1.254-1.21,2.233-2.618,2.938-4.224c0.727-1.629,1.089-3.367,1.089-5.215s-0.362-3.574-1.089-5.181
	c-0.704-1.628-1.684-3.047-2.938-4.257c-1.231-1.21-2.684-2.167-4.355-2.871c-1.65-0.704-3.41-1.057-5.28-1.057
	c-1.848,0-3.608,0.353-5.28,1.057c-1.649,0.704-3.102,1.661-4.355,2.871c-1.232,1.21-2.211,2.629-2.938,4.257
	C193.873,981.564,193.509,983.291,193.509,985.139z M165.823,998.009h18.909v-6.368h-12.342V972.27h-6.567V998.009z
	 M337.164,991.641H324.82V972.27h-6.565v25.739h18.909V991.641z M369.238,994.577c-1.231,1.21-2.684,2.167-4.355,2.871
	c-1.648,0.704-3.408,1.056-5.279,1.056c-1.849,0-3.607-0.352-5.279-1.056c-1.65-0.704-3.102-1.661-4.356-2.871
	c-1.231-1.21-2.211-2.618-2.937-4.224c-0.727-1.629-1.09-3.367-1.09-5.215s0.363-3.574,1.09-5.181
	c0.726-1.628,1.705-3.047,2.937-4.257c1.255-1.21,2.706-2.167,4.356-2.871c1.672-0.704,3.432-1.057,5.279-1.057
	c1.871,0,3.631,0.353,5.279,1.057c1.674,0.704,3.124,1.661,4.355,2.871c1.255,1.21,2.232,2.629,2.938,4.257
	c0.727,1.606,1.09,3.333,1.09,5.181s-0.363,3.586-1.09,5.215C371.473,991.959,370.493,993.367,369.238,994.577z M366.6,985.139
	c0-0.968-0.188-1.881-0.562-2.738c-0.353-0.858-0.849-1.596-1.483-2.211c-0.617-0.639-1.354-1.133-2.213-1.485
	c-0.836-0.374-1.749-0.562-2.738-0.562c-0.969,0-1.881,0.188-2.738,0.562c-0.836,0.353-1.573,0.847-2.211,1.485
	c-0.639,0.615-1.146,1.353-1.52,2.211c-0.352,0.857-0.527,1.771-0.527,2.738c0,0.969,0.177,1.881,0.527,2.739
	c0.374,0.858,0.881,1.606,1.52,2.244c0.638,0.616,1.375,1.11,2.211,1.485c0.857,0.352,1.771,0.527,2.738,0.527
	c0.989,0,1.902-0.176,2.738-0.527c0.858-0.375,1.596-0.869,2.213-1.485c0.637-0.638,1.133-1.386,1.483-2.244
	C366.412,987.02,366.6,986.107,366.6,985.139z M407.238,998.009V972.27h-6.566v14.388l-11.482-14.388h-5.61v25.739h6.601v-14.354
	l11.483,14.354H407.238z M430.518,982.994v5.479h6.236v0.726c-0.615,0.901-1.396,1.616-2.343,2.145s-2.002,0.792-3.168,0.792
	c-0.97,0-1.882-0.176-2.739-0.527c-0.857-0.375-1.605-0.869-2.244-1.485c-0.615-0.638-1.109-1.386-1.484-2.244
	c-0.353-0.858-0.527-1.771-0.527-2.739c0-0.968,0.176-1.881,0.527-2.738c0.375-0.858,0.869-1.596,1.484-2.211
	c0.639-0.639,1.387-1.133,2.244-1.485c0.857-0.374,1.771-0.562,2.739-0.562c1.122,0,2.155,0.242,3.103,0.727
	c0.969,0.462,1.771,1.1,2.408,1.914l5.379-3.631c-1.254-1.627-2.826-2.926-4.719-3.894c-1.893-0.989-3.949-1.485-6.171-1.485
	c-1.87,0-3.632,0.353-5.28,1.057s-3.104,1.661-4.355,2.871c-1.231,1.21-2.211,2.629-2.938,4.257
	c-0.727,1.606-1.089,3.333-1.089,5.181s0.362,3.586,1.089,5.215c0.727,1.605,1.705,3.014,2.938,4.224
	c1.254,1.21,2.707,2.167,4.355,2.871s3.41,1.056,5.28,1.056c1.319,0,2.573-0.242,3.762-0.727c1.188-0.483,2.103-1.209,2.739-2.178
	v2.409h5.181v-15.015H430.518L430.518,982.994z M335.939,1046.212l5.576,7.788h-7.887l-4.884-6.896h-3.366V1054h-6.566v-25.74
	h12.572c1.65,0,3.08,0.254,4.29,0.76c1.21,0.483,2.212,1.154,3.003,2.013c0.793,0.858,1.375,1.858,1.75,3.003
	c0.396,1.145,0.594,2.354,0.594,3.63c0,0.901-0.109,1.782-0.33,2.64c-0.197,0.858-0.506,1.661-0.924,2.409
	c-0.418,0.726-0.947,1.397-1.584,2.013C337.546,1045.32,336.798,1045.816,335.939,1046.212z M334.652,1037.73
	c0-0.989-0.274-1.814-0.824-2.476c-0.551-0.659-1.485-0.989-2.807-0.989h-5.643v6.863h5.643c0.66,0,1.223-0.088,1.685-0.264
	c0.462-0.198,0.836-0.451,1.122-0.76c0.285-0.309,0.495-0.672,0.627-1.09S334.652,1038.171,334.652,1037.73z M351.686,1054h6.6
	v-25.74h-6.6V1054z M393.159,1036.18c0.526,1.563,0.792,3.213,0.792,4.95c0,1.761-0.266,3.421-0.792,4.983
	c-0.507,1.562-1.267,2.926-2.277,4.092s-2.286,2.09-3.827,2.771c-1.519,0.683-3.277,1.022-5.279,1.022h-11.946v-25.74h11.946
	c2.002,0,3.762,0.341,5.279,1.023c1.541,0.682,2.815,1.616,3.827,2.805C391.895,1033.254,392.652,1034.618,393.159,1036.18z
	 M387.285,1041.13c0-1.937-0.508-3.498-1.52-4.687c-1.012-1.188-2.508-1.781-4.488-1.781h-4.85v12.969h4.85
	c0.99,0,1.859-0.154,2.607-0.462c0.748-0.33,1.375-0.78,1.881-1.353c0.506-0.573,0.881-1.254,1.123-2.047
	C387.152,1042.979,387.285,1042.098,387.285,1041.13z M404.407,1054h19.767v-6.369h-13.167v-3.3h10.824v-5.974h-10.824v-3.695
	h13.167v-6.402h-19.767V1054L404.407,1054z"/>
</svg>
