<?xml version="1.0" encoding="utf-8"?>
<!-- Generator: Adobe Illustrator 16.0.0, SVG Export Plug-In . SVG Version: 6.00 Build 0)  -->
<!DOCTYPE svg PUBLIC "-//W3C//DTD SVG 1.1//EN" "http://www.w3.org/Graphics/SVG/1.1/DTD/svg11.dtd">
<svg version="1.1" id="Layer_1" xmlns="http://www.w3.org/2000/svg" xmlns:xlink="http://www.w3.org/1999/xlink" x="0px" y="0px"
	 width="480px" height="1000px" viewBox="144.5 516.5 480 1000" enable-background="new 144.5 516.5 480 1000" xml:space="preserve"
	>
<path fill="#FFFFFF" d="M220.089,970.918c-0.562-1.365-0.841-2.818-0.841-4.361c0-1.541,0.279-2.996,0.841-4.361
	c0.596-1.367,1.402-2.541,2.418-3.52c1.015-1.018,2.19-1.805,3.521-2.365c1.365-0.596,2.82-0.896,4.361-0.896
	c1.576,0,3.03,0.301,4.361,0.896c1.368,0.561,2.54,1.348,3.521,2.365c1.016,0.979,1.804,2.152,2.366,3.52
	c0.593,1.365,0.893,2.82,0.893,4.361c0,1.543-0.3,2.996-0.893,4.361c-0.563,1.369-1.351,2.559-2.366,3.574
	c-0.981,0.98-2.153,1.77-3.521,2.365c-1.331,0.561-2.785,0.84-4.361,0.84c-1.541,0-2.996-0.279-4.361-0.84
	c-1.331-0.596-2.507-1.385-3.521-2.365C221.488,973.477,220.685,972.287,220.089,970.918z M144.5,516.5h240v1000h-240V516.5z
	 M322.718,966.557c0,2.943,0.579,5.711,1.735,8.305c1.156,2.557,2.716,4.799,4.677,6.727c1.998,1.926,4.31,3.451,6.938,4.572
	c2.629,1.121,5.432,1.682,8.407,1.682c2.103,0,4.1-0.387,5.992-1.158c1.894-0.77,3.346-1.924,4.362-3.469v3.838h8.251v-23.912
	h-19.761v8.725h9.934v1.156c-0.982,1.436-2.226,2.574-3.732,3.416c-1.506,0.84-3.188,1.26-5.046,1.26
	c-1.541,0-2.995-0.279-4.36-0.84c-1.366-0.596-2.559-1.385-3.574-2.365c-0.98-1.016-1.77-2.205-2.365-3.574
	c-0.56-1.365-0.841-2.818-0.841-4.361c0-1.541,0.281-2.996,0.841-4.361c0.596-1.367,1.385-2.541,2.365-3.52
	c1.016-1.018,2.208-1.805,3.574-2.365c1.365-0.596,2.819-0.896,4.36-0.896c1.789,0,3.434,0.387,4.941,1.158
	c1.541,0.736,2.819,1.752,3.837,3.049l8.565-5.783c-1.996-2.59-4.502-4.66-7.515-6.201c-3.014-1.574-6.289-2.365-9.829-2.365
	c-2.976,0-5.778,0.563-8.407,1.684c-2.628,1.121-4.939,2.645-6.938,4.572c-1.961,1.926-3.521,4.188-4.677,6.779
	C323.297,960.865,322.718,963.613,322.718,966.557z M268.569,987.053h10.51v-22.859l18.286,22.859h8.884v-40.99h-10.458v22.912
	l-18.289-22.912h-8.933V987.053z M208.631,966.557c0,2.943,0.577,5.711,1.733,8.305c1.157,2.557,2.715,4.799,4.679,6.727
	c1.996,1.926,4.31,3.451,6.936,4.572c2.662,1.121,5.467,1.682,8.409,1.682c2.979,0,5.781-0.561,8.409-1.682
	c2.662-1.121,4.975-2.646,6.936-4.572c1.997-1.928,3.558-4.17,4.679-6.727c1.156-2.594,1.733-5.361,1.733-8.305
	s-0.577-5.691-1.733-8.25c-1.121-2.592-2.682-4.854-4.679-6.779c-1.961-1.928-4.273-3.451-6.936-4.572
	c-2.628-1.121-5.431-1.684-8.409-1.684c-2.942,0-5.747,0.563-8.409,1.684c-2.626,1.121-4.939,2.645-6.936,4.572
	c-1.964,1.926-3.521,4.188-4.679,6.779C209.211,960.865,208.631,963.613,208.631,966.557z M164.54,987.053h30.114V976.91H175
	v-30.848h-10.46V987.053z M437.404,976.91h-19.658v-30.848h-10.455v40.99h30.113V976.91z M488.483,981.588
	c-1.961,1.926-4.274,3.451-6.938,4.572c-2.625,1.121-5.426,1.682-8.406,1.682c-2.944,0-5.745-0.561-8.407-1.682
	c-2.629-1.121-4.939-2.646-6.938-4.572c-1.961-1.928-3.521-4.17-4.676-6.727c-1.157-2.594-1.736-5.361-1.736-8.305
	s0.579-5.691,1.736-8.25c1.155-2.592,2.715-4.854,4.676-6.779c1.999-1.928,4.31-3.451,6.938-4.572
	c2.662-1.121,5.465-1.684,8.407-1.684c2.98,0,5.781,0.563,8.406,1.684c2.666,1.121,4.977,2.645,6.938,4.572
	c1.998,1.926,3.555,4.188,4.677,6.779c1.158,2.559,1.736,5.307,1.736,8.25s-0.578,5.711-1.736,8.305
	C492.041,977.418,490.481,979.66,488.483,981.588z M484.28,966.557c0-1.541-0.298-2.996-0.894-4.361
	c-0.563-1.367-1.352-2.541-2.362-3.52c-0.982-1.018-2.157-1.805-3.524-2.365c-1.331-0.596-2.785-0.896-4.36-0.896
	c-1.543,0-2.995,0.301-4.361,0.896c-1.331,0.561-2.505,1.348-3.521,2.365c-1.018,0.979-1.825,2.152-2.42,3.52
	c-0.561,1.365-0.84,2.82-0.84,4.361c0,1.543,0.281,2.996,0.84,4.361c0.595,1.369,1.402,2.559,2.42,3.574
	c1.016,0.98,2.189,1.77,3.521,2.365c1.366,0.561,2.819,0.84,4.361,0.84c1.575,0,3.029-0.279,4.36-0.84
	c1.367-0.596,2.542-1.385,3.524-2.365c1.014-1.016,1.804-2.205,2.362-3.574C483.982,969.553,484.28,968.1,484.28,966.557z
	 M548.998,987.053v-40.99h-10.456v22.912l-18.286-22.912h-8.936v40.99h10.512v-22.859l18.288,22.859H548.998z M586.071,963.141
	v8.725h9.932v1.156c-0.98,1.436-2.225,2.574-3.731,3.416c-1.507,0.84-3.188,1.26-5.045,1.26c-1.544,0-2.996-0.279-4.361-0.84
	c-1.366-0.596-2.558-1.385-3.574-2.365c-0.979-1.016-1.768-2.205-2.364-3.574c-0.561-1.365-0.84-2.818-0.84-4.361
	c0-1.541,0.28-2.996,0.84-4.361c0.597-1.367,1.385-2.541,2.364-3.52c1.017-1.018,2.208-1.805,3.574-2.365
	c1.365-0.596,2.82-0.896,4.361-0.896c1.787,0,3.433,0.387,4.941,1.158c1.542,0.736,2.819,1.752,3.835,3.049l8.566-5.783
	c-1.998-2.59-4.501-4.66-7.515-6.201c-3.014-1.574-6.29-2.365-9.828-2.365c-2.979,0-5.783,0.563-8.408,1.684
	c-2.626,1.121-4.942,2.645-6.937,4.572c-1.961,1.926-3.521,4.188-4.678,6.779c-1.157,2.559-1.734,5.307-1.734,8.25
	s0.577,5.711,1.734,8.305c1.156,2.557,2.716,4.799,4.678,6.727c1.997,1.926,4.311,3.451,6.937,4.572
	c2.625,1.121,5.43,1.682,8.408,1.682c2.102,0,4.099-0.387,5.991-1.158c1.893-0.77,3.348-1.924,4.362-3.469v3.838h8.25v-23.912
	H586.071L586.071,963.141z M435.454,1063.816l8.88,12.402h-12.56l-7.777-10.982h-5.361v10.982H408.18v-40.99h20.021
	c2.628,0,4.904,0.404,6.831,1.209c1.927,0.77,3.523,1.838,4.782,3.205c1.263,1.367,2.19,2.959,2.788,4.783
	c0.63,1.822,0.944,3.748,0.944,5.781c0,1.434-0.174,2.838-0.525,4.203c-0.314,1.365-0.806,2.645-1.471,3.836
	c-0.667,1.154-1.51,2.225-2.522,3.205C438.012,1062.396,436.821,1063.188,435.454,1063.816z M433.404,1050.311
	c0-1.576-0.437-2.891-1.313-3.943c-0.877-1.049-2.365-1.576-4.47-1.576h-8.986v10.932h8.986c1.052,0,1.947-0.141,2.683-0.42
	c0.735-0.316,1.332-0.719,1.787-1.211c0.454-0.492,0.788-1.07,0.998-1.736C433.3,1051.691,433.404,1051.012,433.404,1050.311z
	 M460.529,1076.219h10.511v-40.99h-10.511V1076.219z M526.577,1047.84c0.839,2.488,1.262,5.117,1.262,7.883
	c0,2.805-0.423,5.449-1.262,7.938c-0.808,2.486-2.017,4.66-3.627,6.516c-1.609,1.857-3.64,3.328-6.095,4.414
	c-2.418,1.088-5.219,1.627-8.407,1.627h-19.024v-40.99h19.024c3.188,0,5.991,0.541,8.407,1.629c2.455,1.086,4.484,2.574,6.095,4.467
	C524.563,1043.182,525.77,1045.354,526.577,1047.84z M517.223,1055.723c0-3.082-0.809-5.57-2.42-7.463
	c-1.61-1.891-3.993-2.836-7.147-2.836h-7.724v20.652h7.724c1.576,0,2.961-0.246,4.153-0.734c1.19-0.527,2.189-1.244,2.994-2.154
	c0.806-0.912,1.403-1.996,1.789-3.26C517.012,1058.668,517.223,1057.264,517.223,1055.723z M544.49,1076.219h31.479v-10.143H555
	v-5.254h17.238v-9.514H555v-5.885h20.969v-10.195H544.49V1076.219L544.49,1076.219z"/>
</svg>
