<svg width="817" height="540" viewBox="0 0 817 540" fill="none" xmlns="http://www.w3.org/2000/svg">
<path fill-rule="evenodd" clip-rule="evenodd" d="M392 0H0V540H392V0ZM197.647 249.151C191.89 246.744 185.087 245.54 177.237 245.54H117.42V368H148.663V335.187H164.677L187.913 368H225.436L198.903 330.948C202.985 329.064 206.544 326.709 209.579 323.883C212.614 320.952 215.126 317.76 217.115 314.306C219.104 310.747 220.569 306.927 221.511 302.845C222.558 298.763 223.081 294.576 223.081 290.285C223.081 284.214 222.139 278.458 220.255 273.015C218.476 267.572 215.702 262.81 211.934 258.728C208.166 254.646 203.404 251.454 197.647 249.151ZM148.663 306.77V274.114H175.51C181.79 274.114 186.238 275.684 188.855 278.824C191.472 281.964 192.78 285.889 192.78 290.599C192.78 292.692 192.466 294.733 191.838 296.722C191.21 298.711 190.216 300.438 188.855 301.903C187.494 303.368 185.715 304.572 183.517 305.514C181.319 306.351 178.65 306.77 175.51 306.77H148.663ZM367.85 245.54H273.807V368H367.85V337.699H305.207V321.999H356.703V293.582H305.207V275.998H367.85V245.54ZM473.162 245.54H419.154V368H450.554V340.211H473.162C481.326 340.211 488.391 338.955 494.357 336.443C500.428 333.826 505.452 330.372 509.429 326.081C513.407 321.685 516.337 316.609 518.221 310.852C520.21 305.095 521.204 298.972 521.204 292.483C521.204 286.308 520.21 280.394 518.221 274.742C516.337 269.09 513.407 264.118 509.429 259.827C505.452 255.431 500.428 251.977 494.357 249.465C488.391 246.848 481.326 245.54 473.162 245.54ZM450.554 311.637V274.114H471.435C474.68 274.114 477.454 274.637 479.756 275.684C482.059 276.626 483.943 277.987 485.408 279.766C486.874 281.441 487.92 283.429 488.548 285.732C489.176 287.93 489.49 290.233 489.49 292.64C489.49 298.083 488.13 302.636 485.408 306.299C482.687 309.858 478.029 311.637 471.435 311.637H450.554ZM645.336 368H679.562L630.107 245.54H599.021L549.409 368H583.635L590.386 350.102H638.585L645.336 368ZM601.062 321.685L614.564 285.732L627.909 321.685H601.062ZM779.071 245.54L751.91 289.971L724.906 245.54H688.011L736.367 323.098V368H767.61V323.098L816.123 245.54H779.071Z" fill="white"/>
</svg>
