<svg width="395" height="262" viewBox="0 0 395 262" fill="none" xmlns="http://www.w3.org/2000/svg">
<path fill-rule="evenodd" clip-rule="evenodd" d="M199.134 0H0V262H199.134V0ZM110.507 121.55C107.867 120.446 104.747 119.894 101.147 119.894H73.7153V176.054H88.0433V161.006H95.3873L106.043 176.054H123.251L111.083 159.062C112.955 158.198 114.587 157.118 115.979 155.822C117.371 154.478 118.523 153.014 119.435 151.43C120.347 149.798 121.019 148.046 121.451 146.174C121.931 144.302 122.171 142.382 122.171 140.414C122.171 137.63 121.739 134.99 120.875 132.494C120.059 129.998 118.787 127.814 117.059 125.942C115.331 124.07 113.147 122.606 110.507 121.55ZM88.0433 147.974V132.998H100.355C103.235 132.998 105.275 133.718 106.475 135.158C107.675 136.598 108.275 138.398 108.275 140.558C108.275 141.518 108.131 142.454 107.843 143.366C107.555 144.278 107.099 145.07 106.475 145.742C105.851 146.414 105.035 146.966 104.027 147.398C103.019 147.782 101.795 147.974 100.355 147.974H88.0433ZM188.562 119.894H145.434V176.054H188.562V162.158H159.834V154.958H183.45V141.926H159.834V133.862H188.562V119.894ZM236.858 119.894H212.09V176.054H226.49V163.31H236.858C240.602 163.31 243.842 162.734 246.578 161.582C249.362 160.382 251.666 158.798 253.49 156.83C255.314 154.814 256.658 152.486 257.522 149.846C258.434 147.206 258.89 144.398 258.89 141.422C258.89 138.59 258.434 135.878 257.522 133.286C256.658 130.694 255.314 128.414 253.49 126.446C251.666 124.43 249.362 122.846 246.578 121.694C243.842 120.494 240.602 119.894 236.858 119.894ZM226.49 150.206V132.998H236.066C237.554 132.998 238.826 133.238 239.882 133.718C240.938 134.15 241.802 134.774 242.474 135.59C243.146 136.358 243.626 137.27 243.914 138.326C244.202 139.334 244.346 140.39 244.346 141.494C244.346 143.99 243.722 146.078 242.474 147.758C241.226 149.39 239.09 150.206 236.066 150.206H226.49ZM315.817 176.054H331.513L308.833 119.894H294.577L271.825 176.054H287.521L290.617 167.846H312.721L315.817 176.054ZM295.513 154.814L301.705 138.326L307.825 154.814H295.513ZM377.147 119.894L364.691 140.27L352.307 119.894H335.388L357.564 155.462V176.054H371.892V155.462L394.139 119.894H377.147Z" fill="white"/>
</svg>
