<svg width="550" height="720" viewBox="0 0 550 720" fill="none" xmlns="http://www.w3.org/2000/svg">
<path fill-rule="evenodd" clip-rule="evenodd" d="M249 0H0V720H249V0ZM115.81 340.73C111.777 339.043 107.01 338.2 101.51 338.2H59.6V424H81.49V401.01H92.71L108.99 424H135.28L116.69 398.04C119.55 396.72 122.043 395.07 124.17 393.09C126.297 391.037 128.057 388.8 129.45 386.38C130.843 383.887 131.87 381.21 132.53 378.35C133.263 375.49 133.63 372.557 133.63 369.55C133.63 365.297 132.97 361.263 131.65 357.45C130.403 353.637 128.46 350.3 125.82 347.44C123.18 344.58 119.843 342.343 115.81 340.73ZM81.49 381.1V358.22H100.3C104.7 358.22 107.817 359.32 109.65 361.52C111.483 363.72 112.4 366.47 112.4 369.77C112.4 371.237 112.18 372.667 111.74 374.06C111.3 375.453 110.603 376.663 109.65 377.69C108.697 378.717 107.45 379.56 105.91 380.22C104.37 380.807 102.5 381.1 100.3 381.1H81.49ZM235.06 338.2H169.17V424H235.06V402.77H191.17V391.77H227.25V371.86H191.17V359.54H235.06V338.2ZM308.846 338.2H271.006V424H293.006V404.53H308.846C314.566 404.53 319.516 403.65 323.696 401.89C327.95 400.057 331.47 397.637 334.256 394.63C337.043 391.55 339.096 387.993 340.416 383.96C341.81 379.927 342.506 375.637 342.506 371.09C342.506 366.763 341.81 362.62 340.416 358.66C339.096 354.7 337.043 351.217 334.256 348.21C331.47 345.13 327.95 342.71 323.696 340.95C319.516 339.117 314.566 338.2 308.846 338.2ZM293.006 384.51V358.22H307.636C309.91 358.22 311.853 358.587 313.466 359.32C315.08 359.98 316.4 360.933 317.426 362.18C318.453 363.353 319.186 364.747 319.626 366.36C320.066 367.9 320.286 369.513 320.286 371.2C320.286 375.013 319.333 378.203 317.426 380.77C315.52 383.263 312.256 384.51 307.636 384.51H293.006ZM453.458 424L418.808 338.2H397.028L362.268 424H386.248L390.978 411.46H424.748L429.478 424H453.458ZM398.458 391.55L407.918 366.36L417.268 391.55H398.458ZM523.177 338.2L504.147 369.33L485.227 338.2H459.377L493.257 392.54V424H515.147V392.54L549.137 338.2H523.177Z" fill="white"/>
</svg>
