<?xml version="1.0" encoding="utf-8"?>
<!-- Generator: Adobe Illustrator 16.0.0, SVG Export Plug-In . SVG Version: 6.00 Build 0)  -->
<!DOCTYPE svg PUBLIC "-//W3C//DTD SVG 1.1//EN" "http://www.w3.org/Graphics/SVG/1.1/DTD/svg11.dtd">
<svg version="1.1" id="Layer_1" xmlns="http://www.w3.org/2000/svg" xmlns:xlink="http://www.w3.org/1999/xlink" x="0px" y="0px"
	 width="400px" height="1000px" viewBox="84.5 257 400 1000" enable-background="new 84.5 257 400 1000" xml:space="preserve">
<path fill="#FFFFFF" d="M84.5,1257h172.618V257H84.5V1257z M208.597,735.141h37.138v12.027h-24.738v6.943h20.336v11.223h-20.336v6.2
	h24.738V783.5h-37.138V735.141z M146.839,735.141h23.621c3.1,0,5.787,0.475,8.061,1.426c2.273,0.908,4.154,2.17,5.642,3.781
	c1.488,1.612,2.583,3.493,3.286,5.643c0.744,2.148,1.115,4.423,1.115,6.82c0,1.694-0.206,3.348-0.619,4.959
	c-0.372,1.612-0.951,3.121-1.736,4.526c-0.785,1.364-1.777,2.625-2.977,3.782c-1.197,1.115-2.604,2.046-4.215,2.79l10.478,14.632
	h-14.817l-9.177-12.958h-6.323V783.5h-12.338V735.141z M169.778,759.32h-10.602v-12.896h10.602c2.48,0,4.236,0.62,5.27,1.86
	c1.033,1.239,1.551,2.79,1.551,4.649c0,0.828-0.125,1.633-0.373,2.418s-0.641,1.467-1.178,2.047
	c-0.537,0.578-1.24,1.054-2.107,1.426C172.072,759.154,171.019,759.32,169.778,759.32z M301.644,740.782
	c-1.569-1.736-3.553-3.101-5.951-4.093c-2.356-1.032-5.146-1.549-8.37-1.549h-21.328V783.5h12.399v-10.975h8.929
	c3.224,0,6.014-0.496,8.37-1.487c2.398-1.033,4.382-2.397,5.951-4.093c1.572-1.735,2.729-3.74,3.473-6.014
	c0.786-2.272,1.178-4.69,1.178-7.254c0-2.439-0.392-4.773-1.178-7.006C304.372,744.439,303.216,742.477,301.644,740.782z
	 M292.158,759.134c-1.074,1.405-2.914,2.108-5.519,2.108h-8.246v-14.818h8.246c1.283,0,2.377,0.207,3.287,0.62
	c0.909,0.372,1.653,0.909,2.231,1.612c0.579,0.66,0.992,1.447,1.239,2.355c0.248,0.868,0.373,1.777,0.373,2.729
	C293.771,755.889,293.233,757.688,292.158,759.134z M337.024,735.141L317.433,783.5h13.516l2.666-7.068h19.033l2.666,7.068h13.517
	l-19.53-48.359H337.024z M337.83,765.21l5.332-14.198l5.271,14.198H337.83z M422.759,735.141l-19.158,30.627V783.5h-12.338v-17.732
	l-19.096-30.627h14.57l10.664,17.545l10.726-17.545H422.759z"/>
</svg>
