<svg width="300" height="481" viewBox="0 0 300 481" fill="none" xmlns="http://www.w3.org/2000/svg">
<path fill-rule="evenodd" clip-rule="evenodd" d="M134 0H0V481H134V0ZM55.402 220.066C53.1287 219.115 50.442 218.64 47.342 218.64H23.72V267H36.058V254.042H42.382L51.558 267H66.376L55.898 252.368C57.51 251.624 58.9153 250.694 60.114 249.578C61.3127 248.421 62.3047 247.16 63.09 245.796C63.8753 244.391 64.454 242.882 64.826 241.27C65.2393 239.658 65.446 238.005 65.446 236.31C65.446 233.913 65.074 231.639 64.33 229.49C63.6273 227.341 62.532 225.46 61.044 223.848C59.556 222.236 57.6753 220.975 55.402 220.066ZM36.058 242.82V229.924H46.66C49.14 229.924 50.8967 230.544 51.93 231.784C52.9633 233.024 53.48 234.574 53.48 236.434C53.48 237.261 53.356 238.067 53.108 238.852C52.86 239.637 52.4673 240.319 51.93 240.898C51.3927 241.477 50.69 241.952 49.822 242.324C48.954 242.655 47.9 242.82 46.66 242.82H36.058ZM122.616 218.64H85.4778V267H122.616V255.034H97.8778V248.834H118.214V237.612H97.8778V230.668H122.616V218.64ZM164.204 218.64H142.876V267H155.276V256.026H164.204C167.428 256.026 170.218 255.53 172.574 254.538C174.972 253.505 176.956 252.141 178.526 250.446C180.097 248.71 181.254 246.705 181.998 244.432C182.784 242.159 183.176 239.741 183.176 237.178C183.176 234.739 182.784 232.404 181.998 230.172C181.254 227.94 180.097 225.977 178.526 224.282C176.956 222.546 174.972 221.182 172.574 220.19C170.218 219.157 167.428 218.64 164.204 218.64ZM155.276 244.742V229.924H163.522C164.804 229.924 165.899 230.131 166.808 230.544C167.718 230.916 168.462 231.453 169.04 232.156C169.619 232.817 170.032 233.603 170.28 234.512C170.528 235.38 170.652 236.289 170.652 237.24C170.652 239.389 170.115 241.187 169.04 242.634C167.966 244.039 166.126 244.742 163.522 244.742H155.276ZM245.712 267L226.182 218.64H213.906L194.314 267H207.83L210.496 259.932H229.53L232.196 267H245.712ZM214.712 248.71L220.044 234.512L225.314 248.71H214.712ZM285.009 218.64L274.283 236.186L263.619 218.64H249.049L268.145 249.268V267H280.483V249.268L299.641 218.64H285.009Z" fill="white"/>
</svg>
